<svg xmlns="http://www.w3.org/2000/svg" width="192" height="192" viewBox="0 0 192 192">
    <g fill="none" fill-rule="evenodd">
        <path d="M0 0h192v192H0z" opacity=".397"/>
        <g transform="translate(19 39)">
            <path fill="#F3F5F6" stroke="#292C36" stroke-width="1.2" d="M24.582 15.746L60 24.6l37.236-9.309a4.8 4.8 0 0 1 2.328 0l35.418 8.855a2.4 2.4 0 0 1 1.818 2.328v91.052a2.4 2.4 0 0 1-2.982 2.328L98.4 111 60 120.6l-37.491-9.373a1.2 1.2 0 0 1-.909-1.164v-91.99a2.4 2.4 0 0 1 2.982-2.327z"/>
            <path fill="#E5E7E9" d="M60 28.8l-34.8-9V108l34.8 9z"/>
            <path fill="#292C36" fill-opacity=".205" d="M60.6 28.2l37.2-9.6v88.8L60.6 117z"/>
            <path fill="#292C36" fill-opacity=".05" d="M132.6 27.6l-34.8-9v88.8l34.8 8.4z"/>
            <path fill="#D9D9D9" d="M25.2 72.6c11.6-8.8 22.6-10.4 33-4.8 15.6 8.4 12 18.6 15.6 28.2 3.6 9.6 15.6 11.4 18.6 11.4 2 0-8.6 3.2-31.8 9.6l-35.4-9V72.6z"/>
            <path fill="#F1F2F2" d="M25.2 72.6c11.6-8.8 22.6-10.4 33-4.8.567.305 1.361.768 2.384 1.389L60.6 117l-35.4-9V72.6z"/>
            <ellipse cx="95.4" cy="42" fill="#D7D7D7" rx="19.8" ry="13.8"/>
            <path fill="#FAFBFD" d="M97.864 55.694c.409-.035.814-.08 1.215-.132C108.256 54.361 115.2 48.745 115.2 42c0-6.965-7.403-12.724-17.023-13.665"/>
            <path stroke="#292C36" stroke-width=".6" d="M25.2 19.527l34.8 9 37.803-9.773a2.4 2.4 0 0 1 1.194-.002l32.7 8.345a1.2 1.2 0 0 1 .903 1.163v86.016a1.2 1.2 0 0 1-1.482 1.166L97.8 107.4 60 117l-34.8-9V19.527z"/>
            <path fill="#292C36" d="M60 28.2h1V117h-1zM97.5 18.6h.6v88.8h-.6z"/>
            <path stroke="#797F84" stroke-dasharray="2.4,4.8" stroke-linecap="round" stroke-width=".9" d="M37.2 101.4c18.6-18 6.6-34.2 10.8-42.6 4.2-8.4 15.6-10.8 30-3.6 14.4 7.2 10.8 40.2 31.2 34.8 20.4-5.4 20.4-41.4 15-54.6" opacity=".432"/>
            <path stroke="#1EA4FF" stroke-dasharray="9.6" stroke-linecap="round" stroke-width="2.4" d="M33.6 99c18.6-18 6.6-34.2 10.8-42.6 4.2-8.4 15.6-10.8 30-3.6C88.8 60 85.2 93 105.6 87.6c20.4-5.4 20.4-41.4 15-54.6"/>
            <g transform="translate(0 66.6)">
                <path fill="#292C36" fill-rule="nonzero" d="M11.496 9.714c.775-.504 1.519-1.053 2.325-1.505a13.979 13.979 0 0 1 9.443-1.574 13.89 13.89 0 0 1 6.614 3.062 14.485 14.485 0 0 1 4.922 8.175c.893 3.972 1.825 7.976 2.878 11.914.656 2.499 1.532 4.939 2.325 7.406.303.704.21 1.516-.244 2.134a1.966 1.966 0 0 1-1.883.8 4.139 4.139 0 0 1-.79-.205c-4.594-1.516-9.178-3.07-13.922-4.15a76.385 76.385 0 0 0-4.425-.852 14.456 14.456 0 0 1-6.454-2.63 13.935 13.935 0 0 1-5.703-9.52A14.18 14.18 0 0 1 8.91 12.655c.3-.452.636-.873.956-1.31l1.63-1.63zM25.082 25.06a6.124 6.124 0 1 0-8.661.035 6.144 6.144 0 0 0 8.661-.035z"/>
                <path fill="#DADADA" fill-opacity=".165" fill-rule="nonzero" d="M11.496 9.714c.775-.504 1.519-1.053 2.325-1.505a13.979 13.979 0 0 1 9.443-1.574 13.89 13.89 0 0 1 6.614 3.062 14.484 14.484 0 0 1 3.416 4.126C33.991 15.08 27.6 14.4 21 21c-6.6 6.6-4.465 13.467-5.505 13.056a14.455 14.455 0 0 1-3.21-1.768 13.935 13.935 0 0 1-5.703-9.52A14.18 14.18 0 0 1 8.91 12.656c.3-.452.636-.873.956-1.31l1.63-1.63z"/>
                <circle cx="21" cy="21" r="6.6" fill="#FFF"/>
                <path fill="#292C36" fill-rule="nonzero" d="M22.211 19.303a2.04 2.04 0 1 1-2.933 2.837 2.04 2.04 0 0 1 2.933-2.837z"/>
            </g>
            <g transform="matrix(-1 0 0 1 152.6 0)">
                <path fill="#292C36" fill-rule="nonzero" d="M11.496 9.714c.775-.504 1.519-1.053 2.325-1.505a13.979 13.979 0 0 1 9.443-1.574 13.89 13.89 0 0 1 6.614 3.062 14.485 14.485 0 0 1 4.922 8.175c.893 3.972 1.825 7.976 2.878 11.914.656 2.499 1.532 4.939 2.325 7.406.303.704.21 1.516-.244 2.134a1.966 1.966 0 0 1-1.883.8 4.139 4.139 0 0 1-.79-.205c-4.594-1.516-9.178-3.07-13.922-4.15a76.385 76.385 0 0 0-4.425-.852 14.456 14.456 0 0 1-6.454-2.63 13.935 13.935 0 0 1-5.703-9.52A14.18 14.18 0 0 1 8.91 12.655c.3-.452.636-.873.956-1.31l1.63-1.63zM25.082 25.06a6.124 6.124 0 1 0-8.661.035 6.144 6.144 0 0 0 8.661-.035z"/>
                <path fill="#DADADA" fill-opacity=".165" fill-rule="nonzero" d="M11.496 9.714c.775-.504 1.519-1.053 2.325-1.505a13.979 13.979 0 0 1 9.443-1.574 13.89 13.89 0 0 1 6.614 3.062 14.484 14.484 0 0 1 3.416 4.126C33.991 15.08 27.6 14.4 21 21c-6.6 6.6-4.465 13.467-5.505 13.056a14.455 14.455 0 0 1-3.21-1.768 13.935 13.935 0 0 1-5.703-9.52A14.18 14.18 0 0 1 8.91 12.656c.3-.452.636-.873.956-1.31l1.63-1.63z"/>
                <circle cx="21" cy="21" r="6.6" fill="#FFF"/>
                <path fill="#292C36" fill-rule="nonzero" d="M22.211 19.303a2.04 2.04 0 1 1-2.933 2.837 2.04 2.04 0 0 1 2.933-2.837z"/>
            </g>
        </g>
    </g>
</svg>
