<svg xmlns="http://www.w3.org/2000/svg" width="192" height="192" viewBox="0 0 192 192">
    <g fill="none" fill-rule="evenodd">
        <path d="M0 0h192v192H0z" opacity=".397"/>
        <g transform="translate(33 32)">
            <path stroke="#292C36" stroke-width="1.1" d="M96.8 115.1c0-6.904-15.312-12.5-34.2-12.5-18.888 0-34.2 5.596-34.2 12.5"/>
            <ellipse cx="62.6" cy="46.7" fill="#E5E7E9" stroke="#292C36" stroke-width="1.1" rx="39.6" ry="13.2"/>
            <g fill="#292C36" transform="translate(63 2)">
                <path d="M1 96l5.84-70.072a6 6 0 0 1 1.416-3.399L27.5 0l5 4-17.784 21.06a6 6 0 0 0-1.39 3.316L7 96.5 1 96z"/>
                <ellipse cx="4" cy="96" stroke="#292C36" rx="2.5" ry="1" transform="rotate(7 4 96)"/>
            </g>
            <ellipse cx="93.015" cy="4" fill="#FAFBFD" stroke="#292C36" rx="2.75" ry="1.5" transform="rotate(33 93.015 4)"/>
            <path fill="#6BC3FF" fill-opacity=".584" d="M29.5 113c0-7.333-.5-13.667-1.5-19s-2.333-12.167-4-20.5c2.633 7.8 8.9 11.7 18.8 11.7 14.85 0 22-6.6 35.2-6.6 8.8 0 15.633 2.467 20.5 7.4-1.333 5.667-2.167 11-2.5 16-.333 5-.333 8.667 0 11-6 7.333-17.167 11.05-33.5 11.15-16.333.1-27.333-3.617-33-11.15z"/>
            <path fill="#DADADA" stroke="#292C36" stroke-linejoin="round" d="M22.2 61.6c-.133-4.667.3-8.667 1.3-12 .321-1.071 1 4 10.5 6.2 3.379-3.581 6-8.988 6-14.3 0-11.046-8.954-20-20-20s-20 8.954-20 20 8.5 20.1 22.2 20.1z"/>
            <path fill="#F1F9FE" stroke="#292C36" stroke-linejoin="round" d="M29.586 54.3C33.48 51.382 36 46.84 36 41.6c0-8.837-7.163-16-16-16s-16 7.163-16 16 7.163 16 16 16c.195 0 2.25 0 2.25-1 0-.953.417-3.287 1.25-7 2 2.333 4.029 3.9 6.086 4.7z"/>
            <path fill="#0088E4" fill-opacity=".322" d="M21 61.6c2.5 0 1-11 3-11 1 0 8.847 6.584 11 4-9.76-3.391-16.427-6.391-20-9-3.592-2.623-7.549-7.538-11.87-14.747A19.906 19.906 0 0 0 0 41.6c0 11.046 9.954 20 21 20z" opacity=".424"/>
            <path stroke="#292C36" stroke-linejoin="round" d="M29.576 114.8a1 1 0 0 1-.99-1.14c.948-6.733-.118-16.912-3.198-30.536-1.873-8.29-2.933-15.826-3.178-22.611M102.2 46.7c1.533 10.2.633 22.467-2.7 36.8-3.333 14.333-4.233 24.767-2.7 31.3"/>
            <ellipse cx="62.6" cy="115.1" stroke="#292C36" stroke-width="1.1" rx="34.2" ry="12.5"/>
            <path fill="#DADADA" d="M62.5 127c18.502 0 34-5.5 34-12.5s1.5 10-34 10S29 108.373 29 115c0 6.627 14.998 12 33.5 12z"/>
            <path stroke="#292C36" stroke-width="1.1" d="M28.7 112.937c4.15 6.786 17.756 11.763 33.9 11.763 16.332 0 30.066-5.093 34.04-12"/>
            <circle cx="47.75" cy="93.45" r="1.65" fill="#0088E4" opacity=".593"/>
            <circle cx="41.15" cy="92.35" r="1.65" fill="#0088E4" opacity=".593"/>
            <circle cx="43.9" cy="99.5" r="2.2" fill="#0088E4" opacity=".593"/>
            <circle cx="73.5" cy="116" r="2.5" fill="#0088E4" opacity=".593" transform="matrix(0 -1 -1 0 189.5 189.5)"/>
            <circle cx="74.65" cy="109.15" r="1.65" fill="#0088E4" opacity=".593" transform="matrix(0 -1 -1 0 183.8 183.8)"/>
            <circle cx="81.5" cy="111" r="3.5" fill="#0088E4" opacity=".593" transform="matrix(0 -1 -1 0 192.5 192.5)"/>
            <path fill="#0088E4" fill-opacity=".207" d="M20 30.6c2.956 0 6.012 1.187 8 3.122L20 41.6v-11zM20 52.6c-2.956 0-6.012-1.187-8-3.122l8-7.878v11z"/>
            <g fill="#0088E4" fill-opacity=".207">
                <path d="M9.5 41.6c0-2.956 1.187-6.012 3.122-8l7.878 8h-11z"/>
            </g>
            <g fill="#0088E4" fill-opacity=".207">
                <path d="M30.5 41.6c0 2.956-1.187 6.012-3.122 8l-7.878-8h11z"/>
            </g>
        </g>
    </g>
</svg>
