<svg xmlns="http://www.w3.org/2000/svg" width="192" height="192" viewBox="0 0 192 192">
    <g fill="none" fill-rule="evenodd">
        <path d="M0 0h192v192H0z" opacity=".397"/>
        <g transform="translate(39.4 31)">
            <path fill="#292C36" d="M50.227 119.29h12.557v3.139a3.14 3.14 0 0 1-3.14 3.139h-6.278a3.14 3.14 0 0 1-3.139-3.14v-3.138z"/>
            <g fill="#FAFBFD" stroke="#797F84" stroke-width=".785">
                <path d="M25.506 6.67h2.354v13.342h-2.354zM47.48 6.67h2.355v13.342H47.48z"/>
            </g>
            <rect width="75.341" height="100.454" y="18.835" fill="#E5E7E9" stroke="#292C36" stroke-width=".785" rx="6.278"/>
            <path fill="#A1A5A9" fill-opacity=".287" d="M0 19.08c41.2-1.6 63 1 65.4 7.8 2.4 6.8 3.4 20.4 3 40.8h7.2v-41.4a7.2 7.2 0 0 0-7.2-7.2H0z"/>
            <path fill="#292C36" d="M12.557 119.29h12.557v3.139a3.14 3.14 0 0 1-3.14 3.139h-6.278a3.14 3.14 0 0 1-3.14-3.14v-3.138zM32.177 0h10.987c3.9 0 7.063 3.162 7.063 7.063H25.114c0-3.9 3.162-7.063 7.063-7.063z"/>
            <rect width="37.67" height="3.139" x="18.835" y="31.392" fill="#292C36" rx="1.57"/>
            <rect width="37.67" height="1" x="18.835" y="36.886" fill="#292C36" rx=".5"/>
            <rect width="37.67" height="1" x="18.835" y="40.025" fill="#292C36" rx=".5"/>
            <rect width="37.67" height="1" x="18.835" y="43.164" fill="#292C36" rx=".5"/>
            <rect width="50.227" height="56.506" x="12.557" y="50.227" fill="#A1A5A9" stroke="#292C36" stroke-width=".785" rx="9.418"/>
            <path fill="#0088E4" stroke="#292C36" stroke-width=".785" d="M21.974 49.896h31.392a9.418 9.418 0 0 1 9.418 9.418v3.139H12.557v-3.14a9.418 9.418 0 0 1 9.417-9.417z"/>
        </g>
        <g transform="translate(82.6 81.1)">
            <path fill="#FAFBFD" stroke="#797F84" stroke-width=".72" d="M29.665 4.238h2.825v5.651h-2.825zM57.918 4.238h2.825v5.651h-2.825z"/>
            <path fill="#292C36" d="M33.542 0H56.89a4.238 4.238 0 0 1 4.238 4.238H29.304A4.238 4.238 0 0 1 33.542 0z"/>
            <rect width="67.807" height="90.409" x="11.301" y="-1.413" fill="#FAFBFD" stroke="#292C36" stroke-width=".72" rx="5.651" transform="rotate(90 45.204 43.792)"/>
            <path fill="#797F84" fill-opacity=".1" d="M4.8 9.9c-2.772 1.712-3.972 2.512-3.6 2.4 6-1.8 66.677-1.385 74.4 10.2 6 9 5.4 44.4 3 49.2-1.6 3.2-4 5.2-7.2 6h13.2a6 6 0 0 0 6-6V16.55a7.2 7.2 0 0 0-7.25-7.2L4.8 9.9z"/>
            <path fill="#A1A5A9" stroke="#292C36" stroke-width=".72" d="M39.554 9.888h11.301v67.807H39.554z"/>
            <path fill="#1EA4FF" stroke="#292C36" stroke-width=".72" d="M38.613 31.2h14.126c.78 0 1.413.632 1.413 1.413v15.539a5.65 5.65 0 0 1-5.65 5.65H42.85a5.65 5.65 0 0 1-5.651-5.65v-15.54c0-.78.632-1.412 1.413-1.412z"/>
            <circle cx="45.6" cy="39.6" r="3" fill="#FAFBFD" stroke="#292C36" stroke-width="1.2"/>
            <g stroke="#292C36" stroke-width=".6" transform="rotate(-25 87.344 -133.858)">
                <path fill="#E5E7E9" d="M2.825 0h5.65l2.826 4.944v12.008H0V4.944z"/>
                <circle cx="5.651" cy="4.238" r="1.413" fill="#FAFBFD"/>
            </g>
            <path stroke="#292C36" stroke-linecap="square" stroke-width=".6" d="M59.33 10.595c0 2.825 7.064 2.119 9.183 3.531 2.119 1.413 3.532 3.532 2.825 12.714"/>
            <rect width="6.48" height="7.776" x="71.28" y="28.512" fill="#1EA4FF" rx="1.296" transform="rotate(-25 74.52 32.4)"/>
        </g>
        <g transform="translate(19 82.6)">
            <path fill="#E5E7E9" stroke="#292C36" stroke-width=".911" d="M78.3 51.664V73.6a2.383 2.383 0 0 1-2.383 2.383H2.536A2.383 2.383 0 0 1 .153 73.6V51.664c0-13.43 10.888-24.318 24.318-24.318h29.51c13.431 0 24.319 10.888 24.319 24.318z"/>
            <rect width="26.231" height="2.186" x="25.685" y="51.402" fill="#292C36" rx=".596"/>
            <path fill="#797F84" fill-opacity=".228" d="M0 51.6c6.4-4.8 19.6-7.2 39.6-7.2s32.8 2.4 38.4 7.2c.323-12.928-9.895-23.67-22.822-23.993-.195-.005-.39-.007-.585-.007H24c-13.255 0-24 10.745-24 24z" opacity=".563"/>
            <path fill="#292C36" d="M31.423 7.377C31.423 5.738 32.789 0 38.8 0c6.011 0 7.65 5.738 7.65 7.377 0 1.093 1.276 3.006 3.826 5.739l.445.692c8.083 12.7 12.124 25.31 12.124 37.834v24.319h-8.743V51.642c0-12.75-3.462-25.593-10.384-38.526-.364-2.733-1.093-4.646-1.093-5.739 0-1.639-.546-3.825-3.825-3.825s-3.825 2.186-3.825 3.825c0 .73-.274 2.642-.82 5.739-7.104 12.933-10.656 25.775-10.656 38.526v24.319h-8.744V51.642c0-12.75 4.19-25.593 12.569-38.526 2.732-3.097 4.099-5.01 4.099-5.739z"/>
            <g stroke="#292C36" stroke-width=".69">
                <g transform="scale(-1 1) rotate(-25 64.321 101.753)">
                    <path fill="#E5E7E9" d="M1.787 0h3.574l1.787 3.127v7.595H0V3.127z"/>
                    <circle cx="3.574" cy="2.68" r="1"/>
                </g>
                <path stroke-linecap="square" d="M40.406 28.003c0 1.787-4.467 1.34-5.807 2.234-1.34.893-2.234 2.233-1.787 8.041"/>
            </g>
            <path fill="#6BC3FF" stroke="#292C36" stroke-width=".911" d="M0 62.845a8.744 8.744 0 0 1 8.744 8.744v4.541H2.186A2.186 2.186 0 0 1 0 73.944V62.845zM78.447 62.845a8.744 8.744 0 0 0-8.743 8.744v4.541h6.557a2.186 2.186 0 0 0 2.186-2.186V62.845z"/>
        </g>
    </g>
</svg>
