<svg xmlns="http://www.w3.org/2000/svg" xmlns:xlink="http://www.w3.org/1999/xlink" width="1440" height="297" viewBox="0 0 1440 297">
    <defs>
        <path id="a" d="M0 0h67v255H0z"/>
    </defs>
    <g fill="none" fill-rule="evenodd">
        <g stroke="#292C36" transform="translate(149 76)">
            <path fill="#E5E7E9" d="M19.009 47.173l23-20.406a3 3 0 0 1 3.982 0l23 20.406A3 3 0 0 1 70 49.417V60H18V49.417a3 3 0 0 1 1.009-2.244z"/>
            <ellipse cx="44" cy="26" fill="#FAFBFD" rx="4" ry="26"/>
            <path fill="#FAFBFD" d="M5.24 66.102l37-26.825a3 3 0 0 1 3.52 0l37 26.825A3 3 0 0 1 84 68.53V82H4V68.53a3 3 0 0 1 1.24-2.428z"/>
            <rect width="36" height="21" x="26" y="50" fill="#FAFBFD" rx="2"/>
            <path fill="#FAFBFD" d="M2 82h84a2 2 0 0 1 2 2v136H0V84a2 2 0 0 1 2-2z"/>
            <path d="M18 108h52a2 2 0 0 1 2 2v110H16V110a2 2 0 0 1 2-2z"/>
            <rect width="36" height="8" x="26" y="121" rx="1"/>
            <rect width="36" height="8" x="26" y="137" rx="1"/>
            <rect width="36" height="8" x="26" y="153" rx="1"/>
            <rect width="36" height="8" x="26" y="169" rx="1"/>
            <rect width="36" height="8" x="26" y="185" rx="1"/>
            <rect width="36" height="8" x="26" y="201" rx="1"/>
        </g>
        <g transform="translate(368 195.5)">
            <rect width="13.5" height="2" x="11" y="6.5" fill="#292C36" rx="1" transform="rotate(90 17.75 7.5)"/>
            <path fill="#FAFBFD" stroke="#292C36" d="M17.875 7C26.09 7 32.75 13.66 32.75 21.875V41.75H3V21.875C3 13.66 9.66 7 17.875 7z"/>
            <g fill="#292C36" transform="translate(10.5 26)">
                <rect width="12" height="1" x="-5" y="6" rx=".5" transform="rotate(90 1 6.5)"/>
                <path d="M8.25 1v11a.5.5 0 1 1-1 0V1a.5.5 0 0 1 1 0z"/>
                <rect width="12" height="1" x="8.5" y="6" rx=".5" transform="rotate(90 14.5 6.5)"/>
            </g>
            <rect width="37" height="1" y="22.5" fill="#292C36" rx=".5"/>
        </g>
        <g transform="translate(463.25 195.5)">
            <rect width="13.5" height="2" x="11.75" y="6.5" fill="#292C36" rx="1" transform="rotate(90 18.5 7.5)"/>
            <path fill="#FAFBFD" stroke="#292C36" d="M18.625 7C26.84 7 33.5 13.66 33.5 21.875V41.75H3.75V21.875C3.75 13.66 10.41 7 18.625 7z"/>
            <g fill="#292C36" transform="translate(10.75 25.5)">
                <rect width="12" height="1" x="-5" y="6" rx=".5" transform="rotate(90 1 6.5)"/>
                <path d="M8.25 1v11a.5.5 0 1 1-1 0V1a.5.5 0 0 1 1 0z"/>
                <rect width="12" height="1" x="8.5" y="6" rx=".5" transform="rotate(90 14.5 6.5)"/>
            </g>
            <rect width="37" height="1" y="22.5" fill="#292C36" rx=".5"/>
        </g>
        <path fill="#FAFBFD" stroke="#292C36" d="M433.5 241.25c19.33 0 35-15.633 35-34.917 0-12.88-6.99-24.144-17.393-30.196-6.676-3.884-12.364-9.013-17.064-15.388a.672.672 0 0 0-1.083.002c-4.662 6.377-10.338 11.506-17.027 15.386-10.425 6.047-17.433 17.299-17.433 30.196 0 19.284 15.67 34.917 35 34.917z"/>
        <path fill="#FAFBFD" stroke="#292C36" d="M451.055 176.078c-6.662-3.87-12.339-8.98-17.03-15.331a.672.672 0 0 0-1.082.002c-4.653 6.353-10.318 11.463-16.994 15.329-5.197 3.01 4.266 7.672 17.533 7.672 13.268 0 22.769-4.655 17.573-7.672zM433.621 241.25c16.724 0 30.703-11.764 34.129-27.5H399.5c3.44 15.718 17.41 27.5 34.121 27.5z"/>
        <path fill="#FAFBFD" stroke="#292C36" d="M404.5 225.75h58V237h-58z"/>
        <path fill="#FAFBFD" stroke="#292C36" d="M412.25 236h43v60h-43zM404 236h8v60h-8zM455.25 236h8v60h-8z"/>
        <path fill="#FAFBFD" stroke="#292C36" d="M372.344 236h31.906v60H371v-58.656c0-.742.602-1.344 1.344-1.344zM463.5 236h31.906c.742 0 1.344.602 1.344 1.344V296H463.5v-60zM427.02 249.713l6.773-4.463 6.606 4.445a21.168 21.168 0 0 1 9.351 17.562v28.993H417.5v-28.862a21.168 21.168 0 0 1 9.52-17.675z"/>
        <path fill="#FAFBFD" stroke="#292C36" d="M386.4 243.56l1.42-1.06 1.388 1.058a13.44 13.44 0 0 1 5.292 10.688v8.41c0 .742-.602 1.344-1.344 1.344h-10.812a1.344 1.344 0 0 1-1.344-1.344v-8.326a13.44 13.44 0 0 1 5.4-10.77zM386.4 270.31l1.42-1.06 1.388 1.058a13.44 13.44 0 0 1 5.292 10.688v8.41c0 .742-.602 1.344-1.344 1.344h-10.812a1.344 1.344 0 0 1-1.344-1.344v-8.326a13.44 13.44 0 0 1 5.4-10.77zM478.9 243.56l1.42-1.06 1.388 1.058A13.44 13.44 0 0 1 487 254.246v8.41c0 .742-.602 1.344-1.344 1.344h-10.812a1.344 1.344 0 0 1-1.344-1.344v-8.326a13.44 13.44 0 0 1 5.4-10.77zM478.9 270.31l1.42-1.06 1.388 1.058A13.44 13.44 0 0 1 487 280.996v8.41c0 .742-.602 1.344-1.344 1.344h-10.812a1.344 1.344 0 0 1-1.344-1.344v-8.326a13.44 13.44 0 0 1 5.4-10.77z"/>
        <g transform="matrix(-1 0 0 1 82 100)">
            <path fill="#FAFBFD" stroke="#292C36" d="M4.04 55.413L82 .04v195H2a2 2 0 0 1-2-2V63.24a9.6 9.6 0 0 1 4.04-7.827z"/>
            <path fill="#292C36" d="M60 39.5v108a.5.5 0 0 1-1 0v-108a.5.5 0 1 1 1 0zM46 49.5v98a.5.5 0 1 1-1 0v-98a.5.5 0 1 1 1 0zM30.5 62v85a.5.5 0 0 1-1 0V62a.5.5 0 0 1 1 0zM16 73.5v104a.5.5 0 0 1-1 0v-104a.5.5 0 0 1 1 0zM76 31.5v116a.5.5 0 0 1-1 0v-116a.5.5 0 1 1 1 0z"/>
            <rect width="53" height="39" x="29" y="156" stroke="#292C36" rx="2"/>
            <rect width="6" height="15" x="64" y="168" fill="#292C36" rx="1"/>
            <rect width="6" height="15" x="52" y="168" fill="#292C36" rx="1"/>
            <rect width="6" height="15" x="40" y="168" fill="#292C36" rx="1"/>
        </g>
        <g stroke="#292C36">
            <path fill="#FAFBFD" d="M311 82h6v214h-8V84a2 2 0 0 1 2-2z"/>
            <path fill="#E5E7E9" d="M329 82h25v214h-25z"/>
            <path fill="#FAFBFD" d="M335 62h13a2 2 0 0 1 2 2v232h-17V64a2 2 0 0 1 2-2zM366 82h6a2 2 0 0 1 2 2v212h-8V82zM319 71h8a2 2 0 0 1 2 2v223h-12V73a2 2 0 0 1 2-2zM356 71h8a2 2 0 0 1 2 2v223h-12V73a2 2 0 0 1 2-2z"/>
            <path d="M333 82h17v16h-17zM333 98h17v16h-17zM333 114h17v16h-17zM333 130h17v16h-17zM333 146h17v16h-17zM333 162h17v16h-17zM333 178h17v16h-17zM333 194h17v16h-17zM333 210h17v16h-17zM333 226h17v16h-17zM333 242h17v16h-17zM333 258h17v16h-17zM333 274h17v16h-17z"/>
        </g>
        <g transform="translate(75)">
            <path fill="#292C36" d="M40.8 0a1 1 0 0 1 1 1v24.2h-2V1a1 1 0 0 1 1-1z"/>
            <path fill="#E5E7E9" stroke="#292C36" d="M32.76 70.578V51.974a.63.63 0 0 1 .43-.598L40.32 49V8.68l7.28 4.853a.63.63 0 0 1 .28.524V36.4l4.692 2.346a.63.63 0 0 1 .348.563V94.36H32.76V70.578z"/>
            <path fill="#FAFBFD" stroke="#292C36" d="M28.203 71.41l13.86-3.324a.63.63 0 0 1 .777.613v20.479l12.094 2.42a.63.63 0 0 1 .506.618V284.62H27.72V72.022c0-.291.2-.545.483-.613z"/>
            <path fill="#292C36" d="M27.72 103h7.5a.5.5 0 0 1 0 1h-7.5v-1zM27.72 99h7.5a.5.5 0 1 1 0 1h-7.5v-1zM27.72 106.96h7.5a.5.5 0 0 1 0 1h-7.5v-1zM55 105h-7.5a.5.5 0 0 0 0 1H55v-1zM55 109h-7.5a.5.5 0 0 0 0 1H55v-1zM55 113h-7.5a.5.5 0 0 0 0 1H55v-1z"/>
            <rect width="83.16" height="11.34" y="284.62" fill="#E5E7E9" stroke="#292C36" rx="1.26"/>
            <path fill="#F3F5F6" stroke="#292C36" d="M48.614 129.762l13.86 2.31a.63.63 0 0 1 .526.622V284.62H47.88V130.384a.63.63 0 0 1 .734-.622zM34.546 129.762l-13.86 2.31a.63.63 0 0 0-.526.622V284.62h15.12V130.384a.63.63 0 0 0-.734-.622z"/>
            <g fill="#292C36">
                <path d="M19.997 152.963l10.34-1.824a.5.5 0 1 1 .174.985l-10.34 1.823-.174-.984zM19.997 149.963l10.34-1.824a.5.5 0 1 1 .174.985l-10.34 1.823-.174-.984zM19.997 146.963l10.34-1.824a.5.5 0 1 1 .174.985l-10.34 1.823-.174-.984z"/>
            </g>
            <path fill="#FAFBFD" stroke="#292C36" d="M29.506 183.942l-13.86 2.31a.63.63 0 0 0-.526.622v97.746h15.12V184.564a.63.63 0 0 0-.734-.622zM53.654 183.942l13.86 2.31a.63.63 0 0 1 .526.622v97.746H52.92V184.564a.63.63 0 0 1 .734-.622z"/>
            <path fill="#F3F5F6" stroke="#292C36" d="M61.214 235.602l13.86 2.31a.63.63 0 0 1 .526.622v46.086H60.48v-48.396a.63.63 0 0 1 .734-.622zM22.261 235.602l-13.86 2.31a.63.63 0 0 0-.526.622v46.086h15.12v-48.396a.63.63 0 0 0-.734-.622z"/>
        </g>
        <g fill="#292C36" transform="translate(0 295)">
            <path d="M0 0h549a1 1 0 1 1 0 2H0V0z"/>
            <circle cx="555" cy="1" r="1"/>
        </g>
        <g transform="translate(245 78)">
            <rect width="56" height="56" y="61" fill="#FAFBFD" stroke="#292C36" rx="2"/>
            <rect width="36" height="101" x="10" y="117" fill="#FAFBFD" stroke="#292C36" rx="2"/>
            <rect width="36" height="12" x="10" y="49" fill="#FAFBFD" stroke="#292C36" rx="2"/>
            <path fill="#FAFBFD" stroke="#292C36" d="M18 44h20a4 4 0 0 1 4 4v1H14v-1a4 4 0 0 1 4-4zM28 20a7 7 0 0 1 7 7v17H21V27a7 7 0 0 1 7-7z"/>
            <rect width="20" height="2" x="18" y="30" fill="#292C36" rx="1"/>
            <rect width="20" height="2" x="18" y="9" fill="#292C36" rx="1" transform="rotate(90 28 10)"/>
            <rect width="12" height="9" x="22" y="7" fill="#FAFBFD" stroke="#292C36" rx="1"/>
            <path fill="#292C36" d="M10 140h36v2H10zM10 166h36v2H10z"/>
            <g fill="#292C36" transform="translate(15 171)">
                <rect width="1" height="18" x=".5" rx=".5"/>
                <rect width="1" height="18" x="6.5" rx=".5"/>
                <rect width="1" height="18" x="12.5" rx=".5"/>
                <rect width="1" height="18" x="18.5" rx=".5"/>
                <rect width="1" height="18" x="24.5" rx=".5"/>
            </g>
            <path fill="#292C36" d="M10 192h36v2H10z"/>
            <g fill="#292C36" transform="translate(15 197)">
                <rect width="1" height="18" x=".5" rx=".5"/>
                <rect width="1" height="18" x="6.5" rx=".5"/>
                <rect width="1" height="18" x="12.5" rx=".5"/>
                <rect width="1" height="18" x="18.5" rx=".5"/>
                <rect width="1" height="18" x="24.5" rx=".5"/>
            </g>
            <g fill="#292C36" transform="translate(15 119)">
                <rect width="1" height="18" x=".5" rx=".5"/>
                <rect width="1" height="18" x="6.5" rx=".5"/>
                <rect width="1" height="18" x="12.5" rx=".5"/>
                <rect width="1" height="18" x="18.5" rx=".5"/>
                <rect width="1" height="18" x="24.5" rx=".5"/>
            </g>
            <g fill="#292C36" transform="translate(15 145)">
                <rect width="1" height="18" x=".5" rx=".5"/>
                <rect width="1" height="18" x="6.5" rx=".5"/>
                <rect width="1" height="18" x="12.5" rx=".5"/>
                <rect width="1" height="18" x="18.5" rx=".5"/>
                <rect width="1" height="18" x="24.5" rx=".5"/>
            </g>
            <g fill="#292C36" transform="translate(15 57)">
                <rect width="2" height="4" rx="1"/>
                <rect width="2" height="4" x="6" rx="1"/>
                <rect width="2" height="4" x="12" rx="1"/>
                <rect width="2" height="4" x="18" rx="1"/>
                <rect width="2" height="4" x="24" rx="1"/>
            </g>
            <circle cx="28" cy="89" r="20" stroke="#292C36"/>
            <g fill="#292C36" transform="translate(27 74)">
                <rect width="2" height="16" rx="1"/>
                <rect width="2" height="16" x="7" y="7" rx="1" transform="rotate(90 8 15)"/>
            </g>
        </g>
        <g>
            <path fill="#FAFBFD" stroke="#292C36" d="M1143.1 169.41l64.875-59.706a2.4 2.4 0 0 1 4.025 1.766v184.443h-72V176.474a9.6 9.6 0 0 1 3.1-7.064z"/>
            <g fill="#292C36" transform="translate(1148.348 156.087)">
                <rect width="36.875" height="1" x="18.936" y="9.063" rx=".5"/>
                <rect width="18.936" height="1" x="36.875" rx=".5"/>
                <rect width="55.811" height="1" y="18.127" rx=".5"/>
                <rect width="55.811" height="1" y="27.19" rx=".5"/>
                <rect width="55.811" height="1" y="36.253" rx=".5"/>
                <rect width="55.811" height="1" y="45.317" rx=".5"/>
                <rect width="55.811" height="1" y="54.38" rx=".5"/>
                <rect width="55.811" height="1" y="63.443" rx=".5"/>
                <rect width="55.811" height="1" y="72.507" rx=".5"/>
                <rect width="55.811" height="1" y="81.57" rx=".5"/>
                <rect width="55.811" height="1" y="90.634" rx=".5"/>
                <rect width="55.811" height="1" y="99.697" rx=".5"/>
                <rect width="55.811" height="1" y="108.76" rx=".5"/>
                <rect width="55.811" height="1" y="117.824" rx=".5"/>
                <rect width="55.811" height="1" y="126.887" rx=".5"/>
            </g>
        </g>
        <g transform="matrix(-1 0 0 1 1306 86)">
            <path fill="#FAFBFD" stroke="#292C36" d="M3.698 70.388L90.125 3.021A2.4 2.4 0 0 1 94 4.914V210H0V77.96a9.6 9.6 0 0 1 3.698-7.572z"/>
            <rect width="160" height="1" x="2.094" y="111.094" fill="#292C36" rx=".5" transform="rotate(90 82.094 111.594)"/>
            <rect width="109" height="1" x="1" y="106.594" fill="#292C36" rx=".5" transform="rotate(90 55.5 107.094)"/>
            <rect width="99" height="1" x="-7" y="111.594" fill="#292C36" rx=".5" transform="rotate(90 42.5 112.094)"/>
            <rect width="86" height="1" x="-15.5" y="118.094" fill="#292C36" rx=".5" transform="rotate(90 27.5 118.594)"/>
            <rect width="105" height="1" x="-38.5" y="138.594" fill="#292C36" rx=".5" transform="rotate(90 14 139.094)"/>
            <rect width="117" height="1" x="11.5" y="102.594" fill="#292C36" rx=".5" transform="rotate(90 70 103.094)"/>
            <rect width="48" height="31" x="27" y="170" stroke="#292C36" rx="2"/>
            <rect width="6" height="15" x="47.5" y="187.5" fill="#292C36" rx="1" transform="rotate(90 50.5 195)"/>
            <rect width="6" height="15" x="47.5" y="178.5" fill="#292C36" rx="1" transform="rotate(90 50.5 186)"/>
            <rect width="6" height="15" x="47.5" y="169.5" fill="#292C36" rx="1" transform="rotate(90 50.5 177)"/>
        </g>
        <g stroke="#292C36" transform="translate(939 167)">
            <path fill="#FAFBFD" d="M26 0h68a2 2 0 0 1 2 2v127H24V2a2 2 0 0 1 2-2z"/>
            <path fill="#F3F5F6" d="M2 33h6v96H2a2 2 0 0 1-2-2V35a2 2 0 0 1 2-2zM8 33h8v96H8zM16 33h8v96h-8zM96 33h8v96h-8zM104 33h8v96h-8zM112 33h6a2 2 0 0 1 2 2v94h-8V33z"/>
            <rect width="56" height="8" x="32" y="7" rx="1"/>
            <rect width="56" height="8" x="32" y="23" rx="1"/>
            <rect width="56" height="8" x="32" y="39" rx="1"/>
            <rect width="56" height="8" x="32" y="55" rx="1"/>
            <rect width="56" height="8" x="32" y="71" rx="1"/>
            <rect width="56" height="8" x="32" y="87" rx="1"/>
            <rect width="56" height="18" x="32" y="111" rx="1"/>
            <rect width="8" height="8" x="32" y="99" rx="1"/>
            <rect width="8" height="8" x="80" y="99" rx="1"/>
            <rect width="8" height="8" x="56" y="99" rx="1"/>
            <rect width="8" height="8" x="68" y="99" rx="1"/>
            <rect width="8" height="8" x="44" y="99" rx="1"/>
        </g>
        <g transform="translate(1047 14)">
            <path fill="#FFF" fill-rule="nonzero" stroke="#292C36" d="M28.177 187L21 220l14.2-.519 4.8-31.07zM83 219H69.789L64 188.4l11.823-1.4zM87.197 234.244a274.01 274.01 0 0 0 16.506 44.722l1 2.337a.5.5 0 0 1-.46.697H87.123c0-19.194-15.414-34.754-34.428-34.754-19.013 0-34.427 15.56-34.427 34.754H.844a.5.5 0 0 1-.438-.74l1.256-2.294a295.189 295.189 0 0 0 16.506-44.722c.558-1.807 68.6-1.503 69.029 0z"/>
            <path fill="#FFF" fill-rule="nonzero" d="M46 47h13v8H46zM52.296 28h1.39C56.621 28 59 30.467 59 33.51V38H47v-4.555c.034-3.01 2.392-5.435 5.296-5.445z"/>
            <path fill="#FAFBFD" fill-rule="nonzero" stroke="#292C36" d="M57.11 55H47.65S44.18 115.137 31 180h43A1030.868 1030.868 0 0 1 57.11 55zm-6.705 92.099c.18-.734.845-1.25 1.61-1.25.764 0 1.43.516 1.609 1.25L62.179 180H42.275l8.13-32.901z"/>
            <g fill="#292C36" fill-rule="nonzero">
                <path d="M45.49 246.335l12.817-12.96 1.928 1.95-12.817 12.96z"/>
                <path d="M45.49 235.343l1.928-1.95 12.817 12.96-1.928 1.95zM30.035 246.336l12.817-12.96 1.928 1.95-12.817 12.96z"/>
                <path d="M31.314 236.628l1.928-1.95 11.538 11.667-1.928 1.95zM60.96 246.346l12.817-12.96 1.928 1.95-12.817 12.96z"/>
                <path d="M60.017 235.116l1.976-1.961 13.138 13.038-1.976 1.962z"/>
            </g>
            <path fill="#FFF" fill-rule="nonzero" d="M75.003 189.014c2.693 11.496 4.575 18.637 7.975 29.922.51 1.697-8.162-30.697-7.975-29.922z"/>
            <path fill="#E5E7E9" fill-rule="nonzero" stroke="#292C36" stroke-linejoin="round" stroke-width=".75" d="M51.676 1h5.405c8.108 0 8.108 2.714 13.514 2.714C74.198 3.714 76 2.81 76 1v16.286C75.944 19.096 74.142 20 70.595 20c-5.321 0-5.406-2.714-13.514-2.714h-5.405V1z"/>
            <path fill="#FFF" fill-rule="nonzero" d="M29 235l-3 13 3-13zM40 189l-8 30 8-30zM71 219l-8-30 8 30zM79 248l-4-13 4 13zM59 235l-13 13 13-13zM46 235l13 13-13-13zM43 235l-13 13 13-13zM30 235l13 13-13-13zM74 235l-13 13 13-13zM61 235l13 13-13-13z"/>
            <path fill="#292C36" fill-rule="nonzero" d="M26.616 246h51.592L83 265.344l-6.817-16.738h-47.57L22 266z"/>
            <path fill="#292C36" fill-rule="nonzero" d="M26.368 247.387l3.192-13.034 2.703.616-3.192 13.034zM72.317 235.175l2.57-.786 3.846 12.792-2.57.787z"/>
            <rect width="58" height="13" x="23" y="178" fill="#E5E7E9" stroke="#292C36" rx="1"/>
            <rect width="77" height="18" x="14" y="218" fill="#E5E7E9" stroke="#292C36" rx="1"/>
            <rect width="24" height="11" x="40" y="38" fill="#FAFBFD" stroke="#292C36" rx="1"/>
            <path fill="#292C36" stroke="#292C36" stroke-width=".5" d="M52 0a1 1 0 0 1 1 1v28h-2V1a1 1 0 0 1 1-1z"/>
            <path fill="#FAFBFD" stroke="#292C36" d="M52.5 27a6.5 6.5 0 0 1 6.5 6.5V38H46v-4.5a6.5 6.5 0 0 1 6.5-6.5z"/>
            <path fill="#E5E7E9" stroke="#292C36" d="M43 49h19v9a1 1 0 0 1-1 1H44a1 1 0 0 1-1-1v-9z"/>
        </g>
        <path fill="#292C36" d="M891 295h549v2H891a1 1 0 1 1 0-2z"/>
        <g transform="translate(1283 22)">
            <rect width="97.459" height="10.396" y="263.287" fill="#FAFBFD" stroke="#292C36" rx="1.299"/>
            <path fill="#FAFBFD" stroke="#292C36" d="M8.446 255.49h80.567a1.3 1.3 0 0 1 1.3 1.3v6.497H7.146v-6.497a1.3 1.3 0 0 1 1.3-1.3zM12.345 206.111h25.989v49.379H12.345z"/>
            <path fill="#E5E7E9" stroke="#292C36" d="M8.446 221.704h9.097v33.786H7.147v-32.486a1.3 1.3 0 0 1 1.3-1.3z"/>
            <path fill="#FAFBFD" stroke="#292C36" d="M59.125 206.111h25.989v49.379H59.125z"/>
            <path fill="#E5E7E9" stroke="#292C36" d="M89.013 221.704h-9.096v33.786h10.395v-32.486a1.3 1.3 0 0 0-1.3-1.3z"/>
            <path fill="#FAFBFD" stroke="#292C36" d="M38.334 193.116h20.791v62.374H38.334z"/>
            <path fill="#E5E7E9" stroke="#292C36" d="M31.837 57.973h33.786a1.3 1.3 0 0 1 1.299 1.3v133.843H30.537V59.272a1.3 1.3 0 0 1 1.3-1.3z"/>
            <path fill="#FAFBFD" stroke="#292C36" d="M21.441 86.56h16.893v119.55H20.142V87.86a1.3 1.3 0 0 1 1.299-1.3zM59.125 86.56h16.893a1.3 1.3 0 0 1 1.3 1.3v118.25H59.125V86.56z"/>
            <path fill="#FAFBFD" stroke="#292C36" d="M26.314 65.77h13.644c.539 0 .975.436.975.974v18.842a.975.975 0 0 1-.975.975H25.34V66.744c0-.538.437-.974.975-.974zM57.826 65.77H70.82a1.3 1.3 0 0 1 1.3 1.299v19.492H57.826a1.3 1.3 0 0 1-1.3-1.3V67.07a1.3 1.3 0 0 1 1.3-1.3zM34.436 42.38h28.588a1.3 1.3 0 0 1 1.3 1.299v14.294H33.135V43.679a1.3 1.3 0 0 1 1.3-1.3z"/>
            <path fill="#292C36" d="M49 0a1 1 0 0 1 1 1v19.791h-2V1a1 1 0 0 1 1-1z"/>
            <path fill="#FAFBFD" stroke="#292C36" d="M44.718 13.791h8.023a1.3 1.3 0 0 1 1.294 1.182l2.491 27.406H40.933l2.491-27.406a1.3 1.3 0 0 1 1.294-1.182z"/>
            <path fill="#E5E7E9" stroke="#292C36" d="M70.82 187.918h12.995a1.3 1.3 0 0 1 1.3 1.3v16.893H69.52v-16.893a1.3 1.3 0 0 1 1.3-1.3zM13.644 187.918H26.64a1.3 1.3 0 0 1 1.3 1.3v15.593a1.3 1.3 0 0 1-1.3 1.3H12.345v-16.893a1.3 1.3 0 0 1 1.3-1.3z"/>
        </g>
        <g transform="translate(1373 41)">
            <mask id="b" fill="#fff">
                <use xlink:href="#a"/>
            </mask>
            <path fill="#FAFBFD" stroke="#292C36" d="M5 41h11v214H3V43a2 2 0 0 1 2-2z" mask="url(#b)"/>
            <path fill="#E5E7E9" stroke="#292C36" d="M35 41h40v214H35z" mask="url(#b)"/>
            <path fill="#FAFBFD" stroke="#292C36" d="M44 21h23a2 2 0 0 1 2 2v232H42V23a2 2 0 0 1 2-2zM18 30h15a2 2 0 0 1 2 2v223H16V32a2 2 0 0 1 2-2z" mask="url(#b)"/>
            <path stroke="#292C36" d="M42 41h27v16H42zM42 57h27v16H42zM42 73h27v16H42zM42 89h27v16H42zM42 105h27v16H42zM42 121h27v16H42zM42 137h27v16H42zM42 153h27v16H42zM42 169h27v16H42zM42 185h27v16H42zM42 201h27v16H42zM42 217h27v16H42zM42 233h27v16H42z" mask="url(#b)"/>
        </g>
        <g fill="#292C36">
            <path d="M138.003 152.963l-10.34-1.824a.5.5 0 1 0-.174.985l10.34 1.823.174-.984zM138.003 149.963l-10.34-1.824a.5.5 0 1 0-.174.985l10.34 1.823.174-.984zM138.003 146.963l-10.34-1.824a.5.5 0 1 0-.174.985l10.34 1.823.174-.984z"/>
        </g>
        <g fill="#292C36">
            <path d="M89.997 207.963l10.34-1.824a.5.5 0 1 1 .174.985l-10.34 1.823-.174-.984zM89.997 204.963l10.34-1.824a.5.5 0 1 1 .174.985l-10.34 1.823-.174-.984zM89.997 201.963l10.34-1.824a.5.5 0 1 1 .174.985l-10.34 1.823-.174-.984z"/>
        </g>
        <g fill="#292C36">
            <path d="M143.003 207.963l-10.34-1.824a.5.5 0 1 0-.174.985l10.34 1.823.174-.984zM143.003 204.963l-10.34-1.824a.5.5 0 1 0-.174.985l10.34 1.823.174-.984zM143.003 201.963l-10.34-1.824a.5.5 0 1 0-.174.985l10.34 1.823.174-.984z"/>
        </g>
        <g fill="#292C36">
            <path d="M81.997 253.963l10.34-1.824a.5.5 0 1 1 .174.985l-10.34 1.823-.174-.984zM81.997 250.963l10.34-1.824a.5.5 0 1 1 .174.985l-10.34 1.823-.174-.984zM81.997 247.963l10.34-1.824a.5.5 0 1 1 .174.985l-10.34 1.823-.174-.984z"/>
        </g>
        <g fill="#292C36">
            <path d="M151.003 253.963l-10.34-1.824a.5.5 0 1 0-.174.985l10.34 1.823.174-.984zM151.003 250.963l-10.34-1.824a.5.5 0 1 0-.174.985l10.34 1.823.174-.984zM151.003 247.963l-10.34-1.824a.5.5 0 1 0-.174.985l10.34 1.823.174-.984z"/>
        </g>
    </g>
</svg>
