<svg xmlns="http://www.w3.org/2000/svg" width="192" height="192" viewBox="0 0 192 192">
    <g fill="none" fill-rule="evenodd">
        <path d="M0 0h192v192H0z" opacity=".397"/>
        <g fill-rule="nonzero">
            <path fill="#F3F5F6" d="M132.951 87.632a4.058 4.058 0 0 0-3.16-2.227 289.47 289.47 0 0 0-11.618-1.127v-8.332a3.272 3.272 0 0 0-3.268-3.243h-3.42c-1.802 0-3.402 1.441-3.402 3.243v7.719c-8.649-.393-17.297-.36-26.306.043v-7.762a3.135 3.135 0 0 0-3.107-3.243h-3.42a3.214 3.214 0 0 0-3.203 3.243v8.4c-3.604.292-7.186.638-10.81 1.06a4.094 4.094 0 0 0-3.183 2.226c-7.794 15.73-16.032 32.228-19.452 44.84-.101.36 1.546 13.287 2.544 18.584a4.05 4.05 0 0 0 3.312 3.243c2.99.508 5.957.955 8.908 1.373a292.944 292.944 0 0 0 84.324 0c3.006-.425 6.025-.88 9.07-1.398a4.058 4.058 0 0 0 3.312-3.243 160.98 160.98 0 0 0 2.36-18.018c-4.169-14.458-7.592-21.442-19.48-45.38z"/>
            <path fill="#E5E7E9" d="M38.423 132.422c-.101.36 1.546 13.286 2.544 18.583a4.05 4.05 0 0 0 3.311 3.244c2.991.508 5.957.955 8.909 1.373a292.944 292.944 0 0 0 84.324 0c3.005-.426 6.025-.88 9.07-1.399a4.058 4.058 0 0 0 3.312-3.243 160.98 160.98 0 0 0 2.36-18.018c-22.21 2.751-41.177 4.09-56.898 4.015-15.72-.075-34.698-1.593-56.932-4.555z"/>
            <path stroke="#292C36" stroke-width=".721" d="M132.772 87.582a4.058 4.058 0 0 0-3.16-2.227 289.47 289.47 0 0 0-11.618-1.128v-8.331a3.272 3.272 0 0 0-3.269-3.244h-3.42c-1.801 0-3.401 1.442-3.401 3.244v7.718c-8.649-.392-17.298-.36-26.307.044v-7.762a3.135 3.135 0 0 0-3.106-3.244h-3.42a3.214 3.214 0 0 0-3.203 3.244v8.4c-3.604.291-7.186.637-10.811 1.059a4.094 4.094 0 0 0-3.182 2.227c-7.795 15.73-16.033 32.227-19.452 44.84-.101.36 1.546 13.286 2.544 18.583a4.05 4.05 0 0 0 3.311 3.244c2.991.508 5.957.955 8.909 1.373a292.944 292.944 0 0 0 84.324 0c3.005-.426 6.025-.88 9.07-1.399a4.058 4.058 0 0 0 3.312-3.243 160.98 160.98 0 0 0 2.36-18.018c-4.17-14.457-7.593-21.441-19.48-45.38z"/>
            <g>
                <path fill="#292C36" stroke="#292C36" stroke-width=".721" d="M114.725 72.652a3.272 3.272 0 0 1 3.269 3.244v8.331c1.213.093 2.406.192 3.59.298-8.023-.57-14.694-.944-20.013-1.121 2.114.044 4.223.115 6.333.21v-7.718c0-1.802 1.6-3.244 3.401-3.244zm-36.234 0a3.135 3.135 0 0 1 3.106 3.244v7.762c1.46-.066 2.91-.121 4.353-.167-4.354.179-9.267.47-14.739.873l-.004-.013.66-.055v-8.4a3.214 3.214 0 0 1 3.204-3.244z"/>
                <path fill="#A1A5A9" d="M148.783 147.456c-2.856.467-5.854.934-9.436 1.422a321.382 321.382 0 0 1-43.837 3.092 321.292 321.292 0 0 1-43.801-3.089c-3.434-.466-6.464-.958-9.267-1.414a2.79 2.79 0 0 1-.516-.14c.206 1.316.404 2.51.585 3.464a2.63 2.63 0 0 0 2.135 2.101c2.684.456 5.587.948 8.88 1.414a295.417 295.417 0 0 0 41.98 3.089 295.525 295.525 0 0 0 42.02-3.092c3.434-.489 6.305-.955 9.039-1.422a2.644 2.644 0 0 0 2.14-2.115c.223-1.18.425-2.337.609-3.461-.171.068-.35.12-.53.151z"/>
                <path fill="#70D5FF" stroke="#797F84" stroke-width=".5" d="M95.503 89.867c-14.415 0-26.058 9.668-26.058 21.6 0 11.931 11.661 21.621 26.058 21.621 14.396 0 26.061-9.675 26.061-21.621 0-11.946-11.665-21.6-26.061-21.6z"/>
                <path stroke="#FAFBFD" stroke-dasharray="4.324324324324325,7.207207207207206" stroke-linecap="round" stroke-width="1.081" d="M94.746 93.903c-12.159 0-21.98 8.141-21.98 18.189 0 10.047 9.837 18.207 21.98 18.207 12.144 0 21.984-8.148 21.984-18.207 0-10.06-9.84-18.19-21.984-18.19z"/>
                <path fill="#1285D8" stroke="#FAFBFD" stroke-width=".721" d="M95.503 97.715c-9.164 0-16.577 6.159-16.577 13.752 0 7.593 7.427 13.758 16.577 13.758 9.15 0 16.576-6.155 16.576-13.758 0-7.604-7.409-13.752-16.576-13.752z"/>
                <path fill="#FAFBFD" d="M95.355 104.004c-4.781 0-8.649 3.227-8.649 7.205s3.875 7.21 8.65 7.21c4.773 0 8.648-3.226 8.648-7.21s-3.866-7.205-8.649-7.205z"/>
                <path fill="#E5E7E9" d="M95.355 106.887c-2.789 0-5.045 1.936-5.045 4.323 0 2.387 2.26 4.325 5.045 4.325s5.045-1.935 5.045-4.325-2.255-4.323-5.045-4.323z"/>
                <path fill="#F3F5F6" stroke="#292C36" stroke-width=".721" d="M175.449 70.213c-.54-2.09-2.3-4.112-4.707-5.406a158.717 158.717 0 0 0-149.884 0c-2.407 1.287-4.166 3.308-4.707 5.406a3.456 3.456 0 0 0 .318 2.75l10.598 16.702c.922 1.409 2.562 2.213 4.508 2.213a7.182 7.182 0 0 0 3.337-.84 129.294 129.294 0 0 1 18.951-8.288c2.984-1.035 4.786-3.94 4.12-6.573l-1.374-5.164a6.807 6.807 0 0 1 4.977-8.34 146.263 146.263 0 0 1 68.425 0 6.8 6.8 0 0 1 4.984 8.35l-1.016 3.791-.36 1.334c-.675 2.677 1.13 5.582 4.104 6.612a128.98 128.98 0 0 1 18.955 8.289 7.15 7.15 0 0 0 3.34.847c1.946 0 3.604-.808 4.48-2.163 0 0 .18-.292 10.652-16.792.587-.909.486-1.979.299-2.728z"/>
                <path fill="#DADADA" d="M56.584 76.54c.483 1.9-.951 4.08-3.19 4.858a130.512 130.512 0 0 0-19.156 8.364 5.697 5.697 0 0 1-2.66.67c-1.44 0-2.655-.565-3.293-1.538L27.02 86.9a4.75 4.75 0 0 0 1.676.288 5.697 5.697 0 0 0 2.66-.67c6.125-3.283 14.374-6.461 20.958-8.724 1.755-.613 3.243-2.31 3.56-3.928l.71 2.674zM134.93 76.667c-.483 1.899.883 3.964 3.12 4.731a130.512 130.512 0 0 1 19.157 8.364 5.697 5.697 0 0 0 2.66.67c2.753 0 3.39-1.243 4.703-3.517a5.607 5.607 0 0 1-1.82.274 5.697 5.697 0 0 1-2.66-.67c-6.126-3.283-14.375-6.461-20.958-8.724-1.755-.613-3.132-2.163-3.453-3.766l-.75 2.638z"/>
                <path fill="#292C36" d="M116.033 117.225a2.029 2.029 0 0 0-2.858 2.854c.061.101 4.48 6.184 4.63 6.335a3.23 3.23 0 1 0 4.577-4.558c-.17-.151-6.249-4.57-6.35-4.63z"/>
                <path fill="#1EA4FF" d="M109.049 146.887H82.022a1.441 1.441 0 0 1 0-2.883h27.027a1.441 1.441 0 0 1 0 2.883z"/>
            </g>
        </g>
    </g>
</svg>
