<svg xmlns="http://www.w3.org/2000/svg" width="192" height="192" viewBox="0 0 192 192">
    <g fill="none" fill-rule="evenodd">
        <path d="M0 0h192v192H0z" opacity=".397"/>
        <g transform="translate(32 36)">
            <rect width="104.76" height="51.84" x="17.419" y="24.92" fill="#E2E2E2" stroke="#292C36" stroke-width="1.296" rx="6.48" transform="rotate(34 69.8 50.84)"/>
            <g opacity=".5" transform="rotate(33 5.253 75.142)">
                <rect width="38.88" height="2.16" x="51.221" y=".01" fill="#292C36" rx="1.08"/>
                <rect width="38.88" height="2.16" x="51.762" y="4.81" fill="#292C36" rx="1.08"/>
                <rect width="38.88" height="2.16" x="51.986" y="11.103" fill="#292C36" rx="1.08"/>
                <rect width="38.88" height="1.08" x="51.187" y="28.259" fill="#292C36" rx=".54"/>
                <rect width="38.88" height="8.64" x="51.892" y="15.651" fill="#DADADA" rx="1.08"/>
                <path fill="#A1A5A9" d="M28.037 1.53l.002.002a3.99 3.99 0 0 1 0 5.641l-3.328 3.328 3.445 10.607a2.99 2.99 0 0 1-5.686 1.85l-2.503-7.709-7.762 7.767 1.4 1.401a2.993 2.993 0 0 1 0 4.231 2.988 2.988 0 0 1-4.228 0L.922 20.187a2.993 2.993 0 0 1 0-4.231 2.988 2.988 0 0 1 4.228 0l1.418 1.42 7.761-7.767-7.696-2.502a2.993 2.993 0 0 1-1.921-3.77 2.99 2.99 0 0 1 3.768-1.92L19.074 4.86l3.328-3.329a3.984 3.984 0 0 1 5.635-.002z"/>
            </g>
            <path fill="#A1A5A9" fill-opacity=".58" d="M36.83 14.587l84.482 40.57a6.48 6.48 0 0 1 3.155 8.385l-14.54 34.074a6.48 6.48 0 0 1-8.7 3.33L12.778 59.7a6.48 6.48 0 0 1-2.929-9.014l18.51-33.399a6.48 6.48 0 0 1 8.472-2.7z"/>
            <rect width="111.24" height="51.84" x="10.063" y="34.098" fill="#E5E7E9" stroke="#292C36" stroke-width="1.296" rx="6.48" transform="rotate(25 65.683 60.018)"/>
            <g opacity=".5" transform="rotate(23 -39.494 81.332)">
                <rect width="42.12" height="2.16" x="55.802" y=".765" fill="#292C36" rx="1.08"/>
                <rect width="42.12" height="2.16" x="55.923" y="6.58" fill="#292C36" rx="1.08"/>
                <rect width="42.12" height="2.16" x="56.045" y="12.395" fill="#292C36" rx="1.08"/>
                <rect width="42.12" height="1.08" x="55.627" y="31.298" fill="#292C36" rx=".54"/>
                <rect width="42.12" height="8.64" x="56.438" y="18.374" fill="#DADADA" rx="1.08"/>
                <path fill="#A1A5A9" d="M30.453 2.19l.001.002a4.248 4.248 0 0 1 0 6.007l-3.544 3.545 3.668 11.293a3.185 3.185 0 0 1-6.056 1.97v-.001L21.856 16.8l-8.267 8.27 1.49 1.491a3.186 3.186 0 0 1 0 4.505 3.184 3.184 0 0 1-4.354.14l-.147-.139h-.001l-9.006-9.01a3.186 3.186 0 0 1 0-4.506 3.183 3.183 0 0 1 4.503 0l1.511 1.513 8.267-8.271-8.2-2.666a3.186 3.186 0 0 1 1.968-6.06v.001l11.286 3.669 3.544-3.545a4.245 4.245 0 0 1 6.003-.002z"/>
            </g>
            <path fill="#A1A5A9" fill-opacity=".48" d="M18.5 40.499l100.85 16.889a6.48 6.48 0 0 1 5.383 6.98l-3.552 38.883a6.48 6.48 0 0 1-7.467 5.811L7.867 92.298a6.48 6.48 0 0 1-5.316-7.788l8.55-39.007a6.48 6.48 0 0 1 7.4-5.004z"/>
            <rect width="120.96" height="51.84" x="3.31" y="51.323" fill="#F3F5F6" stroke="#292C36" stroke-width="1.296" rx="6.48" transform="rotate(9 63.79 77.243)"/>
            <g opacity=".75" transform="rotate(9 -312.58 122.485)">
                <rect width="45.36" height="2.16" x="58.256" y=".9" fill="#292C36" rx="1.08"/>
                <rect width="45.36" height="2.16" x="58.203" y="7.469" fill="#292C36" rx="1.08"/>
                <rect width="45.36" height="2.16" x="58.15" y="14.038" fill="#292C36" rx="1.08"/>
                <rect width="45.36" height="1.08" x="58.973" y="33.584" fill="#292C36" rx=".54"/>
                <rect width="45.36" height="9.72" x="58.519" y="19.494" fill="#DADADA" rx="1.08"/>
                <path fill="#A1A5A9" d="M32.547 2.483v.004l.365.365a4.33 4.33 0 0 1 0 6.112l-4.003 4.004 4.014 12.361a3.244 3.244 0 0 1-2.08 4.084l-.367.119a3.238 3.238 0 0 1-4.083-2.078l.001-.002-2.933-9.033-8.91 8.918 1.743 1.745a3.247 3.247 0 0 1 0 4.584l-.274.273a3.237 3.237 0 0 1-4.58 0l-9.982-9.988a3.247 3.247 0 0 1 0-4.584l.274-.274a3.237 3.237 0 0 1 4.58 0l1.766 1.768 8.912-8.918L7.967 9.01a3.244 3.244 0 0 1-2.081-4.084l.12-.37a3.238 3.238 0 0 1 4.082-2.08l12.35 4.015 4.002-4.004a4.315 4.315 0 0 1 6.107-.004z"/>
            </g>
            <path fill="#A1A5A9" fill-opacity=".421" d="M9.355 68.128l108.866.484a6.48 6.48 0 0 1 6.45 6.548l-.404 38.369a6.48 6.48 0 0 1-6.48 6.412H6.898a6.48 6.48 0 0 1-6.467-6.884L2.86 74.204a6.48 6.48 0 0 1 6.496-6.076z"/>
            <rect width="124.2" height="51.84" y="71.341" fill="#FFF" stroke="#292C36" stroke-width="1.296" rx="6.48"/>
            <g transform="translate(8.72 80.06)">
                <rect width="46.44" height="2.16" x="59.32" y="1" fill="#292C36" rx="1.08"/>
                <rect width="46.44" height="2.16" x="59.32" y="7.48" fill="#292C36" rx="1.08"/>
                <rect width="46.44" height="2.16" x="59.32" y="13.96" fill="#292C36" rx="1.08"/>
                <rect width="46.44" height="1.08" x="59.32" y="34.48" fill="#292C36" rx=".54"/>
                <rect width="46.44" height="9.72" x="59.32" y="20.44" fill="#A1A5A9" rx="1.08"/>
                <path fill="#1EA4FF" d="M33.89 2.093v.005l.573.574a4.33 4.33 0 0 1 0 6.111l-4.23 4.232 4.176 12.86a3.244 3.244 0 0 1-2.081 4.083l-.577.187a3.238 3.238 0 0 1-4.02-1.905l-.062-.173v-.002l-3.06-9.422-9.198 9.205 1.873 1.875a3.247 3.247 0 0 1 0 4.583l-.43.43a3.237 3.237 0 0 1-4.58 0L1.823 24.279a3.247 3.247 0 0 1 0-4.584l.43-.43a3.237 3.237 0 0 1 4.58 0l1.898 1.898 9.198-9.205-9.413-3.06a3.244 3.244 0 0 1-2.081-4.084l.188-.58a3.238 3.238 0 0 1 4.082-2.08l12.848 4.176 4.23-4.231a4.315 4.315 0 0 1 6.107-.005z"/>
            </g>
        </g>
    </g>
</svg>
