<svg xmlns="http://www.w3.org/2000/svg" width="346" height="289" viewBox="0 0 346 289">
    <g fill="none" fill-rule="evenodd" transform="translate(0 1)">
        <ellipse cx="173.5" cy="241.5" fill="#292C36" fill-opacity=".054" rx="147.5" ry="46.5"/>
        <path fill="#0088E4" fill-opacity=".203" stroke="#292C36" stroke-width=".5" d="M29.724 67h286.552c.291 0 .545.198.615.481l3.913 15.732a.634.634 0 0 1-.615.787H25.81a.634.634 0 0 1-.615-.787l3.913-15.732a.634.634 0 0 1 .615-.481z"/>
        <path fill="#FAFBFD" stroke="#292C36" stroke-width=".5" d="M83.667 50.227L79.514 239.8a.634.634 0 0 0 .634.648h19.538a.634.634 0 0 0 .634-.648L96.167 50.227h-12.5z"/>
        <path fill="#292C36" stroke="#292C36" stroke-width=".5" d="M80.977 173.035L79.514 239.8a.634.634 0 0 0 .634.648h19.538a.634.634 0 0 0 .634-.648l-1.465-66.863-17.878.098z"/>
        <path fill="#FAFBFD" stroke="#292C36" stroke-width=".5" d="M79.5 46h20.834v3.593c0 .35-.284.634-.634.634H80.134a.634.634 0 0 1-.634-.634V46z"/>
        <path fill="#292C36" d="M67 62.908h4.167v4.227H67z"/>
        <path stroke="#292C36" stroke-width=".5" d="M68.033 62.662l3.052.01 12.128-4.17.09-3.634-15.27 7.794z"/>
        <path fill="#292C36" d="M112.834 62.908h-4.167v4.227h4.167z"/>
        <path stroke="#292C36" stroke-width=".5" d="M111.801 62.662l-3.052.01-12.128-4.17-.09-3.634 15.27 7.794z"/>
        <g stroke="#292C36" stroke-width=".5">
            <path fill="#FAFBFD" d="M249.667 50.227L245.514 239.8a.634.634 0 0 0 .634.648h19.538a.634.634 0 0 0 .634-.648l-4.153-189.573h-12.5z"/>
            <path fill="#292C36" d="M246.977 173.035l-1.463 66.765a.634.634 0 0 0 .634.648h19.538a.634.634 0 0 0 .634-.648l-1.465-66.863-17.878.098z"/>
            <path fill="#FAFBFD" d="M245.5 46h20.834v3.593c0 .35-.284.634-.634.634h-19.566a.634.634 0 0 1-.634-.634V46z"/>
            <path fill="#292C36" d="M233.25 63.158h3.667v3.727h-3.667z"/>
            <path d="M234.033 62.662l3.052.01 12.128-4.17.09-3.634-15.27 7.794z"/>
            <path fill="#292C36" d="M278.584 63.158h-3.667v3.727h3.667z"/>
            <path d="M277.801 62.662l-3.052.01-12.128-4.17-.09-3.634 15.27 7.794z"/>
        </g>
        <path fill="#0088E4" fill-opacity=".297" stroke="#292C36" stroke-width=".5" d="M25 29c64.427 5.667 113.408 8.5 146.943 8.5 33.535 0 83.22-2.833 149.057-8.5l-3.75 15.076A2.536 2.536 0 0 1 314.789 46H31.21a2.536 2.536 0 0 1-2.461-1.924L25 29z"/>
        <path fill="#F3F5F6" stroke="#292C36" stroke-width=".5" d="M16.828 10.01C85.252 14.774 122.366 17.155 173 17.155S260.825 14.769 329.324 10l15.868 18.709a.634.634 0 0 1-.438 1.043C268.604 35.25 211.353 38 173 38c-38.352 0-95.6-2.75-171.747-8.248a.634.634 0 0 1-.436-1.045l16.01-18.696z"/>
        <path fill="#A1A5A9" fill-opacity=".281" stroke="#292C36" stroke-width=".5" d="M173.393 8.36c58.728 0 113.84-2.682 165.337-8.047a.634.634 0 0 1 .608.96l-5.089 8.395c-53.922 4.906-107.541 8.255-160.856 8.33-53.205.077-106.712-3.25-160.522-8.266l-5.21-8.638a.634.634 0 0 1 .61-.958C59.624 5.62 114.665 8.36 173.392 8.36z"/>
        <rect width="25" height="34" x="161" y="42" fill="#FAFBFD" stroke="#292C36" stroke-width=".5" rx=".634"/>
        <rect width="17" height="25" x="165" y="46" fill="#797F84" fill-opacity=".266" rx=".317"/>
        <g fill="#292C36" fill-opacity=".108" transform="translate(30 16)">
            <path d="M41.955 2.803l.64.527a.634.634 0 0 1 .08.901l-7.667 8.971a.634.634 0 0 1-.885.078l-.64-.528a.634.634 0 0 1-.079-.9L41.07 2.88a.634.634 0 0 1 .885-.077zM52.14 3.584l.677.484a.634.634 0 0 1 .141.893l-7.009 9.473a.634.634 0 0 1-.878.139l-.677-.483a.634.634 0 0 1-.141-.893l7.009-9.474a.634.634 0 0 1 .878-.139zM62.307 4.393l.711.437a.634.634 0 0 1 .204.88l-6.319 9.93a.634.634 0 0 1-.866.2l-.711-.437a.634.634 0 0 1-.204-.88l6.319-9.93a.634.634 0 0 1 .866-.2zM31.752 2.046l.6.57a.634.634 0 0 1 .016.904l-8.286 8.425a.634.634 0 0 1-.889.016l-.6-.57a.634.634 0 0 1-.015-.904l8.286-8.425a.634.634 0 0 1 .888-.016zM21.528 1.315l.557.607a.634.634 0 0 1-.048.904l-8.865 7.838a.634.634 0 0 1-.887-.047l-.557-.607a.634.634 0 0 1 .047-.904l8.865-7.838a.634.634 0 0 1 .888.047zM72.46 4.192l.741.388a.634.634 0 0 1 .264.864L67.868 15.78a.634.634 0 0 1-.85.26l-.742-.387a.634.634 0 0 1-.264-.864l5.596-10.336a.634.634 0 0 1 .851-.26zM11.281.606l.512.643a.634.634 0 0 1-.11.897L2.28 9.36a.634.634 0 0 1-.883-.108l-.51-.643a.634.634 0 0 1 .11-.898L10.398.498a.634.634 0 0 1 .882.108zM112.96 4.205l.825.172a.634.634 0 0 1 .49.755l-2.477 11.447a.634.634 0 0 1-.75.486l-.825-.172a.634.634 0 0 1-.49-.755l2.477-11.447a.634.634 0 0 1 .75-.486zM123.068 4.674l.837.115a.634.634 0 0 1 .54.718l-1.658 11.588a.634.634 0 0 1-.714.539l-.837-.116a.634.634 0 0 1-.54-.718l1.658-11.588a.634.634 0 0 1 .714-.538zM133.174 4.656l.843.058a.634.634 0 0 1 .59.677l-.832 11.673a.634.634 0 0 1-.676.588l-.843-.058a.634.634 0 0 1-.589-.678l.832-11.673a.634.634 0 0 1 .675-.587zM102.847 4.286l.81.228a.634.634 0 0 1 .437.788l-3.285 11.25a.634.634 0 0 1-.78.432l-.811-.228a.634.634 0 0 1-.437-.788l3.285-11.25a.634.634 0 0 1 .78-.432zM92.727 4.397l.792.283a.634.634 0 0 1 .38.818l-4.076 10.998a.634.634 0 0 1-.808.377l-.791-.283a.634.634 0 0 1-.381-.818l4.076-10.998a.634.634 0 0 1 .808-.377z"/>
            <rect width="2.113" height="12.97" x="142.647" y="4.669" rx=".634"/>
            <path d="M82.599 4.02l.768.337a.634.634 0 0 1 .324.842l-4.849 10.694a.634.634 0 0 1-.831.319l-.769-.336a.634.634 0 0 1-.323-.843L81.767 4.34a.634.634 0 0 1 .832-.32zM173.621 4.377l.826-.172a.634.634 0 0 1 .75.486l2.477 11.447a.634.634 0 0 1-.49.755l-.826.172a.634.634 0 0 1-.75-.486l-2.477-11.447a.634.634 0 0 1 .49-.755zM183.75 4.514l.81-.228a.634.634 0 0 1 .78.432l3.286 11.25a.634.634 0 0 1-.437.788l-.81.228a.634.634 0 0 1-.781-.432l-3.286-11.25a.634.634 0 0 1 .437-.788zM193.888 4.68l.792-.283a.634.634 0 0 1 .807.377l4.077 10.998a.634.634 0 0 1-.381.818l-.792.283a.634.634 0 0 1-.808-.377l-4.076-10.998a.634.634 0 0 1 .38-.818zM163.502 4.79l.836-.116a.634.634 0 0 1 .715.538L166.71 16.8a.634.634 0 0 1-.54.718l-.837.116a.634.634 0 0 1-.714-.539L162.96 5.507a.634.634 0 0 1 .541-.718zM153.39 4.714l.842-.058a.634.634 0 0 1 .676.587l.831 11.673a.634.634 0 0 1-.589.678l-.843.058a.634.634 0 0 1-.676-.588l-.83-11.673a.634.634 0 0 1 .588-.677zM204.04 4.357l.768-.336a.634.634 0 0 1 .831.319l4.849 10.693a.634.634 0 0 1-.324.843l-.768.336a.634.634 0 0 1-.832-.32L203.716 5.2a.634.634 0 0 1 .323-.842z"/>
            <rect width="2.113" height="12.97" x="142.647" y="4.669" rx=".634"/>
            <path d="M244.811 3.33l.64-.527a.634.634 0 0 1 .886.077l7.666 8.971a.634.634 0 0 1-.08.901l-.64.528a.634.634 0 0 1-.885-.078l-7.665-8.97a.634.634 0 0 1 .078-.902zM255.055 2.615l.6-.569a.634.634 0 0 1 .888.016l8.286 8.425a.634.634 0 0 1-.016.905l-.6.569a.634.634 0 0 1-.888-.016l-8.286-8.425a.634.634 0 0 1 .016-.905zM265.322 1.922l.557-.607a.634.634 0 0 1 .887-.047l8.865 7.838a.634.634 0 0 1 .048.904l-.557.607a.634.634 0 0 1-.887.047l-8.866-7.838a.634.634 0 0 1-.047-.904zM234.59 4.068l.677-.484a.634.634 0 0 1 .878.14l7.009 9.473a.634.634 0 0 1-.141.893l-.678.483a.634.634 0 0 1-.878-.14l-7.009-9.472a.634.634 0 0 1 .142-.893zM224.388 4.83l.712-.437a.634.634 0 0 1 .866.2l6.318 9.93a.634.634 0 0 1-.203.88l-.711.436a.634.634 0 0 1-.867-.2l-6.318-9.929a.634.634 0 0 1 .203-.88zM275.614 1.249l.511-.643a.634.634 0 0 1 .883-.108l9.401 7.212a.634.634 0 0 1 .11.898l-.51.643a.634.634 0 0 1-.883.108l-9.402-7.213a.634.634 0 0 1-.11-.897zM214.206 4.58l.741-.388a.634.634 0 0 1 .851.26l5.597 10.337a.634.634 0 0 1-.264.864l-.742.387a.634.634 0 0 1-.85-.26L213.94 5.444a.634.634 0 0 1 .265-.864z"/>
        </g>
    </g>
</svg>
