<?xml version="1.0" encoding="UTF-8"?>
<svg width="104px" height="104px" viewBox="0 0 104 104" version="1.1" xmlns="http://www.w3.org/2000/svg" xmlns:xlink="http://www.w3.org/1999/xlink">
    <!-- Generator: sketchtool 61.2 (101010) - https://sketch.com -->
    <title>8C2EB5A7-4BEF-4CD0-9EC0-38B60ED115EC</title>
    <desc>Created with sketchtool.</desc>
    <g id="Style-Guide" stroke="none" stroke-width="1" fill="none" fill-rule="evenodd">
        <g id="Style-Guide-/-Onboarding-/-Illustrations" transform="translate(-992.000000, -1152.000000)">
            <g id="Illustration-/-Onboarding-/-Budget-/-Not-Sure-/-Active" transform="translate(992.000000, 1152.000000)">
                <rect id="Rectangle" opacity="0.201753162" x="0" y="0" width="104" height="104"></rect>
                <g id="Group-3" transform="translate(12.000000, 15.000000)">
                    <rect id="Rectangle" stroke="#797F84" stroke-width="0.5" fill="#F3F5F6" transform="translate(53.000000, 53.000000) rotate(-45.000000) translate(-53.000000, -53.000000) " x="49" y="47" width="8" height="12"></rect>
                    <circle id="Oval" stroke="#797F84" stroke-width="0.5" fill="#1EA4FF" cx="30.5" cy="30.5" r="30.5"></circle>
                    <circle id="Oval" stroke="#F3F5F6" stroke-width="2" fill="#E8F8FF" cx="30.5" cy="30.5" r="26.5"></circle>
                    <path d="M48.5321927,12.4668746 C58.4892691,22.4244861 58.4892691,38.5746246 48.5321927,48.532236 C38.5757091,58.4892547 22.424291,58.4892547 12.4678075,48.532236 C2.51073085,38.5746246 2.51073085,22.4244861 12.4678075,12.4668746 C22.424291,2.51104179 38.5745232,2.51104179 48.5321927,12.4668746 Z M45.0712592,32.9412275 L45.0712592,28.0721134 C45.0712592,20.0213541 38.5502131,13.500346 30.4994072,13.500346 C22.4486011,13.500346 15.9275551,20.0213541 15.9275551,28.0721134 L15.9275551,32.9412275 C15.9275551,38.8189104 19.4127986,43.8943632 24.4278021,46.1895825 C26.2735937,47.0398395 28.3257251,47.512995 30.4994072,47.512995 C32.6730891,47.512995 34.7252204,47.0398395 36.5710122,46.1895825 C41.5860156,43.8931773 45.0712592,38.8189104 45.0712592,32.9412275 Z" id="Shape" fill="#A7E5FF" fill-rule="nonzero"></path>
                    <path d="M48.5132712,12.4654967 C42.9024228,6.86998469 35.3299471,4.41939124 28,5.11549505 C33.7095242,5.65565721 39.2716291,8.10625082 43.6436802,12.4666825 C53.6259852,22.4244051 53.6259852,38.5747233 43.6436802,48.5324459 C39.2716291,52.8928776 33.710713,55.3422853 28,55.8848193 C35.3299471,56.5797372 42.9024228,54.1303295 48.5132712,48.5324459 C58.4955763,38.5735375 58.4955763,22.4244051 48.5132712,12.4654967 Z" id="Path" fill="#70D5FF" fill-rule="nonzero"></path>
                    <path d="M62,52 L70,52 C71.1045695,52 72,52.8954305 72,54 L72,74 C72,77.3137085 69.3137085,80 66,80 C62.6862915,80 60,77.3137085 60,74 L60,54 C60,52.8954305 60.8954305,52 62,52 Z" id="Rectangle" fill="#0076CB" transform="translate(66.000000, 66.000000) rotate(-45.000000) translate(-66.000000, -66.000000) "></path>
                </g>
            </g>
        </g>
    </g>
</svg>