<svg xmlns="http://www.w3.org/2000/svg" width="104" height="104" viewBox="0 0 104 104">
    <g fill="none" fill-rule="evenodd">
        <path d="M0 0h104v104H0z" opacity=".202"/>
        <g fill-rule="nonzero">
            <path fill="#A7E5FF" d="M35.4 80.9c-12.923 0-23.4-2.666-23.4-5.4v6.296c.007 2.733 10.48 5.404 23.4 5.404 12.92 0 23.393-2.671 23.4-5.404V75.5c0 2.734-10.477 5.4-23.4 5.4"/>
            <path fill="#1EA4FF" d="M15.6 78.267v6.295a24.79 24.79 0 0 0 1.8.582v-6.297a25.256 25.256 0 0 1-1.8-.58M53.4 78.847v6.297a24.79 24.79 0 0 0 1.8-.582v-6.295c-.547.201-1.147.395-1.8.58M20.1 79.5v6.298c.576.12 1.176.233 1.8.34v-6.297a52.652 52.652 0 0 1-1.8-.34M48.9 79.84v6.299a54.891 54.891 0 0 0 1.8-.341V79.5c-.576.12-1.176.234-1.8.34M24.6 80.242v6.298c.587.076 1.185.146 1.8.21v-6.3a73.765 73.765 0 0 1-1.8-.208M44.4 80.452v6.298a78.494 78.494 0 0 0 1.8-.209v-6.299c-.587.077-1.185.147-1.8.21M29.1 80.683v6.3c.591.04 1.19.077 1.8.107v-6.3c-.61-.03-1.209-.066-1.8-.107M39.9 80.79v6.3c.61-.03 1.209-.066 1.8-.108v-6.299c-.591.041-1.19.077-1.8.107M35.4 80.9c-.301 0-.601-.003-.9-.005v6.3c.299.002.599.005.9.005.302 0 .601-.003.9-.005v-6.3c-.299.002-.599.005-.9.005"/>
            <path stroke="#797F84" stroke-width=".5" d="M35.4 80.9c-12.923 0-23.4-2.666-23.4-5.4v6.296c.007 2.733 10.48 5.404 23.4 5.404 12.92 0 23.393-2.671 23.4-5.404V75.5c0 2.734-10.477 5.4-23.4 5.4"/>
            <path fill="#E8F8FF" stroke="#797F84" stroke-width=".5" d="M58.8 75.617c0 2.733-10.477 5.283-23.4 5.283-12.923 0-23.4-2.55-23.4-5.283C12 72.883 22.477 71 35.4 71c12.923 0 23.4 1.883 23.4 4.617"/>
            <path fill="#A7E5FF" d="M31.4 69.9C18.477 69.9 8 67.234 8 64.5v6.296C8.007 73.53 18.48 76.2 31.4 76.2c12.92 0 23.393-2.671 23.4-5.404V64.5c0 2.734-10.477 5.4-23.4 5.4"/>
            <path fill="#1EA4FF" d="M11.6 67.267v6.295a24.79 24.79 0 0 0 1.8.582v-6.297a25.256 25.256 0 0 1-1.8-.58M49.4 67.847v6.297a24.79 24.79 0 0 0 1.8-.582v-6.295c-.547.201-1.147.395-1.8.58M16.1 68.5v6.298c.576.12 1.176.233 1.8.34v-6.297a52.652 52.652 0 0 1-1.8-.34M44.9 68.84v6.299a54.891 54.891 0 0 0 1.8-.341V68.5c-.576.12-1.176.234-1.8.34M20.6 69.242v6.298c.587.076 1.185.146 1.8.21v-6.3a73.765 73.765 0 0 1-1.8-.208M40.4 69.452v6.298a78.494 78.494 0 0 0 1.8-.209v-6.299c-.587.077-1.185.147-1.8.21M25.1 69.683v6.3c.591.04 1.19.077 1.8.107v-6.3c-.61-.03-1.209-.066-1.8-.107M35.9 69.79v6.3c.61-.03 1.209-.066 1.8-.108v-6.299c-.591.041-1.19.077-1.8.107M31.4 69.9c-.301 0-.601-.003-.9-.005v6.3c.299.002.599.005.9.005.302 0 .601-.003.9-.005v-6.3c-.299.002-.599.005-.9.005"/>
            <path stroke="#797F84" stroke-width=".5" d="M31.4 69.9C18.477 69.9 8 67.234 8 64.5v6.296C8.007 73.53 18.48 76.2 31.4 76.2c12.92 0 23.393-2.671 23.4-5.404V64.5c0 2.734-10.477 5.4-23.4 5.4"/>
            <path fill="#E8F8FF" stroke="#797F84" stroke-width=".5" d="M54.8 64.617c0 2.733-10.477 5.283-23.4 5.283C18.477 69.9 8 67.35 8 64.617 8 61.883 18.477 60 31.4 60c12.923 0 23.4 1.883 23.4 4.617"/>
            <g>
                <path fill="#A7E5FF" d="M37.4 62.9c-12.923 0-23.4-2.666-23.4-5.4v6.296c.007 2.733 10.48 5.404 23.4 5.404 12.92 0 23.393-2.671 23.4-5.404V57.5c0 2.734-10.477 5.4-23.4 5.4"/>
                <path fill="#1EA4FF" d="M17.6 60.267v6.295a24.79 24.79 0 0 0 1.8.582v-6.297a25.256 25.256 0 0 1-1.8-.58M55.4 60.847v6.296a24.79 24.79 0 0 0 1.8-.58v-6.296c-.547.201-1.147.395-1.8.58M22.1 61.5v6.298c.576.12 1.176.233 1.8.34v-6.297a52.652 52.652 0 0 1-1.8-.34M50.9 61.84v6.299a54.891 54.891 0 0 0 1.8-.341V61.5c-.576.12-1.176.234-1.8.34M26.6 62.242v6.298c.587.076 1.185.146 1.8.21v-6.3a73.765 73.765 0 0 1-1.8-.208M46.4 62.452v6.298a78.494 78.494 0 0 0 1.8-.209v-6.299c-.587.077-1.185.147-1.8.21M31.1 62.683v6.3c.591.04 1.19.077 1.8.107v-6.3c-.61-.03-1.209-.066-1.8-.107M41.9 62.79v6.3c.61-.03 1.209-.066 1.8-.108v-6.299c-.591.041-1.19.077-1.8.107M37.4 62.9c-.301 0-.601-.003-.9-.005v6.3c.299.002.599.005.9.005.302 0 .601-.003.9-.005v-6.3c-.299.002-.599.005-.9.005"/>
                <path stroke="#797F84" stroke-width=".5" d="M37.4 62.9c-12.923 0-23.4-2.666-23.4-5.4v6.296c.007 2.733 10.48 5.404 23.4 5.404 12.92 0 23.393-2.671 23.4-5.404V57.5c0 2.734-10.477 5.4-23.4 5.4"/>
                <path fill="#E8F8FF" stroke="#797F84" stroke-width=".5" d="M60.8 57.617c0 2.733-10.477 5.283-23.4 5.283-12.923 0-23.4-2.55-23.4-5.283C14 54.883 24.477 53 37.4 53c12.923 0 23.4 1.883 23.4 4.617"/>
            </g>
            <g>
                <path fill="#A7E5FF" d="M69.4 78.9c-12.923 0-23.4-2.666-23.4-5.4v6.296c.007 2.733 10.48 5.404 23.4 5.404 12.92 0 23.393-2.671 23.4-5.404V73.5c0 2.734-10.477 5.4-23.4 5.4"/>
                <path fill="#1EA4FF" d="M49.6 76.267v6.295a24.79 24.79 0 0 0 1.8.582v-6.297a25.256 25.256 0 0 1-1.8-.58M87.4 76.847v6.297a24.79 24.79 0 0 0 1.8-.582v-6.295c-.547.201-1.147.395-1.8.58M54.1 77.5v6.298c.576.12 1.176.233 1.8.34v-6.297a52.652 52.652 0 0 1-1.8-.34M82.9 77.84v6.299a54.891 54.891 0 0 0 1.8-.341V77.5c-.576.12-1.176.234-1.8.34M58.6 78.242v6.298c.587.076 1.185.146 1.8.21v-6.3a73.765 73.765 0 0 1-1.8-.208M78.4 78.452v6.298a78.494 78.494 0 0 0 1.8-.209v-6.299c-.587.077-1.185.147-1.8.21M63.1 78.683v6.3c.591.04 1.19.077 1.8.107v-6.3c-.61-.03-1.209-.066-1.8-.107M73.9 78.79v6.3c.61-.03 1.209-.066 1.8-.108v-6.299c-.591.041-1.19.077-1.8.107M69.4 78.9c-.301 0-.601-.003-.9-.005v6.3c.299.002.599.005.9.005.302 0 .601-.003.9-.005v-6.3c-.299.002-.598.005-.9.005"/>
                <path stroke="#797F84" stroke-width=".5" d="M69.4 78.9c-12.923 0-23.4-2.666-23.4-5.4v6.296c.007 2.733 10.48 5.404 23.4 5.404 12.92 0 23.393-2.671 23.4-5.404V73.5c0 2.734-10.477 5.4-23.4 5.4"/>
                <path fill="#E8F8FF" stroke="#797F84" stroke-width=".5" d="M92.8 73.617c0 2.733-10.477 5.283-23.4 5.283-12.923 0-23.4-2.55-23.4-5.283C46 70.883 56.477 69 69.4 69c12.923 0 23.4 1.883 23.4 4.617"/>
            </g>
            <g>
                <path fill="#A7E5FF" d="M73.4 67.9c-12.923 0-23.4-2.666-23.4-5.4v6.296c.007 2.733 10.48 5.404 23.4 5.404 12.92 0 23.393-2.671 23.4-5.404V62.5c0 2.734-10.477 5.4-23.4 5.4"/>
                <path fill="#1EA4FF" d="M53.6 65.267v6.295a24.79 24.79 0 0 0 1.8.582v-6.297a25.256 25.256 0 0 1-1.8-.58M91.4 65.847v6.297a24.79 24.79 0 0 0 1.8-.582v-6.295c-.547.201-1.147.395-1.8.58M58.1 66.5v6.298c.576.12 1.176.233 1.8.34v-6.297a52.652 52.652 0 0 1-1.8-.34M86.9 66.84v6.299a54.891 54.891 0 0 0 1.8-.341V66.5c-.576.12-1.176.234-1.8.34M62.6 67.242v6.298c.587.076 1.185.146 1.8.21v-6.3a73.765 73.765 0 0 1-1.8-.208M82.4 67.452v6.298a78.494 78.494 0 0 0 1.8-.209v-6.299c-.587.077-1.185.147-1.8.21M67.1 67.683v6.3c.591.04 1.19.077 1.8.107v-6.3c-.61-.03-1.209-.066-1.8-.107M77.9 67.79v6.3c.61-.03 1.209-.066 1.8-.108v-6.299c-.591.041-1.19.077-1.8.107M73.4 67.9c-.301 0-.601-.003-.9-.005v6.3c.299.002.599.005.9.005.302 0 .601-.003.9-.005v-6.3c-.299.002-.598.005-.9.005"/>
                <path stroke="#797F84" stroke-width=".5" d="M73.4 67.9c-12.923 0-23.4-2.666-23.4-5.4v6.296c.007 2.733 10.48 5.404 23.4 5.404 12.92 0 23.393-2.671 23.4-5.404V62.5c0 2.734-10.477 5.4-23.4 5.4"/>
                <path fill="#E8F8FF" stroke="#797F84" stroke-width=".5" d="M96.8 62.617c0 2.733-10.477 5.283-23.4 5.283-12.923 0-23.4-2.55-23.4-5.283C50 59.883 60.477 58 73.4 58c12.923 0 23.4 1.883 23.4 4.617"/>
            </g>
            <g>
                <path fill="#A7E5FF" d="M70.4 59.9c-12.923 0-23.4-2.666-23.4-5.4v6.296c.007 2.733 10.48 5.404 23.4 5.404 12.92 0 23.393-2.671 23.4-5.404V54.5c0 2.734-10.477 5.4-23.4 5.4"/>
                <path fill="#1EA4FF" d="M50.6 57.267v6.295a24.79 24.79 0 0 0 1.8.581v-6.296a25.256 25.256 0 0 1-1.8-.58M88.4 57.847v6.296a24.79 24.79 0 0 0 1.8-.58v-6.296c-.547.201-1.147.395-1.8.58M55.1 58.5v6.298c.576.12 1.176.233 1.8.34v-6.297a52.652 52.652 0 0 1-1.8-.34M83.9 58.84v6.299a54.891 54.891 0 0 0 1.8-.341V58.5c-.576.12-1.176.234-1.8.34M59.6 59.242v6.298c.587.076 1.185.146 1.8.21v-6.3a73.765 73.765 0 0 1-1.8-.208M79.4 59.452v6.298a78.494 78.494 0 0 0 1.8-.209v-6.299c-.587.077-1.185.147-1.8.21M64.1 59.683v6.3c.591.04 1.19.077 1.8.107v-6.3c-.61-.03-1.209-.066-1.8-.107M74.9 59.79v6.3c.61-.03 1.209-.066 1.8-.108v-6.299c-.591.041-1.19.077-1.8.107M70.4 59.9c-.301 0-.601-.003-.9-.005v6.3c.299.002.599.005.9.005.302 0 .601-.003.9-.005v-6.3c-.299.002-.598.005-.9.005"/>
                <path stroke="#797F84" stroke-width=".5" d="M70.4 59.9c-12.923 0-23.4-2.666-23.4-5.4v6.296c.007 2.733 10.48 5.404 23.4 5.404 12.92 0 23.393-2.671 23.4-5.404V54.5c0 2.734-10.477 5.4-23.4 5.4"/>
                <path fill="#E8F8FF" stroke="#797F84" stroke-width=".5" d="M93.8 54.617c0 2.733-10.477 5.283-23.4 5.283-12.923 0-23.4-2.55-23.4-5.283C47 51.883 57.477 50 70.4 50c12.923 0 23.4 1.883 23.4 4.617"/>
            </g>
            <g>
                <path fill="#A7E5FF" d="M64.4 50.9c-12.923 0-23.4-2.666-23.4-5.4v6.296c.007 2.733 10.48 5.404 23.4 5.404 12.92 0 23.393-2.671 23.4-5.404V45.5c0 2.734-10.477 5.4-23.4 5.4"/>
                <path fill="#1EA4FF" d="M44.6 48.267v6.295a24.79 24.79 0 0 0 1.8.581v-6.296a25.256 25.256 0 0 1-1.8-.58M82.4 48.847v6.296a24.79 24.79 0 0 0 1.8-.58v-6.296c-.547.201-1.147.395-1.8.58M49.1 49.5v6.298c.576.12 1.176.233 1.8.34v-6.297a52.652 52.652 0 0 1-1.8-.34M77.9 49.84v6.299a54.891 54.891 0 0 0 1.8-.341V49.5c-.576.12-1.176.233-1.8.34M53.6 50.242v6.298c.587.076 1.185.146 1.8.21v-6.3a73.765 73.765 0 0 1-1.8-.208M73.4 50.452v6.298a78.494 78.494 0 0 0 1.8-.209v-6.299c-.587.077-1.185.147-1.8.21M58.1 50.683v6.3c.591.04 1.19.078 1.8.107v-6.3c-.61-.03-1.209-.066-1.8-.107M68.9 50.79v6.3c.61-.03 1.209-.066 1.8-.108v-6.299c-.591.041-1.19.077-1.8.107M64.4 50.9c-.301 0-.601-.003-.9-.005v6.3c.299.002.599.005.9.005.302 0 .601-.003.9-.005v-6.3c-.299.002-.598.005-.9.005"/>
                <path stroke="#797F84" stroke-width=".5" d="M64.4 50.9c-12.923 0-23.4-2.666-23.4-5.4v6.296c.007 2.733 10.48 5.404 23.4 5.404 12.92 0 23.393-2.671 23.4-5.404V45.5c0 2.734-10.477 5.4-23.4 5.4"/>
                <path fill="#E8F8FF" stroke="#797F84" stroke-width=".5" d="M87.8 45.617c0 2.733-10.477 5.283-23.4 5.283-12.923 0-23.4-2.55-23.4-5.283C41 42.883 51.477 41 64.4 41c12.923 0 23.4 1.883 23.4 4.617"/>
            </g>
            <g>
                <path fill="#A7E5FF" d="M31.4 53.9C18.477 53.9 8 51.234 8 48.5v6.296C8.007 57.53 18.48 60.2 31.4 60.2c12.92 0 23.393-2.671 23.4-5.404V48.5c0 2.734-10.477 5.4-23.4 5.4"/>
                <path fill="#1EA4FF" d="M11.6 51.267v6.295a24.79 24.79 0 0 0 1.8.581v-6.296a25.256 25.256 0 0 1-1.8-.58M49.4 51.847v6.296a24.79 24.79 0 0 0 1.8-.58v-6.296c-.547.201-1.147.395-1.8.58M16.1 52.5v6.298c.576.12 1.176.233 1.8.34v-6.297a52.652 52.652 0 0 1-1.8-.34M44.9 52.84v6.299a54.891 54.891 0 0 0 1.8-.341V52.5c-.576.12-1.176.233-1.8.34M20.6 53.242v6.298c.587.076 1.185.146 1.8.21v-6.3a73.765 73.765 0 0 1-1.8-.208M40.4 53.452v6.298a78.494 78.494 0 0 0 1.8-.209v-6.299c-.587.077-1.185.147-1.8.21M25.1 53.683v6.3c.591.04 1.19.078 1.8.107v-6.3c-.61-.03-1.209-.066-1.8-.107M35.9 53.79v6.3c.61-.03 1.209-.066 1.8-.108v-6.299c-.591.041-1.19.077-1.8.107M31.4 53.9c-.301 0-.601-.003-.9-.005v6.3c.299.002.599.005.9.005.302 0 .601-.003.9-.005v-6.3c-.299.002-.599.005-.9.005"/>
                <path stroke="#797F84" stroke-width=".5" d="M31.4 53.9C18.477 53.9 8 51.234 8 48.5v6.296C8.007 57.53 18.48 60.2 31.4 60.2c12.92 0 23.393-2.671 23.4-5.404V48.5c0 2.734-10.477 5.4-23.4 5.4"/>
                <path fill="#E8F8FF" stroke="#797F84" stroke-width=".5" d="M54.8 48.617c0 2.733-10.477 5.283-23.4 5.283C18.477 53.9 8 51.35 8 48.617 8 45.883 18.477 44 31.4 44c12.923 0 23.4 1.883 23.4 4.617"/>
            </g>
            <g>
                <path fill="#A7E5FF" d="M35.4 44.9c-12.923 0-23.4-2.666-23.4-5.4v6.296c.007 2.733 10.48 5.404 23.4 5.404 12.92 0 23.393-2.671 23.4-5.404V39.5c0 2.734-10.477 5.4-23.4 5.4"/>
                <path fill="#1EA4FF" d="M15.6 42.267v6.295a24.79 24.79 0 0 0 1.8.581v-6.296a25.256 25.256 0 0 1-1.8-.58M53.4 42.847v6.296a24.79 24.79 0 0 0 1.8-.58v-6.296c-.547.201-1.147.395-1.8.58M20.1 43.5v6.298c.576.12 1.176.233 1.8.34v-6.297a52.652 52.652 0 0 1-1.8-.34M48.9 43.84v6.299a54.891 54.891 0 0 0 1.8-.341V43.5c-.576.12-1.176.233-1.8.34M24.6 44.242v6.298c.587.076 1.185.146 1.8.21v-6.3a73.765 73.765 0 0 1-1.8-.208M44.4 44.452v6.298a78.494 78.494 0 0 0 1.8-.209v-6.299c-.587.077-1.185.147-1.8.21M29.1 44.683v6.3c.591.04 1.19.078 1.8.107v-6.3c-.61-.03-1.209-.066-1.8-.107M39.9 44.79v6.3c.61-.03 1.209-.066 1.8-.108v-6.299c-.591.041-1.19.077-1.8.107M35.4 44.9c-.301 0-.601-.003-.9-.005v6.3c.299.002.599.005.9.005.302 0 .601-.003.9-.005v-6.3c-.299.002-.599.005-.9.005"/>
                <path stroke="#797F84" stroke-width=".5" d="M35.4 44.9c-12.923 0-23.4-2.666-23.4-5.4v6.296c.007 2.733 10.48 5.404 23.4 5.404 12.92 0 23.393-2.671 23.4-5.404V39.5c0 2.734-10.477 5.4-23.4 5.4"/>
                <path fill="#E8F8FF" stroke="#797F84" stroke-width=".5" d="M58.8 39.617c0 2.733-10.477 5.283-23.4 5.283-12.923 0-23.4-2.55-23.4-5.283C12 36.883 22.477 35 35.4 35c12.923 0 23.4 1.883 23.4 4.617"/>
            </g>
            <g>
                <path fill="#A7E5FF" d="M32.4 34.9C19.477 34.9 9 32.234 9 29.5v6.296C9.007 38.53 19.48 41.2 32.4 41.2c12.92 0 23.393-2.671 23.4-5.404V29.5c0 2.734-10.477 5.4-23.4 5.4"/>
                <path fill="#1EA4FF" d="M12.6 32.267v6.295a24.79 24.79 0 0 0 1.8.581v-6.296a25.256 25.256 0 0 1-1.8-.58M50.4 32.847v6.296a24.79 24.79 0 0 0 1.8-.58v-6.296c-.547.201-1.147.395-1.8.58M17.1 33.5v6.298c.576.12 1.176.233 1.8.34v-6.297a52.652 52.652 0 0 1-1.8-.34M45.9 33.84v6.299a54.891 54.891 0 0 0 1.8-.341V33.5c-.576.12-1.176.233-1.8.34M21.6 34.242v6.298c.587.076 1.185.146 1.8.21v-6.3a73.765 73.765 0 0 1-1.8-.208M41.4 34.452v6.298a78.494 78.494 0 0 0 1.8-.209v-6.299c-.587.077-1.185.147-1.8.21M26.1 34.683v6.3c.591.04 1.19.078 1.8.107v-6.3c-.61-.03-1.209-.066-1.8-.107M36.9 34.79v6.3c.61-.03 1.209-.066 1.8-.108v-6.299c-.591.041-1.19.077-1.8.107M32.4 34.9c-.301 0-.601-.003-.9-.005v6.3c.299.002.599.005.9.005.302 0 .601-.003.9-.005v-6.3c-.299.002-.599.005-.9.005"/>
                <path stroke="#797F84" stroke-width=".5" d="M32.4 34.9C19.477 34.9 9 32.234 9 29.5v6.296C9.007 38.53 19.48 41.2 32.4 41.2c12.92 0 23.393-2.671 23.4-5.404V29.5c0 2.734-10.477 5.4-23.4 5.4"/>
                <path fill="#E8F8FF" stroke="#797F84" stroke-width=".5" d="M55.8 29.617c0 2.733-10.477 5.283-23.4 5.283C19.477 34.9 9 32.35 9 29.617 9 26.883 19.477 25 32.4 25c12.923 0 23.4 1.883 23.4 4.617"/>
            </g>
            <g>
                <path fill="#A7E5FF" d="M62.4 88.9c-12.923 0-23.4-2.666-23.4-5.4v6.296c.007 2.733 10.48 5.404 23.4 5.404 12.92 0 23.393-2.671 23.4-5.404V83.5c0 2.734-10.477 5.4-23.4 5.4"/>
                <path fill="#1EA4FF" d="M42.6 86.267v6.295a24.79 24.79 0 0 0 1.8.582v-6.297a25.256 25.256 0 0 1-1.8-.58M80.4 86.847v6.297a24.79 24.79 0 0 0 1.8-.582v-6.295c-.547.201-1.147.395-1.8.58M47.1 87.5v6.298c.576.12 1.176.233 1.8.34v-6.297a52.652 52.652 0 0 1-1.8-.34M75.9 87.84v6.299a54.891 54.891 0 0 0 1.8-.341V87.5c-.576.12-1.176.234-1.8.34M51.6 88.242v6.298c.587.076 1.185.146 1.8.21v-6.3a73.765 73.765 0 0 1-1.8-.208M71.4 88.452v6.298a78.494 78.494 0 0 0 1.8-.209v-6.299c-.587.077-1.185.147-1.8.21M56.1 88.683v6.3c.591.04 1.19.077 1.8.107v-6.3c-.61-.03-1.209-.066-1.8-.107M66.9 88.79v6.3c.61-.03 1.209-.066 1.8-.108v-6.299c-.591.041-1.19.077-1.8.107M62.4 88.9c-.301 0-.601-.003-.9-.005v6.3c.299.002.599.005.9.005.302 0 .601-.003.9-.005v-6.3c-.299.002-.599.005-.9.005"/>
                <path stroke="#797F84" stroke-width=".5" d="M62.4 88.9c-12.923 0-23.4-2.666-23.4-5.4v6.296c.007 2.733 10.48 5.404 23.4 5.404 12.92 0 23.393-2.671 23.4-5.404V83.5c0 2.734-10.477 5.4-23.4 5.4"/>
                <path fill="#E8F8FF" stroke="#797F84" stroke-width=".5" d="M85.8 83.617c0 2.733-10.477 5.283-23.4 5.283-12.923 0-23.4-2.55-23.4-5.283C39 80.883 49.477 79 62.4 79c12.923 0 23.4 1.883 23.4 4.617"/>
            </g>
            <g>
                <path fill="#A7E5FF" d="M58.4 80.9c-12.923 0-23.4-2.666-23.4-5.4v6.296c.007 2.733 10.48 5.404 23.4 5.404 12.92 0 23.393-2.671 23.4-5.404V75.5c0 2.734-10.477 5.4-23.4 5.4"/>
                <path fill="#1EA4FF" d="M38.6 78.267v6.295a24.79 24.79 0 0 0 1.8.582v-6.297a25.256 25.256 0 0 1-1.8-.58M76.4 78.847v6.297a24.79 24.79 0 0 0 1.8-.582v-6.295c-.547.201-1.147.395-1.8.58M43.1 79.5v6.298c.576.12 1.176.233 1.8.34v-6.297a52.652 52.652 0 0 1-1.8-.34M71.9 79.84v6.299a54.891 54.891 0 0 0 1.8-.341V79.5c-.576.12-1.176.234-1.8.34M47.6 80.242v6.298c.587.076 1.185.146 1.8.21v-6.3a73.765 73.765 0 0 1-1.8-.208M67.4 80.452v6.298a78.494 78.494 0 0 0 1.8-.209v-6.299c-.587.077-1.185.147-1.8.21M52.1 80.683v6.3c.591.04 1.19.077 1.8.107v-6.3c-.61-.03-1.209-.066-1.8-.107M62.9 80.79v6.3c.61-.03 1.209-.066 1.8-.108v-6.299c-.591.041-1.19.077-1.8.107M58.4 80.9c-.301 0-.601-.003-.9-.005v6.3c.299.002.599.005.9.005.302 0 .601-.003.9-.005v-6.3c-.299.002-.599.005-.9.005"/>
                <path stroke="#797F84" stroke-width=".5" d="M58.4 80.9c-12.923 0-23.4-2.666-23.4-5.4v6.296c.007 2.733 10.48 5.404 23.4 5.404 12.92 0 23.393-2.671 23.4-5.404V75.5c0 2.734-10.477 5.4-23.4 5.4"/>
                <path fill="#E8F8FF" stroke="#797F84" stroke-width=".5" d="M81.8 75.617c0 2.733-10.477 5.283-23.4 5.283-12.923 0-23.4-2.55-23.4-5.283C35 72.883 45.477 71 58.4 71c12.923 0 23.4 1.883 23.4 4.617"/>
            </g>
            <g>
                <path fill="#A7E5FF" d="M62.4 73.9c-12.923 0-23.4-2.666-23.4-5.4v6.296c.007 2.733 10.48 5.404 23.4 5.404 12.92 0 23.393-2.671 23.4-5.404V68.5c0 2.734-10.477 5.4-23.4 5.4"/>
                <path fill="#1EA4FF" d="M42.6 71.267v6.295a24.79 24.79 0 0 0 1.8.582v-6.297a25.256 25.256 0 0 1-1.8-.58M80.4 71.847v6.297a24.79 24.79 0 0 0 1.8-.582v-6.295c-.547.201-1.147.395-1.8.58M47.1 72.5v6.298c.576.12 1.176.233 1.8.34v-6.297a52.652 52.652 0 0 1-1.8-.34M75.9 72.84v6.299a54.891 54.891 0 0 0 1.8-.341V72.5c-.576.12-1.176.234-1.8.34M51.6 73.242v6.298c.587.076 1.185.146 1.8.21v-6.3a73.765 73.765 0 0 1-1.8-.208M71.4 73.452v6.298a78.494 78.494 0 0 0 1.8-.209v-6.299c-.587.077-1.185.147-1.8.21M56.1 73.683v6.3c.591.04 1.19.077 1.8.107v-6.3c-.61-.03-1.209-.066-1.8-.107M66.9 73.79v6.3c.61-.03 1.209-.066 1.8-.108v-6.299c-.591.041-1.19.077-1.8.107M62.4 73.9c-.301 0-.601-.003-.9-.005v6.3c.299.002.599.005.9.005.302 0 .601-.003.9-.005v-6.3c-.299.002-.599.005-.9.005"/>
                <path stroke="#797F84" stroke-width=".5" d="M62.4 73.9c-12.923 0-23.4-2.666-23.4-5.4v6.296c.007 2.733 10.48 5.404 23.4 5.404 12.92 0 23.393-2.671 23.4-5.404V68.5c0 2.734-10.477 5.4-23.4 5.4"/>
                <path fill="#E8F8FF" stroke="#797F84" stroke-width=".5" d="M85.8 68.617c0 2.733-10.477 5.283-23.4 5.283-12.923 0-23.4-2.55-23.4-5.283C39 65.883 49.477 64 62.4 64c12.923 0 23.4 1.883 23.4 4.617"/>
            </g>
            <g>
                <path fill="#A7E5FF" d="M54.4 64.9c-12.923 0-23.4-2.666-23.4-5.4v6.296c.007 2.733 10.48 5.404 23.4 5.404 12.92 0 23.393-2.671 23.4-5.404V59.5c0 2.734-10.477 5.4-23.4 5.4"/>
                <path fill="#1EA4FF" d="M34.6 62.267v6.295a24.79 24.79 0 0 0 1.8.582v-6.297a25.256 25.256 0 0 1-1.8-.58M72.4 62.847v6.296a24.79 24.79 0 0 0 1.8-.58v-6.296c-.547.201-1.147.395-1.8.58M39.1 63.5v6.298c.576.12 1.176.233 1.8.34v-6.297a52.652 52.652 0 0 1-1.8-.34M67.9 63.84v6.299a54.891 54.891 0 0 0 1.8-.341V63.5c-.576.12-1.176.234-1.8.34M43.6 64.242v6.298c.587.076 1.185.146 1.8.21v-6.3a73.765 73.765 0 0 1-1.8-.208M63.4 64.452v6.298a78.494 78.494 0 0 0 1.8-.209v-6.299c-.587.077-1.185.147-1.8.21M48.1 64.683v6.3c.591.04 1.19.077 1.8.107v-6.3c-.61-.03-1.209-.066-1.8-.107M58.9 64.79v6.3c.61-.03 1.209-.066 1.8-.108v-6.299c-.591.041-1.19.077-1.8.107M54.4 64.9c-.301 0-.601-.003-.9-.005v6.3c.299.002.599.005.9.005.302 0 .601-.003.9-.005v-6.3c-.299.002-.599.005-.9.005"/>
                <path stroke="#797F84" stroke-width=".5" d="M54.4 64.9c-12.923 0-23.4-2.666-23.4-5.4v6.296c.007 2.733 10.48 5.404 23.4 5.404 12.92 0 23.393-2.671 23.4-5.404V59.5c0 2.734-10.477 5.4-23.4 5.4"/>
                <path fill="#E8F8FF" stroke="#797F84" stroke-width=".5" d="M77.8 59.617c0 2.733-10.477 5.283-23.4 5.283-12.923 0-23.4-2.55-23.4-5.283C31 56.883 41.477 55 54.4 55c12.923 0 23.4 1.883 23.4 4.617"/>
            </g>
        </g>
    </g>
</svg>
