<svg xmlns="http://www.w3.org/2000/svg" width="104" height="104" viewBox="0 0 104 104">
    <g fill="none" fill-rule="evenodd">
        <path d="M0 0h104v104H0z" opacity=".202"/>
        <g transform="translate(11 23)">
            <path fill="#70D5FF" stroke="#292C36" stroke-width=".5" d="M1.322 4.097C7.5 6.2 14.837 7.25 23.333 7.25 35 7.25 45.653 0 58.667 0c7.397 0 14.697 1.062 21.899 3.187A2 2 0 0 1 82 5.106v47.69a1 1 0 0 1-1.39.92C75.934 51.74 68.564 50.75 58.5 50.75c-16.689 0-21.167 7.25-35 7.25-8.908 0-16.52-1.127-22.836-3.382A1 1 0 0 1 0 53.676V5.044a1 1 0 0 1 1.322-.947z"/>
            <path fill="#E8F8FF" d="M5.197 9.686c6.545 1.315 12.646 1.973 18.303 1.973C35.166 11.659 45.487 5 58.5 5c7.334 0 13.6.812 18.798 2.437a1 1 0 0 1 .702.955v37.843a1 1 0 0 1-1.282.96c-4.05-1.191-10.123-1.753-18.218-1.687-16.687.137-21.167 6.992-35 6.992-8.243 0-14.525-.803-18.848-2.41A1 1 0 0 1 4 49.154V10.666a1 1 0 0 1 1.197-.98z"/>
            <path fill="#70D5FF" fill-opacity=".198" d="M67.014.503c2.822.306 7.312 1.226 13.47 2.76A2 2 0 0 1 82 5.203V52.14a1 1 0 0 1-1.292.957C75.482 51.503 70.913 50.59 67 50.356L67.014.503z"/>
            <circle cx="41" cy="28" r="12" fill="#FAFBFD"/>
            <path fill="#A7E5FF" d="M41 40c6.627 0 12-5.373 12-12s-5.373-12-12-12c2.667 3.582 4 7.582 4 12s-1.333 8.418-4 12z"/>
            <text fill="#292C36" font-family="Quicksand-SemiBold, Quicksand" font-size="21" font-weight="500" letter-spacing=".164">
                <tspan x="35.531" y="39">?</tspan>
            </text>
        </g>
    </g>
</svg>
