<svg xmlns="http://www.w3.org/2000/svg" width="30" height="25" viewBox="0 0 30 25">
    <g fill="#1EA4FF" fill-rule="nonzero">
        <circle cx="12.339" cy="6.439" r="6.439"/>
        <path d="M12.34 15.473C1.988 15.473 0 20.577 0 22.213c0 1.635 1.349 2.562 2.608 2.562H22.07c1.26 0 2.609-.926 2.609-2.561 0-1.637-1.988-6.74-12.34-6.74zM29.016 10.542h-2.981V7.561a.983.983 0 1 0-1.967 0v2.981h-2.981a.983.983 0 1 0 0 1.967h2.981v2.981a.984.984 0 1 0 1.967 0v-2.981h2.981a.983.983 0 1 0 0-1.967z"/>
    </g>
</svg>
