<svg xmlns="http://www.w3.org/2000/svg" width="104" height="104" viewBox="0 0 104 104">
    <g fill="none" fill-rule="evenodd">
        <path d="M0 0h104v104H0z"/>
        <path fill="#797F84" fill-rule="nonzero" d="M29.91 68.989c0 1.643-1.362 2.988-3.026 2.988-1.664 0-3.026-1.345-3.026-2.988 0-1.644 1.286-2.989 3.026-2.989 1.74.037 3.026 1.382 3.026 2.989zm-12.406 5.977v.747s-1.438-1.83-4.502-1.83c-5.03 0-9.002 3.81-9.002 9.04 0 5.23 3.896 9.04 9.002 9.04 3.102 0 4.502-1.868 4.502-1.868v.784c0 .374.264.635.643.635h3.744V74.33h-3.744a.658.658 0 0 0-.643.636zm0 11.02c-.681 1.008-2.08 1.867-3.745 1.867-2.95 0-5.22-1.83-5.22-4.93 0-3.101 2.27-4.932 5.22-4.932 1.626 0 3.101.897 3.745 1.868v6.127zM24.69 74.33h4.464v17.184H24.69V74.33zm66.383-.448c-3.064 0-4.501 1.83-4.501 1.83v-9.637h-4.463v25.477h3.744a.658.658 0 0 0 .643-.635v-.785S87.934 92 90.997 92c5.031 0 9.003-3.848 9.003-9.04.038-5.23-3.934-9.078-8.927-9.078zm-.719 13.934c-1.702 0-3.063-.86-3.744-1.868v-6.126c.68-.897 2.194-1.868 3.744-1.868 2.95 0 5.22 1.83 5.22 4.931 0 3.1-2.27 4.931-5.22 4.931zm-10.515-6.5v10.236h-4.463v-9.713c0-2.839-.908-3.997-3.442-3.997-1.362 0-2.724.672-3.594 1.681v11.991h-4.463V74.33h3.518c.378 0 .643.337.643.636v.747c1.286-1.345 3.026-1.83 4.728-1.83 1.929 0 3.555.56 4.88 1.643 1.588 1.27 2.193 2.914 2.193 5.79zm-26.742-7.434c-3.064 0-4.501 1.83-4.501 1.83v-9.637h-4.464v25.477h3.745a.658.658 0 0 0 .643-.635v-.785S49.957 92 53.021 92c5.03 0 9.002-3.848 9.002-9.04.076-5.23-3.858-9.078-8.926-9.078zm-.719 13.934c-1.702 0-3.064-.86-3.745-1.868v-6.126c.681-.897 2.194-1.868 3.745-1.868 2.95 0 5.22 1.83 5.22 4.931 0 3.1-2.27 4.931-5.22 4.931zM40.312 73.882c1.362 0 2.043.224 2.043.224v4.072s-3.707-1.233-6.015 1.382v12.03h-4.463V74.33h3.745c.378 0 .643.337.643.636v.747c.87-.972 2.685-1.83 4.047-1.83z"/>
        <path fill="#70D5FF" fill-rule="nonzero" d="M72.388 44.701c-.227-.565-.454-1.168-.681-1.658-.38-.828-.758-1.62-1.06-2.335l-.039-.038a423.813 423.813 0 0 0-10.26-20.834l-.152-.264a29.466 29.466 0 0 1-1.098-2.185c-.455-.828-.91-1.695-1.667-2.524C55.955 13.017 53.834 12 51.562 12c-2.31 0-4.392 1.017-5.944 2.75-.682.829-1.212 1.696-1.666 2.524-.38.754-.758 1.47-1.099 2.185l-.151.264c-3.56 6.932-7.043 13.94-10.261 20.834l-.038.075c-.341.754-.682 1.507-1.06 2.336-.228.49-.455 1.055-.682 1.658-.606 1.695-.795 3.315-.568 4.973.492 3.466 2.84 6.367 6.02 7.648 1.212.49 2.462.753 3.75.753.378 0 .832-.038 1.21-.075a11.85 11.85 0 0 0 4.62-1.583c1.894-1.055 3.711-2.6 5.756-4.784 2.045 2.223 3.9 3.73 5.755 4.784 1.515.867 3.105 1.394 4.62 1.583.378.037.833.075 1.211.075 1.288 0 2.613-.226 3.75-.753 3.256-1.281 5.527-4.258 6.02-7.648.378-1.583.189-3.203-.417-4.898zm-20.901 2.374c-2.5-3.127-4.128-6.104-4.696-8.59-.227-1.055-.265-1.997-.151-2.826.076-.753.379-1.394.757-1.921.871-1.243 2.348-2.034 4.09-2.034 1.741 0 3.256.753 4.09 2.034.378.565.643 1.205.756 1.921.152.83.076 1.809-.151 2.826-.568 2.486-2.196 5.425-4.695 8.59zm18.478 2.185c-.341 2.41-1.931 4.483-4.203 5.387a6.976 6.976 0 0 1-3.522.452 8.921 8.921 0 0 1-3.521-1.205c-1.666-.905-3.332-2.336-5.301-4.484 3.067-3.73 4.922-7.158 5.604-10.21.34-1.431.378-2.712.227-3.917-.19-1.168-.606-2.223-1.25-3.127-1.438-2.072-3.862-3.278-6.55-3.278-2.689 0-5.112 1.243-6.55 3.278-.645.904-1.061 1.996-1.25 3.127a9.32 9.32 0 0 0 .227 3.918c.681 3.051 2.612 6.517 5.604 10.247-1.893 2.11-3.597 3.541-5.301 4.483-1.212.678-2.348 1.055-3.522 1.206a7.292 7.292 0 0 1-3.521-.452c-2.272-.904-3.9-3.014-4.203-5.388-.152-1.168-.038-2.298.416-3.579.152-.452.379-.904.606-1.469.341-.754.682-1.507 1.06-2.298l.038-.075A498.605 498.605 0 0 1 45.24 21.155l.151-.264c.379-.678.758-1.432 1.098-2.11.38-.753.796-1.431 1.288-2.034.984-1.093 2.272-1.695 3.71-1.695 1.44 0 2.727.602 3.711 1.695.493.603.91 1.28 1.288 2.034.378.678.757 1.432 1.098 2.11l.151.264a581.318 581.318 0 0 1 10.148 20.758v.038c.379.753.682 1.582 1.06 2.298.228.565.455 1.017.606 1.47.455 1.167.606 2.335.417 3.54z"/>
    </g>
</svg>
