<svg xmlns="http://www.w3.org/2000/svg" width="104" height="104" viewBox="0 0 104 104">
    <g fill="none" fill-rule="evenodd">
        <path d="M0 0h104v104H0z"/>
        <g fill="#E5E7E9" transform="translate(6.182 31.242)">
            <path d="M16.561 7.043a1 1 0 0 1 .318 1.378L7.341 23.686a1 1 0 1 1-1.696-1.06L15.183 7.36a1 1 0 0 1 1.378-.318zM11.473 3.863a1 1 0 0 1 .318 1.378L5.432 15.418a1 1 0 0 1-1.696-1.06l6.359-10.177a1 1 0 0 1 1.378-.318z"/>
            <rect width="2" height="9" x="3" rx="1" transform="rotate(32 4 4.5)"/>
        </g>
        <g fill="#E5E7E9" transform="rotate(26 -138.72 155.149)">
            <path d="M11.446.53a1 1 0 0 1 .319 1.378L2.226 17.173a1 1 0 0 1-1.696-1.06L10.068.848A1 1 0 0 1 11.446.53zM16.473 3.863a1 1 0 0 1 .318 1.378l-6.359 10.177a1 1 0 0 1-1.696-1.06l6.359-10.177a1 1 0 0 1 1.378-.318z"/>
            <rect width="2" height="9" x="18" y="7" rx="1" transform="rotate(32 19 11.5)"/>
        </g>
        <g fill-rule="nonzero">
            <path fill="#A7E5FF" d="M25.18 74.15L12.109 64.016c-.714-.529-.948-1.463-.52-2.075 2.096-2.99 6.132-4.011 10.098-2.555l11.823 6.61-8.328 8.152zM29.568 78.472l10.31 12.908c.537.704 1.485.934 2.106.512l.78-.53c2.566-1.746 3.443-5.11 2.192-8.416L37.87 70.292l-8.302 8.18z"/>
            <path fill="#70D5FF" d="M26.099 61.96L18.725 69l6.703 5.362 8.044-8.387z" opacity=".481"/>
            <path fill="#292C36" d="M28.831 34.059a4.427 4.427 0 0 1-.304-5.978c2.094-2.54 4.718-5.37 6.291-6.926 2.154-2.128 2.342-1.874 4.642-3.268a.866.866 0 0 1 1.057.122l4.549 4.497c.28.278.33.71.123 1.045-1.41 2.274-1.153 2.46-3.306 4.589-1.574 1.556-4.435 4.15-7.005 6.22a4.554 4.554 0 0 1-6.047-.301zM69.9 74.662a4.427 4.427 0 0 1-.304-5.978c2.095-2.54 4.718-5.37 6.292-6.926 2.153-2.128 2.34-1.874 4.641-3.268a.866.866 0 0 1 1.057.122l4.55 4.497c.28.278.33.71.123 1.045-1.41 2.274-1.153 2.46-3.306 4.589-1.574 1.556-4.436 4.15-7.005 6.22a4.554 4.554 0 0 1-6.047-.301z"/>
            <path fill="#70D5FF" d="M49.53 49.225L65.648 33.31 15.719 17.82c-1.028-.259-2.05-.012-2.73.66l-4.218 4.165c-1.413 1.395-.806 3.952 1.188 5.01l39.571 21.57z"/>
            <path fill="#1EA4FF" d="M55.123 30.12L40.846 44.347l9.479 5.214 15.993-15.935z" opacity=".452"/>
            <path fill="#70D5FF" d="M54.252 54.43L70.167 38.5l15.49 49.347c.258 1.016.012 2.027-.66 2.699l-4.165 4.169c-1.395 1.396-3.952.797-5.01-1.174l-21.57-39.112z"/>
            <path fill="#FAFBFD" stroke="#797F84" stroke-width=".5" d="M84.88 31.281L57.78 58.14a146.5 146.5 0 0 1-14.443 12.558l-12.894 9.802c-2.985 2.27-6.535 2.544-8.443.654-1.908-1.891-1.63-5.41.66-8.368l9.89-12.778a145.986 145.986 0 0 1 12.671-14.314l27.1-26.858c3.705-3.672 7.96-6.73 12.454-8.83 3.871-1.81 7.986-2.942 9.984-.962 1.999 1.981.856 6.059-.97 9.895-2.118 4.455-5.205 8.672-8.91 12.343z"/>
            <path fill="#F3F5F6" d="M94.758 9.374c-.703-.697-1.67-1.007-2.796-1.039.081 2.063-.822 4.68-2.018 7.192-2.12 4.455-5.21 8.672-8.917 12.344L53.91 54.73a146.55 146.55 0 0 1-14.453 12.558l-12.903 9.803c-1.9 1.444-4.028 2.079-5.817 1.864.135.983.535 1.86 1.213 2.532 1.91 1.89 5.462 1.616 8.449-.653L43.3 71.03a146.572 146.572 0 0 0 14.453-12.559l27.119-26.859c3.707-3.671 6.796-7.888 8.916-12.343 1.826-3.837 2.97-7.915.97-9.896z"/>
            <path stroke="#797F84" stroke-width=".5" d="M84.88 31.281L57.78 58.14a146.5 146.5 0 0 1-14.443 12.558l-12.894 9.802c-2.985 2.27-6.535 2.544-8.443.654-1.908-1.891-1.63-5.41.66-8.368l9.89-12.778a145.986 145.986 0 0 1 12.671-14.314l27.1-26.858c3.705-3.672 7.96-6.73 12.454-8.83 3.871-1.81 7.986-2.942 9.984-.962 1.999 1.981.856 6.059-.97 9.895-2.118 4.455-5.205 8.672-8.91 12.343z"/>
            <path fill="#A1A5A9" d="M87.15 26.778l-.94.941c-.875.875-10.657-8.907-9.782-9.781l.941-.942c.594-.593 1.465-.78 2.174-.467 3.535 1.564 6.511 4.54 8.075 8.075.313.71.126 1.58-.467 2.174z"/>
            <path fill="#585858" d="M24.729 80.06c-.336 0-.671-.123-.927-.367a1.207 1.207 0 0 1 0-1.766L35.255 67.02a1.358 1.358 0 0 1 1.855 0 1.207 1.207 0 0 1 0 1.766L25.656 79.693a1.342 1.342 0 0 1-.927.366z"/>
        </g>
    </g>
</svg>
