<svg xmlns="http://www.w3.org/2000/svg" width="16" height="16" viewBox="0 0 16 16">
    <g fill="none" fill-rule="evenodd">
        <path d="M0 0h16v16H0z"/>
        <path fill="#292C36" d="M13.915 2.084c-.339-.34-1.896.417-2.466.988L9.584 4.94 3.711 3.458c-.493-.17-.987-.077-1.31.247L2 4.106l5.673 2.748-.2.2-.664.664c-.108.108-.2.216-.293.34L4.497 10.79l-1.68-.247-.447.447 2.667 2.67.447-.447-.247-1.683 2.744-2.037c.108-.093.231-.185.339-.293.154-.14.54-.54.647-.648l.2-.201.14.231L11.927 14l.4-.401c.324-.324.417-.818.247-1.297l-1.48-5.88 1.866-1.868c.54-.571 1.295-2.145.955-2.47z"/>
    </g>
</svg>
