<svg xmlns="http://www.w3.org/2000/svg" width="16" height="16" viewBox="0 0 16 16">
    <g fill="none" fill-rule="evenodd">
        <path d="M0 0h16v16H0z"/>
        <path fill="#292C36" d="M14 11.437l-.06-2.309a.334.334 0 0 0-.19-.285.389.389 0 0 0-.361.007l-2.132 1.203a.33.33 0 0 0-.176.295c.004.12.076.23.19.288l.413.208c-.606.836-1.527 1.434-2.583 1.678v-6.31c.989-.472 1.501-1.508 1.239-2.508C10.077 2.704 9.109 2 7.996 2c-1.113 0-2.082.704-2.344 1.704s.25 2.036 1.24 2.508v6.31c-1.053-.245-1.97-.84-2.575-1.673l.413-.208a.334.334 0 0 0 .19-.287.33.33 0 0 0-.175-.296l-2.13-1.203a.389.389 0 0 0-.362-.007.334.334 0 0 0-.188.286L2 11.437a.33.33 0 0 0 .174.296c.11.063.25.066.364.008l.49-.247C4.118 13.056 5.99 14 8 14c2.01 0 3.883-.944 4.972-2.506l.49.247a.389.389 0 0 0 .364-.008.33.33 0 0 0 .174-.296zM8 5a1 1 0 1 1 0-2 1 1 0 0 1 0 2z"/>
    </g>
</svg>
