<svg xmlns="http://www.w3.org/2000/svg" width="30" height="30" viewBox="0 0 30 30">
    <g fill="none" fill-rule="evenodd">
        <path stroke="#1EA4FF" d="M15 .5C6.992.5.5 6.992.5 15S6.992 29.5 15 29.5 29.5 23.008 29.5 15 23.008.5 15 .5z"/>
        <path fill="#1EA4FF" fill-rule="nonzero" d="M20.728 14.376l-7.574-7.12A.955.955 0 0 0 12.495 7c-.25 0-.483.09-.658.256l-.558.524a.84.84 0 0 0 0 1.238l6.36 5.979-6.367 5.985a.844.844 0 0 0 0 1.238l.558.524c.175.165.409.256.658.256.25 0 .483-.09.659-.256l7.581-7.126a.844.844 0 0 0 0-1.242z"/>
    </g>
</svg>
