<?xml version="1.0" encoding="UTF-8"?>
<svg width="16px" height="17px" viewBox="0 0 16 17" version="1.1" xmlns="http://www.w3.org/2000/svg" xmlns:xlink="http://www.w3.org/1999/xlink">
    <!-- Generator: sketchtool 61.2 (101010) - https://sketch.com -->
    <title>2EF3A8C7-B605-4512-8A6C-35A9C85E181E</title>
    <desc>Created with sketchtool.</desc>
    <g id="--Join-A-Trip" stroke="none" stroke-width="1" fill="none" fill-rule="evenodd">
        <g id="M---Join-A-Trip---A---03---A---Budget" transform="translate(-16.000000, -96.000000)">
            <g id="Group-6" transform="translate(16.000000, 96.000000)">
                <g id="Icon-/-Small-/-Arrow-left-/-B1" transform="translate(0.000000, 1.000000)">
                    <g id="Icon-/-Large-/-Arrow-left">
                        <rect id="Rectangle" x="0" y="0" width="16" height="16"></rect>
                        <path d="M5.14286224,14.6666667 C5.02098151,14.6666667 4.89912458,14.6166154 4.80614856,14.5164871 C4.6201727,14.316205 4.6201727,13.991487 4.80614856,13.7912306 L10.1837104,7.9999984 L4.80614856,2.20876624 C4.6201727,2.00848414 4.6201727,1.68379175 4.80614856,1.48353529 C4.99212442,1.28327883 5.29362388,1.28325319 5.47957593,1.48353529 L11.1938514,7.63738293 C11.3798273,7.83766503 11.3798273,8.16235741 11.1938514,8.36263951 L5.47957593,14.5164871 C5.3865999,14.6166154 5.26474298,14.6666667 5.14286224,14.6666667 Z" id="Path" stroke="#1285D8" stroke-width="0.3" fill="#1285D8" transform="translate(8.000000, 8.000000) scale(-1, 1) translate(-8.000000, -8.000000) "></path>
                    </g>
                </g>
            </g>
        </g>
    </g>
</svg>