<svg xmlns="http://www.w3.org/2000/svg" width="104" height="104" viewBox="0 0 104 104">
    <g fill="none" fill-rule="evenodd">
        <path d="M0 0h104v104H0z"/>
        <g transform="translate(24 8)">
            <path fill="#292C36" d="M27.848 0a6.684 6.684 0 0 1 6.684 6.684v6.683H31.19V6.684a3.342 3.342 0 1 0-6.684 0v6.683h-3.341V6.684A6.684 6.684 0 0 1 27.848 0z"/>
            <path fill="#FAFBFD" stroke="#797F84" stroke-width=".5" d="M6.277 17.823h43.142a4 4 0 0 1 4 4.045c-.159 13.917-.142 23.893.05 29.93.182 5.765.771 15.692 1.766 29.78A6 6 0 0 1 49.25 88H6.446A6 6 0 0 1 .46 81.577c.996-14.106 1.585-24.033 1.768-29.78.19-6.015.207-15.992.05-29.929a4 4 0 0 1 3.999-4.045z"/>
            <path fill="#F3F5F6" stroke="#797F84" stroke-width=".5" d="M11.694 13.367h32.308A4 4 0 0 1 48 17.198l.486 11.511c.28 6.621-4.862 12.216-11.483 12.496a12 12 0 0 1-.507.01H19.201c-6.628 0-12-5.372-12-12a12 12 0 0 1 .01-.506l.487-11.51a4 4 0 0 1 3.996-3.832z"/>
            <rect width="40.101" height="33.418" x="7.797" y="50.127" fill="#E5E7E9" stroke="#797F84" stroke-width=".5" rx="2"/>
            <path fill="#FAFBFD" stroke="#797F84" stroke-width=".5" d="M9.797 50.127H45.9a2 2 0 0 1 2 2v6.911H7.797v-6.911a2 2 0 0 1 2-2z"/>
            <path fill="#A1A5A9" stroke="#797F84" stroke-width=".5" d="M25.62 13.367h4.456V73.52a2.228 2.228 0 1 1-4.456 0V13.367z"/>
            <rect width="8.911" height="6.684" x="23.392" y="27.848" fill="#292C36" rx="1"/>
            <path fill="#292C36" d="M12.253 58.76h2.228V62.1a1.114 1.114 0 1 1-2.228 0V58.76z"/>
        </g>
    </g>
</svg>
