<svg xmlns="http://www.w3.org/2000/svg" width="102" height="89" viewBox="0 0 102 89">
    <g fill="none" fill-rule="evenodd">
        <path d="M-1-8h104V96H-1z"/>
        <g transform="translate(12)">
            <path fill="#292C36" d="M34.88 82.84h8.72v2.18a2.18 2.18 0 0 1-2.18 2.18h-4.36a2.18 2.18 0 0 1-2.18-2.18v-2.18z"/>
            <g fill="#FAFBFD" stroke="#797F84" stroke-width=".545">
                <path d="M17.713 4.633h1.635v9.265h-1.635zM32.973 4.633h1.635v9.265h-1.635z"/>
            </g>
            <rect width="52.32" height="69.76" y="13.08" fill="#DADADA" stroke="#797F84" stroke-width=".545" rx="4.36"/>
            <path fill="#292C36" d="M8.72 82.84h8.72v2.18a2.18 2.18 0 0 1-2.18 2.18H10.9a2.18 2.18 0 0 1-2.18-2.18v-2.18zM22.345 0h7.63a4.905 4.905 0 0 1 4.905 4.905H17.44A4.905 4.905 0 0 1 22.345 0z"/>
            <rect width="26.16" height="2.18" x="13.08" y="21.8" fill="#A1A5A9" rx="1.09"/>
            <rect width="26.16" height="1" x="13.08" y="25.615" fill="#A1A5A9" rx=".5"/>
            <rect width="26.16" height="1" x="13.08" y="27.795" fill="#A1A5A9" rx=".5"/>
            <rect width="26.16" height="1" x="13.08" y="29.975" fill="#A1A5A9" rx=".5"/>
            <rect width="34.88" height="39.24" x="8.72" y="34.88" fill="#E5E7E9" stroke="#797F84" stroke-width=".545" rx="6.54"/>
            <path fill="#FAFBFD" stroke="#797F84" stroke-width=".545" d="M15.26 34.65h21.8a6.54 6.54 0 0 1 6.54 6.54v2.18H8.72v-2.18a6.54 6.54 0 0 1 6.54-6.54z"/>
        </g>
        <g transform="translate(38 34)">
            <path fill="#FAFBFD" stroke="#797F84" stroke-width=".5" d="M20.601 2.943h1.962v3.924h-1.962zM40.221 2.943h1.962v3.924h-1.962z"/>
            <path fill="#292C36" stroke="#797F84" stroke-width=".5" d="M23.544 0H39.24a2.943 2.943 0 0 1 2.943 2.943H20.601A2.943 2.943 0 0 1 23.544 0z"/>
            <rect width="47.088" height="62.784" x="7.848" y="-.981" fill="#F3F5F6" stroke="#797F84" stroke-width=".5" rx="3.924" transform="rotate(90 31.392 30.411)"/>
            <path fill="#A1A5A9" stroke="#797F84" stroke-width=".5" d="M27.468 6.867h7.848v47.088h-7.848z"/>
            <path fill="#D8D8D8" stroke="#797F84" stroke-width=".5" d="M26.487 21.582h9.81c.542 0 .981.44.981.981v10.791a3.924 3.924 0 0 1-3.924 3.924H29.43a3.924 3.924 0 0 1-3.924-3.924V22.563c0-.542.44-.981.981-.981z"/>
            <rect width="17.658" height="3.924" x="22.563" y="25.506" fill="#292C36" rx=".981"/>
            <g stroke="#292C36" transform="rotate(-25 60.656 -92.957)">
                <path fill="#E5E7E9" stroke-width=".25" d="M1.962 0h3.924l1.962 3.434v8.338H0V3.434z"/>
                <circle cx="3.924" cy="2.943" r="1" fill="#FAFBFD" stroke-width=".5"/>
            </g>
            <path stroke="#292C36" stroke-linecap="square" stroke-width=".25" d="M41.202 7.358c0 1.962 4.905 1.471 6.377 2.452 1.471.981 2.452 2.453 1.962 8.829"/>
            <rect width="4.5" height="5.4" x="49.5" y="19.8" fill="#A1A5A9" rx=".9" transform="rotate(-25 51.75 22.5)"/>
        </g>
        <g transform="translate(1 42)">
            <path fill="#F3F5F6" stroke="#797F84" stroke-width=".55" d="M47.282 31.198v13.246c0 .795-.644 1.44-1.438 1.44H1.53a1.439 1.439 0 0 1-1.439-1.44V31.198c0-8.11 6.575-14.685 14.685-14.685h17.82c8.11 0 14.685 6.575 14.685 14.685z"/>
            <g stroke="#292C36" stroke-width=".25">
                <g transform="scale(-1 1) rotate(-25 38.841 61.445)">
                    <path fill="#E5E7E9" d="M1.08 0h2.157l1.08 1.888v4.587H0V1.888z"/>
                    <circle cx="2.158" cy="1.619" r="1"/>
                </g>
                <path stroke-linecap="square" d="M24.4 16.91c0 1.08-2.698.81-3.507 1.349-.81.54-1.349 1.349-1.08 4.856"/>
            </g>
            <rect width="15.84" height="1.32" x="15.51" y="31.04" fill="#797F84" rx=".36"/>
            <path fill="#A1A5A9" stroke="#797F84" stroke-linejoin="round" stroke-width=".55" d="M18.975 4.455c0-.99.825-4.455 4.455-4.455s4.62 3.465 4.62 4.455c0 .66.77 1.815 2.31 3.465 5.06 7.81 7.59 15.565 7.59 23.265V45.87h-5.28V31.185c0-7.7-2.09-15.455-6.27-23.265-.22-1.65-.66-2.805-.66-3.465 0-.99-.33-2.31-2.31-2.31s-2.31 1.32-2.31 2.31c0 .44-.165 1.595-.495 3.465-4.29 7.81-6.435 15.565-6.435 23.265V45.87H8.91V31.185c0-7.7 2.53-15.455 7.59-23.265 1.65-1.87 2.475-3.025 2.475-3.465z"/>
            <path fill="#292C36" d="M0 37.95a5.28 5.28 0 0 1 5.28 5.28v2.742H1.32A1.32 1.32 0 0 1 0 44.652V37.95zM47.371 37.95a5.28 5.28 0 0 0-5.28 5.28v2.742h3.96a1.32 1.32 0 0 0 1.32-1.32V37.95z"/>
        </g>
    </g>
</svg>
