<svg xmlns="http://www.w3.org/2000/svg" width="104" height="104" viewBox="0 0 104 104">
    <g fill="none" fill-rule="evenodd">
        <path d="M0 0h104v104H0z"/>
        <g transform="translate(16 7)">
            <path fill="#E5E7E9" stroke="#797F84" stroke-width=".5" d="M0 25.276h71.607v48.086c0 2.714-2.2 4.914-4.914 4.914H4.914A4.914 4.914 0 0 1 0 73.362V25.276z"/>
            <rect width="61.778" height="42.122" x="4.914" y="31.24" fill="#FAFBFD" rx="2.808"/>
            <path d="M51.248 45.281h15.445v14.041H51.248z"/>
            <path fill="#1EA4FF" d="M62.3 49.675a.19.19 0 0 1 0 .268l-2.347 2.347L62.3 54.64a.19.19 0 0 1 0 .268l-.725.725a.19.19 0 0 1-.268 0l-2.348-2.349-2.348 2.349a.19.19 0 0 1-.268 0l-.725-.725a.19.19 0 0 1 0-.268l2.348-2.349-2.348-2.347a.19.19 0 0 1 0-.268l.725-.725a.19.19 0 0 1 .268 0l2.348 2.348 2.348-2.348a.19.19 0 0 1 .268 0l.725.725z"/>
            <path stroke="#FAFBFD" stroke-width=".5" d="M20.109 45.031h15.945v14.541H20.109z"/>
            <path fill="#1EA4FF" d="M31.412 49.675a.19.19 0 0 1 0 .268l-2.348 2.347 2.348 2.349a.19.19 0 0 1 0 .268l-.725.725a.19.19 0 0 1-.268 0l-2.348-2.349-2.348 2.349a.19.19 0 0 1-.268 0l-.725-.725a.19.19 0 0 1 0-.268l2.348-2.349-2.348-2.347a.19.19 0 0 1 0-.268l.725-.725a.19.19 0 0 1 .268 0l2.348 2.348 2.348-2.348a.19.19 0 0 1 .268 0l.725.725z"/>
            <path d="M35.803 45.281h15.445v14.041H35.803z"/>
            <path fill="#1EA4FF" d="M46.856 49.675a.19.19 0 0 1 0 .268l-2.348 2.347 2.348 2.349a.19.19 0 0 1 0 .268l-.725.725a.19.19 0 0 1-.268 0l-2.348-2.349-2.348 2.349a.19.19 0 0 1-.268 0l-.724-.725a.19.19 0 0 1 0-.268l2.348-2.349-2.348-2.347a.19.19 0 0 1 0-.268l.724-.725a.19.19 0 0 1 .268 0l2.348 2.348 2.348-2.348a.19.19 0 0 1 .268 0l.725.725z"/>
            <g stroke="#797F84" stroke-width=".5">
                <path d="M7.722 31.24H20.36v42.122H7.722a2.808 2.808 0 0 1-2.808-2.808V34.048a2.808 2.808 0 0 1 2.808-2.808zM20.36 31.24h15.444v42.122H20.36z"/>
                <path d="M35.803 31.24h15.445v42.122H35.803zM51.248 31.24h12.636a2.808 2.808 0 0 1 2.809 2.808v36.506a2.808 2.808 0 0 1-2.809 2.808H51.248V31.24z"/>
                <path d="M7.722 31.24h56.162a2.808 2.808 0 0 1 2.809 2.808v11.233H4.914V34.048a2.808 2.808 0 0 1 2.808-2.808zM7.722 73.362h56.162a2.808 2.808 0 0 0 2.809-2.808V59.32H4.914v11.233a2.808 2.808 0 0 0 2.808 2.808z"/>
                <path d="M4.914 45.281h61.778v14.041H4.914z"/>
            </g>
            <ellipse cx="35.803" cy="86.349" fill="#A7E5FF" rx="35.803" ry="3.51"/>
            <g stroke-width=".5">
                <path fill="#FAFBFD" stroke="#797F84" d="M4.914 9.477h61.779c2.714 0 4.914 2.2 4.914 4.915v11.934H0V14.392c0-2.714 2.2-4.915 4.914-4.915z"/>
                <g stroke="#292C36" transform="translate(50.546)">
                    <circle cx="4.212" cy="14.743" r="4.212" fill="#FFF"/>
                    <rect width="5.616" height="16.849" x="1.404" fill="#0076CB" rx="2.808"/>
                </g>
                <g stroke="#292C36" transform="translate(12.636)">
                    <circle cx="4.212" cy="14.743" r="4.212" fill="#FFF"/>
                    <rect width="5.616" height="16.849" x="1.404" fill="#0076CB" rx="2.808"/>
                </g>
            </g>
        </g>
    </g>
</svg>
