<svg xmlns="http://www.w3.org/2000/svg" width="73" height="72" viewBox="0 0 73 72">
    <g fill="none" fill-rule="evenodd">
        <path d="M1 0h72v72H1z"/>
        <path d="M1 0h72v72H1z"/>
        <path fill="#A1A5A9" stroke="#A1A5A9" stroke-width=".3" d="M49.857 66a2.06 2.06 0 0 0 1.515-.676c.837-.901.837-2.362 0-3.263L27.173 36l24.2-26.06c.836-.902.836-2.363 0-3.264a2.036 2.036 0 0 0-3.031 0L22.628 34.368c-.837.901-.837 2.363 0 3.264l25.714 27.692c.418.45.967.676 1.515.676z"/>
    </g>
</svg>
