<svg xmlns="http://www.w3.org/2000/svg" width="105" height="104" viewBox="0 0 105 104">
    <g fill="none" fill-rule="evenodd">
        <path d="M1 0h104v104H1z"/>
        <path fill="#FAFBFD" stroke="#A1A5A9" stroke-width=".515" d="M24.18 16.18H44.9a2 2 0 0 1 2 2v44.35H22.18V18.18a2 2 0 0 1 2-2z"/>
        <g fill="#292C36" transform="translate(26.3 20.3)">
            <rect width="2.06" height="8.24" rx="1.03"/>
            <rect width="2.06" height="8.24" x="7.21" rx="1.03"/>
            <rect width="2.06" height="8.24" x="14.42" rx="1.03"/>
            <rect width="2.06" height="8.24" y="12.36" rx="1.03"/>
            <rect width="2.06" height="8.24" x="7.21" y="12.36" rx="1.03"/>
            <rect width="2.06" height="8.24" y="23.69" rx="1.03"/>
            <rect width="2.06" height="8.24" x="7.21" y="23.69" rx="1.03"/>
        </g>
        <path fill="#DADADA" stroke="#A1A5A9" stroke-width=".5" d="M19.09 54.29h21.63v10.3H16v-7.21a3.09 3.09 0 0 1 3.09-3.09z"/>
        <path fill="#E5E7E9" stroke="#A1A5A9" stroke-width=".5" d="M16 64.59h24.72v10.3H16z"/>
        <path fill="#DADADA" stroke="#A1A5A9" stroke-width=".5" d="M16 74.89h24.72v9.27H16z"/>
        <path fill="#E5E7E9" stroke="#A1A5A9" stroke-width=".5" d="M16 84.16h24.72v10.3H16z"/>
        <g stroke="#A1A5A9">
            <path fill="#F3F5F6" stroke-width=".515" d="M60.23 10h20.72a2 2 0 0 1 2 2v54.65H58.23V12a2 2 0 0 1 2-2z"/>
            <g fill="#FAFBFD" stroke-width=".25" transform="translate(61.32 14.12)">
                <rect width="18.54" height="4.12" rx="1.03"/>
                <rect width="18.54" height="4.12" y="49.44" rx="1.03"/>
                <rect width="18.54" height="4.12" y="8.24" rx="1.03"/>
                <rect width="18.54" height="4.12" y="16.48" rx="1.03"/>
                <rect width="18.54" height="4.12" y="24.72" rx="1.03"/>
                <rect width="18.54" height="4.12" y="32.96" rx="1.03"/>
                <rect width="18.54" height="4.12" y="41.2" rx="1.03"/>
            </g>
        </g>
        <path fill="#E5E7E9" stroke="#A1A5A9" stroke-width=".515" d="M62.35 64.59h23.69a4.12 4.12 0 0 1 4.12 4.12v25.75H58.23V68.71a4.12 4.12 0 0 1 4.12-4.12z"/>
        <path fill="#292C36" d="M76.77 77.722a6.18 6.18 0 0 1 6.18 6.18v10.3H70.59v-10.3a6.18 6.18 0 0 1 6.18-6.18z"/>
        <path fill="#F3F5F6" stroke="#A1A5A9" stroke-width=".515" d="M40.107 26.174l24.764 12.381c.349.175.569.531.569.922V94.46H38.66V27.068a1 1 0 0 1 1.447-.894z"/>
        <g fill="#A1A5A9" transform="translate(42.78 42.96)">
            <rect width="4.12" height="4.12" rx="1.03"/>
            <rect width="4.12" height="4.12" x="7.21" rx="1.03"/>
            <rect width="4.12" height="4.12" x="14.42" rx="1.03"/>
            <rect width="4.12" height="4.12" y="7.21" rx="1.03"/>
            <rect width="4.12" height="4.12" x="7.21" y="7.21" rx="1.03"/>
            <rect width="4.12" height="4.12" x="14.42" y="7.21" rx="1.03"/>
            <rect width="4.12" height="4.12" y="14.42" rx="1.03"/>
            <rect width="4.12" height="4.12" x="7.21" y="14.42" rx="1.03"/>
            <rect width="4.12" height="4.12" x="14.42" y="14.42" rx="1.03"/>
            <rect width="4.12" height="4.12" y="21.63" rx="1.03"/>
            <rect width="4.12" height="4.12" x="7.21" y="21.63" rx="1.03"/>
            <rect width="4.12" height="4.12" x="14.42" y="21.63" rx="1.03"/>
            <rect width="4.12" height="4.12" y="28.84" rx="1.03"/>
            <rect width="4.12" height="4.12" x="7.21" y="28.84" rx="1.03"/>
            <rect width="4.12" height="4.12" x="14.42" y="28.84" rx="1.03"/>
            <rect width="4.12" height="4.12" y="36.05" rx="1.03"/>
            <rect width="4.12" height="4.12" x="7.21" y="36.05" rx="1.03"/>
            <rect width="4.12" height="4.12" x="14.42" y="36.05" rx="1.03"/>
            <rect width="4.12" height="4.12" y="43.26" rx="1.03"/>
            <rect width="4.12" height="4.12" x="7.21" y="43.26" rx="1.03"/>
            <rect width="4.12" height="4.12" x="14.42" y="43.26" rx="1.03"/>
        </g>
    </g>
</svg>
