<svg xmlns="http://www.w3.org/2000/svg" width="68" height="51" viewBox="0 0 68 51">
    <g fill="none" fill-rule="evenodd">
        <path d="M-10-18h88v88h-88z" opacity=".202"/>
        <g fill-rule="nonzero">
            <path fill="#A7E5FF" d="M23.338 38.608c-10.934 0-19.8-2.256-19.8-4.57v5.328c.007 2.312 8.869 4.572 19.8 4.572 10.932 0 19.794-2.26 19.8-4.572v-5.328c0 2.314-8.865 4.57-19.8 4.57"/>
            <path fill="#1EA4FF" d="M6.585 36.38v5.326c.463.171.97.335 1.523.492v-5.327a21.37 21.37 0 0 1-1.523-.492M38.57 36.87v5.328c.552-.157 1.06-.321 1.522-.492V36.38c-.463.171-.97.335-1.523.492M10.392 37.424v5.328c.488.101.996.197 1.523.288V37.71a44.552 44.552 0 0 1-1.523-.287M34.762 37.711v5.33a46.446 46.446 0 0 0 1.523-.289v-5.328c-.488.1-.996.197-1.523.287M14.2 38.051v5.33a58.87 58.87 0 0 0 1.523.176v-5.33a62.416 62.416 0 0 1-1.523-.176M30.954 38.228v5.33c.52-.054 1.026-.114 1.523-.177v-5.33c-.497.065-1.003.124-1.523.177M18.008 38.424v5.33c.5.035 1.007.066 1.523.092v-5.331a71.935 71.935 0 0 1-1.523-.09M27.146 38.515v5.33a71.89 71.89 0 0 0 1.523-.09v-5.33c-.5.034-1.007.065-1.523.09M23.338 38.608c-.255 0-.508-.003-.761-.005v5.33a84.116 84.116 0 0 0 1.523 0v-5.33c-.253.002-.506.005-.762.005"/>
            <path stroke="#797F84" stroke-width=".5" d="M23.338 38.608c-10.934 0-19.8-2.256-19.8-4.57v5.328c.007 2.312 8.869 4.572 19.8 4.572 10.932 0 19.794-2.26 19.8-4.572v-5.328c0 2.314-8.865 4.57-19.8 4.57"/>
            <path fill="#E8F8FF" stroke="#797F84" stroke-width=".5" d="M43.138 34.137c0 2.313-8.865 4.47-19.8 4.47-10.934 0-19.8-2.157-19.8-4.47 0-2.313 8.866-3.906 19.8-3.906 10.935 0 19.8 1.593 19.8 3.906"/>
            <g>
                <path fill="#A7E5FF" d="M20.8 29.3C9.865 29.3 1 27.044 1 24.73v5.328c.006 2.313 8.868 4.573 19.8 4.573s19.794-2.26 19.8-4.573v-5.327c0 2.313-8.865 4.569-19.8 4.569"/>
                <path fill="#1EA4FF" d="M4.046 27.072v5.327c.463.17.97.335 1.523.492v-5.328a21.37 21.37 0 0 1-1.523-.491M36.03 27.563v5.328c.554-.157 1.06-.322 1.524-.492v-5.327c-.463.17-.97.334-1.523.49M7.854 28.116v5.328c.487.102.995.198 1.523.288v-5.328a44.552 44.552 0 0 1-1.523-.288M32.223 28.404v5.329a46.446 46.446 0 0 0 1.523-.289v-5.328c-.487.101-.995.197-1.523.288M11.662 28.743v5.33a58.87 58.87 0 0 0 1.523.176V28.92a62.416 62.416 0 0 1-1.523-.177M28.415 28.92v5.33c.52-.054 1.027-.113 1.523-.177v-5.33c-.496.065-1.002.124-1.523.178M15.47 29.116v5.33c.5.036 1.007.067 1.522.092v-5.33a71.935 71.935 0 0 1-1.523-.092M24.608 29.207v5.33a71.89 71.89 0 0 0 1.523-.09v-5.33c-.5.035-1.008.065-1.523.09M20.8 29.3c-.255 0-.509-.002-.762-.005v5.331a84.116 84.116 0 0 0 1.524 0v-5.33c-.253.002-.507.004-.762.004"/>
                <path stroke="#797F84" stroke-width=".5" d="M20.8 29.3C9.865 29.3 1 27.044 1 24.73v5.328c.006 2.313 8.868 4.573 19.8 4.573s19.794-2.26 19.8-4.573v-5.327c0 2.313-8.865 4.569-19.8 4.569"/>
                <path fill="#E8F8FF" stroke="#797F84" stroke-width=".5" d="M40.6 24.83c0 2.313-8.865 4.47-19.8 4.47S1 27.143 1 24.83c0-2.314 8.865-3.907 19.8-3.907s19.8 1.593 19.8 3.907"/>
            </g>
            <g>
                <path fill="#A7E5FF" d="M26.723 23.377c-10.935 0-19.8-2.256-19.8-4.57v5.328c.006 2.312 8.868 4.573 19.8 4.573s19.794-2.26 19.8-4.573v-5.327c0 2.313-8.865 4.569-19.8 4.569"/>
                <path fill="#1EA4FF" d="M9.97 21.149v5.327c.462.17.97.335 1.522.492V21.64a21.37 21.37 0 0 1-1.523-.491M41.954 21.64v5.328c.553-.157 1.06-.322 1.523-.492v-5.327c-.463.17-.97.334-1.523.49M13.777 22.193v5.328c.487.102.995.197 1.523.288v-5.328a44.552 44.552 0 0 1-1.523-.288M38.146 22.48v5.33a46.446 46.446 0 0 0 1.523-.289v-5.328c-.487.101-.995.197-1.523.288M17.585 22.82v5.33a58.87 58.87 0 0 0 1.523.176v-5.33a62.416 62.416 0 0 1-1.523-.176M34.338 22.998v5.329c.52-.054 1.027-.114 1.524-.177v-5.33c-.497.065-1.003.124-1.524.178M21.392 23.193v5.33c.5.035 1.008.067 1.523.092v-5.331a71.935 71.935 0 0 1-1.523-.09M30.53 23.284v5.33a71.89 71.89 0 0 0 1.524-.09v-5.33c-.5.034-1.008.065-1.523.09M26.723 23.377c-.255 0-.509-.002-.761-.005v5.331a84.116 84.116 0 0 0 1.523 0v-5.33c-.253.002-.507.004-.762.004"/>
                <path stroke="#797F84" stroke-width=".5" d="M26.723 23.377c-10.935 0-19.8-2.256-19.8-4.57v5.328c.006 2.312 8.868 4.573 19.8 4.573s19.794-2.26 19.8-4.573v-5.327c0 2.313-8.865 4.569-19.8 4.569"/>
                <path fill="#E8F8FF" stroke="#797F84" stroke-width=".5" d="M46.523 18.907c0 2.312-8.865 4.47-19.8 4.47s-19.8-2.158-19.8-4.47c0-2.314 8.865-3.907 19.8-3.907s19.8 1.593 19.8 3.907"/>
            </g>
            <g>
                <path fill="#A7E5FF" d="M20.8 15.762c-10.935 0-19.8-2.256-19.8-4.57v5.328c.006 2.312 8.868 4.572 19.8 4.572s19.794-2.26 19.8-4.572v-5.328c0 2.314-8.865 4.57-19.8 4.57"/>
                <path fill="#1EA4FF" d="M4.046 13.533v5.327c.463.17.97.335 1.523.492v-5.328a21.37 21.37 0 0 1-1.523-.49M36.03 14.024v5.328c.554-.157 1.06-.321 1.524-.492v-5.327c-.463.17-.97.335-1.523.491M7.854 14.577v5.329c.487.101.995.197 1.523.288v-5.329a44.552 44.552 0 0 1-1.523-.288M32.223 14.865v5.33a46.446 46.446 0 0 0 1.523-.29v-5.328c-.487.102-.995.198-1.523.288M11.662 15.205v5.33a58.87 58.87 0 0 0 1.523.176v-5.33a62.416 62.416 0 0 1-1.523-.176M28.415 15.382v5.33c.52-.055 1.027-.114 1.523-.177v-5.33c-.496.065-1.002.124-1.523.177M15.47 15.578v5.33c.5.035 1.007.066 1.522.091v-5.33a71.935 71.935 0 0 1-1.523-.091M24.608 15.669v5.33a71.89 71.89 0 0 0 1.523-.091v-5.33c-.5.035-1.008.066-1.523.09M20.8 15.762c-.255 0-.509-.003-.762-.005v5.33a84.116 84.116 0 0 0 1.524 0v-5.33c-.253.002-.507.005-.762.005"/>
                <path stroke="#797F84" stroke-width=".5" d="M20.8 15.762c-10.935 0-19.8-2.256-19.8-4.57v5.328c.006 2.312 8.868 4.572 19.8 4.572s19.794-2.26 19.8-4.572v-5.328c0 2.314-8.865 4.57-19.8 4.57"/>
                <path fill="#E8F8FF" stroke="#797F84" stroke-width=".5" d="M40.6 11.291c0 2.313-8.865 4.47-19.8 4.47S1 13.605 1 11.292c0-2.313 8.865-3.906 19.8-3.906s19.8 1.593 19.8 3.906"/>
            </g>
            <g>
                <path fill="#A7E5FF" d="M25.877 8.992c-10.935 0-19.8-2.255-19.8-4.569v5.328c.006 2.312 8.868 4.572 19.8 4.572s19.794-2.26 19.8-4.572V4.423c0 2.314-8.865 4.57-19.8 4.57"/>
                <path fill="#1EA4FF" d="M9.123 6.764v5.327c.463.17.97.335 1.523.492V7.255a21.37 21.37 0 0 1-1.523-.491M41.108 7.255v5.328c.553-.157 1.06-.321 1.523-.492V6.764c-.463.17-.97.334-1.523.491M12.93 7.808v5.329c.488.1.996.197 1.524.287V8.096a44.552 44.552 0 0 1-1.523-.288M37.3 8.096v5.33a46.446 46.446 0 0 0 1.523-.29V7.809c-.487.101-.995.197-1.523.288M16.738 8.436v5.329a58.87 58.87 0 0 0 1.524.177v-5.33a62.416 62.416 0 0 1-1.524-.176M33.492 8.613v5.33c.52-.055 1.027-.114 1.523-.177v-5.33c-.496.064-1.003.124-1.523.177M20.546 8.809v5.33c.5.035 1.008.066 1.523.091V8.9a71.935 71.935 0 0 1-1.523-.091M29.685 8.9v5.33a71.89 71.89 0 0 0 1.523-.091v-5.33c-.5.035-1.008.065-1.523.09M25.877 8.992c-.255 0-.509-.002-.762-.004v5.33a84.116 84.116 0 0 0 1.523 0v-5.33c-.252.002-.506.004-.761.004"/>
                <path stroke="#797F84" stroke-width=".5" d="M25.877 8.992c-10.935 0-19.8-2.255-19.8-4.569v5.328c.006 2.312 8.868 4.572 19.8 4.572s19.794-2.26 19.8-4.572V4.423c0 2.314-8.865 4.57-19.8 4.57"/>
                <path fill="#E8F8FF" stroke="#797F84" stroke-width=".5" d="M45.677 4.522c0 2.313-8.865 4.47-19.8 4.47s-19.8-2.157-19.8-4.47c0-2.313 8.865-3.907 19.8-3.907s19.8 1.594 19.8 3.907"/>
            </g>
            <g>
                <path fill="#A7E5FF" d="M47.03 45.377c-10.934 0-19.8-2.256-19.8-4.57v5.328c.007 2.312 8.869 4.573 19.8 4.573 10.933 0 19.795-2.26 19.8-4.573v-5.327c0 2.313-8.864 4.569-19.8 4.569"/>
                <path fill="#1EA4FF" d="M30.277 43.149v5.327c.463.17.97.335 1.523.492V43.64a21.37 21.37 0 0 1-1.523-.491M62.262 43.64v5.328c.552-.157 1.06-.322 1.523-.492v-5.327c-.463.17-.97.334-1.523.49M34.085 44.193v5.328c.487.101.995.197 1.523.288v-5.328a44.552 44.552 0 0 1-1.523-.288M58.454 44.48v5.33a46.446 46.446 0 0 0 1.523-.289v-5.328c-.487.101-.995.197-1.523.288M37.892 44.82v5.33a58.87 58.87 0 0 0 1.523.176v-5.33a62.416 62.416 0 0 1-1.523-.176M54.646 44.998v5.329c.52-.054 1.027-.114 1.523-.177v-5.33c-.496.065-1.003.124-1.523.178M41.7 45.193v5.33c.5.035 1.008.067 1.523.092v-5.331a71.935 71.935 0 0 1-1.523-.09M50.838 45.284v5.33a71.89 71.89 0 0 0 1.524-.09v-5.33c-.5.034-1.008.065-1.524.09M47.03 45.377c-.254 0-.508-.002-.76-.005v5.331a84.116 84.116 0 0 0 1.522 0v-5.33c-.253.002-.506.004-.761.004"/>
                <path stroke="#797F84" stroke-width=".5" d="M47.03 45.377c-10.934 0-19.8-2.256-19.8-4.57v5.328c.007 2.312 8.869 4.573 19.8 4.573 10.933 0 19.795-2.26 19.8-4.573v-5.327c0 2.313-8.864 4.569-19.8 4.569"/>
                <path fill="#E8F8FF" stroke="#797F84" stroke-width=".5" d="M66.83 40.907c0 2.312-8.864 4.47-19.8 4.47-10.934 0-19.8-2.158-19.8-4.47 0-2.314 8.866-3.907 19.8-3.907 10.936 0 19.8 1.593 19.8 3.907"/>
            </g>
            <g>
                <path fill="#A7E5FF" d="M42.8 38.608c-10.935 0-19.8-2.256-19.8-4.57v5.328c.006 2.312 8.868 4.572 19.8 4.572s19.794-2.26 19.8-4.572v-5.328c0 2.314-8.865 4.57-19.8 4.57"/>
                <path fill="#1EA4FF" d="M26.046 36.38v5.326c.463.171.97.335 1.523.492v-5.327a21.37 21.37 0 0 1-1.523-.492M58.03 36.87v5.328c.554-.157 1.06-.321 1.524-.492V36.38c-.463.171-.97.335-1.523.492M29.854 37.424v5.328c.487.101.995.197 1.523.288V37.71a44.552 44.552 0 0 1-1.523-.287M54.223 37.711v5.33a46.446 46.446 0 0 0 1.523-.289v-5.328c-.487.1-.995.197-1.523.287M33.662 38.051v5.33a58.87 58.87 0 0 0 1.523.176v-5.33a62.416 62.416 0 0 1-1.523-.176M50.415 38.228v5.33c.52-.054 1.027-.114 1.523-.177v-5.33c-.496.065-1.002.124-1.523.177M37.47 38.424v5.33c.5.035 1.007.066 1.522.092v-5.331a71.935 71.935 0 0 1-1.523-.09M46.608 38.515v5.33a71.89 71.89 0 0 0 1.523-.09v-5.33c-.5.034-1.008.065-1.523.09M42.8 38.608c-.255 0-.509-.003-.762-.005v5.33a84.116 84.116 0 0 0 1.524 0v-5.33c-.253.002-.507.005-.762.005"/>
                <path stroke="#797F84" stroke-width=".5" d="M42.8 38.608c-10.935 0-19.8-2.256-19.8-4.57v5.328c.006 2.312 8.868 4.572 19.8 4.572s19.794-2.26 19.8-4.572v-5.328c0 2.314-8.865 4.57-19.8 4.57"/>
                <path fill="#E8F8FF" stroke="#797F84" stroke-width=".5" d="M62.6 34.137c0 2.313-8.865 4.47-19.8 4.47S23 36.45 23 34.138c0-2.313 8.865-3.906 19.8-3.906s19.8 1.593 19.8 3.906"/>
            </g>
            <g>
                <path fill="#A7E5FF" d="M44.492 30.992c-10.935 0-19.8-2.255-19.8-4.569v5.328c.006 2.312 8.868 4.572 19.8 4.572s19.794-2.26 19.8-4.572v-5.328c0 2.314-8.865 4.57-19.8 4.57"/>
                <path fill="#1EA4FF" d="M27.738 28.764v5.327c.463.17.97.335 1.524.492v-5.328a21.37 21.37 0 0 1-1.524-.491M59.723 29.255v5.328c.553-.157 1.06-.321 1.523-.492v-5.327c-.463.17-.97.334-1.523.491M31.546 29.808v5.329c.488.1.995.197 1.523.287v-5.328a44.552 44.552 0 0 1-1.523-.288M55.915 30.096v5.33a46.446 46.446 0 0 0 1.523-.29v-5.328c-.487.101-.995.197-1.523.288M35.354 30.436v5.329a58.87 58.87 0 0 0 1.523.177v-5.33a62.416 62.416 0 0 1-1.523-.176M52.108 30.613v5.33c.52-.055 1.026-.114 1.523-.177v-5.33c-.497.064-1.003.124-1.523.177M39.162 30.809v5.33c.5.035 1.007.066 1.523.091V30.9a71.935 71.935 0 0 1-1.523-.091M48.3 30.9v5.33a71.89 71.89 0 0 0 1.523-.091v-5.33c-.5.035-1.007.065-1.523.09M44.492 30.992c-.255 0-.508-.002-.761-.004v5.33a84.116 84.116 0 0 0 1.523 0v-5.33c-.253.002-.507.004-.762.004"/>
                <path stroke="#797F84" stroke-width=".5" d="M44.492 30.992c-10.935 0-19.8-2.255-19.8-4.569v5.328c.006 2.312 8.868 4.572 19.8 4.572s19.794-2.26 19.8-4.572v-5.328c0 2.314-8.865 4.57-19.8 4.57"/>
                <path fill="#E8F8FF" stroke="#797F84" stroke-width=".5" d="M64.292 26.522c0 2.313-8.865 4.47-19.8 4.47s-19.8-2.157-19.8-4.47c0-2.313 8.865-3.907 19.8-3.907s19.8 1.594 19.8 3.907"/>
            </g>
        </g>
    </g>
</svg>
