<svg xmlns="http://www.w3.org/2000/svg" width="104" height="104" viewBox="0 0 104 104">
    <g fill="none" fill-rule="evenodd">
        <path d="M0 0h104v104H0z" opacity=".202"/>
        <path fill="#DADADA" stroke="#292C36" stroke-width=".5" d="M12.322 27.097C18.5 29.2 25.837 30.25 34.333 30.25 46 30.25 56.653 23 69.667 23c7.397 0 14.697 1.062 21.899 3.187A2 2 0 0 1 93 28.106v47.69a1 1 0 0 1-1.39.92C86.934 74.74 79.564 73.75 69.5 73.75c-16.689 0-21.167 7.25-35 7.25-8.908 0-16.52-1.127-22.836-3.382a1 1 0 0 1-.664-.942V28.044a1 1 0 0 1 1.322-.947z"/>
        <path fill="#F3F5F6" d="M16.197 32.686c6.545 1.315 12.646 1.973 18.303 1.973 11.666 0 21.987-6.659 35-6.659 7.334 0 13.6.812 18.798 2.437a1 1 0 0 1 .702.955v37.843a1 1 0 0 1-1.282.96c-4.05-1.191-10.123-1.753-18.218-1.687-16.687.137-21.167 6.992-35 6.992-8.243 0-14.525-.803-18.848-2.41a1 1 0 0 1-.652-.937V33.666a1 1 0 0 1 1.197-.98z"/>
        <path fill="#A1A5A9" fill-opacity=".106" d="M78.014 23.503c2.822.306 7.312 1.226 13.47 2.76A2 2 0 0 1 93 28.203V75.14a1 1 0 0 1-1.292.957C86.482 74.503 81.913 73.59 78 73.356l.014-49.853z"/>
        <g transform="translate(40 39)">
            <circle cx="12" cy="12" r="12" fill="#FAFBFD"/>
            <path fill="#E5E7E9" d="M12 24c6.627 0 12-5.373 12-12S18.627 0 12 0c2.667 3.582 4 7.582 4 12s-1.333 8.418-4 12z"/>
            <text fill="#292C36" font-family="Quicksand-SemiBold, Quicksand" font-size="21" font-weight="500" letter-spacing=".164">
                <tspan x="6.531" y="23">?</tspan>
            </text>
        </g>
    </g>
</svg>
