<svg xmlns="http://www.w3.org/2000/svg" width="20" height="20" viewBox="0 0 20 20">
    <g fill="none" fill-rule="evenodd" transform="matrix(1 0 0 -1 0 20)">
        <circle cx="10" cy="10" r="10" fill="#0088E3" transform="matrix(1 0 0 -1 0 20)"/>
        <g fill="#C2E6FF" fill-rule="nonzero">
            <path d="M14.513 10.462v.083c0 .417-.322.75-.726.75h-.5c.404 0 .726.334.726.75v.084c0 .416-.322.75-.726.75h-.677c.403 0 .726.333.726.75v.083c0 .417-.323.75-.726.75H9.997c-1.08 0-1.984-.667-2.306-1.583H6.9V8.545h.903s.693-.633 1.677-1.45c.742-.616 1.693-1.25 2.29-2.266.436-.734 2.323.583.194 3.283h1.339c.403 0 .725.333.725.75v.083c0 .417-.322.75-.725.75h.5c.403 0 .725.334.71.767zM4.965 8.529h1.274v4.366H4.965a.406.406 0 0 1-.403-.416V8.945c0-.233.177-.416.403-.416z"/>
        </g>
    </g>
</svg>
