<svg xmlns="http://www.w3.org/2000/svg" width="240" height="240" viewBox="0 0 240 240">
    <g fill="none" fill-rule="evenodd">
        <circle cx="120" cy="120" r="120" fill="#E8F8FF"/>
        <path d="M33 32h175v175H33z"/>
        <g transform="translate(70.44 53.242)">
            <ellipse cx="46.912" cy="135.763" fill="#292C36" stroke="#292C36" stroke-width=".5" rx="20.905" ry="7.839"/>
            <ellipse cx="46.912" cy="132.279" fill="#DADADA" stroke="#292C36" stroke-width=".5" rx="19.163" ry="6.968"/>
            <rect width="3.484" height="13.937" x="45.169" y="117.472" fill="#292C36" rx="1"/>
            <path fill="#70D5FF" fill-rule="nonzero" d="M1.328 102.032c12.097 10.456 27.52 16.31 43.841 16.31 37.042 0 67.07-30.028 67.07-67.07 0-19.322-8.219-37.326-22.331-49.97-1.952-1.528-3.51-1.711-4.67-.55-1.162 1.162-.768 2.643 1.182 4.443 13.017 11.662 20.593 28.256 20.593 46.078 0 34.155-27.688 61.843-61.844 61.843-15.054 0-29.267-5.395-40.423-15.038-1.505-1.008-2.838-.93-4 .23-1.161 1.162-.967 2.403.582 3.724z"/>
        </g>
        <g fill-rule="nonzero" transform="translate(61.606 50.51)">
            <circle cx="54.005" cy="54.005" r="54.005" fill="#F3F5F6" stroke="#A1A5A9" stroke-width=".5"/>
            <g fill="#0076CB">
                <path d="M77.99 28.501c-.71 2.182-3.276 3.134-5 4.327a31.673 31.673 0 0 1-7.302 4.122c-2.603.932-5.599 1.063-7.94 2.573-2.34 1.511-2.209 3.693-1.91 6.117a2.045 2.045 0 0 1-.411 1.716 2.161 2.161 0 0 1-2.36.13c-1.741-.708-3.276-1.864-5.205-1.062a4.613 4.613 0 0 0-2.771 4.308c0 3.972 3.445 6.154 6.197 8.374.787.652 4.345 4.438 2.229 5.315-.445.12-.916.101-1.349-.056a1469.003 1469.003 0 0 0-12.246-3.022c-3.407-.82-7.171-1.902-8.875-4.942-1.442-2.573-1.03-5.949-2.772-8.299-1.535-2.07-4.25-2.76-6.722-3.469-2.471-.708-5.15-1.883-6.067-4.27-1.498-3.935 2.79-8.15 1.742-12.235-.992-3.823-5.018-4.14-8.09-2.778a5.632 5.632 0 0 0-1.76 1.193l-.243-.242A54.123 54.123 0 0 1 38.911 1.907a11.91 11.91 0 0 0 9.382 5.353c3.145.149 6.272-1.1 9.212.745a4.165 4.165 0 0 1 1.985 4.644c-.861 2.406-4.456 3.6-4.232 6.136.188 2.014 2.828 2.872 4.794 2.406 1.966-.466 3.726-1.697 5.749-1.996 3.145-.447 6.067 1.492 8.65 3.339 2.023 1.454 4.3 3.618 3.54 5.967zM88.838 95.254a54.076 54.076 0 0 1-34.885 12.682c-2.847.005-5.69-.22-8.5-.671a28.341 28.341 0 0 1-2.585-1.604 7.676 7.676 0 0 1-3.614-5.744 8.788 8.788 0 0 1 1.274-4.01c.917-1.79.767-4.103 2.153-5.632 1.18-1.287 2.996-1.622 4.363-2.667a12.505 12.505 0 0 0 3.146-3.767c.93-2.25 2.11-4.39 3.52-6.378 2.434-2.555 6.46-1.51 9.231-.187a30.622 30.622 0 0 1 8.277 5.502 86.442 86.442 0 0 0 7.77 7.255c2.992 2.238 6.315 4 9.85 5.221z"/>
            </g>
        </g>
    </g>
</svg>
