<svg xmlns="http://www.w3.org/2000/svg" width="104" height="104" viewBox="0 0 104 104">
    <g fill="none" fill-rule="evenodd">
        <path d="M0 0h104v104H0z"/>
        <g transform="translate(22.25 12.624)">
            <ellipse cx="27.879" cy="80.682" fill="#292C36" stroke="#292C36" stroke-width=".5" rx="12.424" ry="4.659"/>
            <ellipse cx="27.879" cy="78.612" fill="#DADADA" stroke="#292C36" stroke-width=".5" rx="11.388" ry="4.141"/>
            <rect width="2.071" height="8.282" x="26.844" y="69.812" fill="#292C36" rx="1"/>
            <path fill="#70D5FF" fill-rule="nonzero" d="M.79 60.636a39.703 39.703 0 0 0 26.054 9.693c22.013 0 39.858-17.845 39.858-39.858 0-11.484-4.884-22.183-13.271-29.697-1.16-.908-2.085-1.017-2.776-.327-.69.69-.455 1.57.703 2.64 7.736 6.931 12.239 16.793 12.239 27.384 0 20.298-16.455 36.752-36.753 36.752A36.598 36.598 0 0 1 2.82 58.286c-.894-.598-1.686-.553-2.376.137-.69.69-.575 1.428.345 2.213z"/>
        </g>
        <g fill-rule="nonzero" transform="translate(17 11)">
            <circle cx="32.094" cy="32.094" r="32.094" fill="#F3F5F6" stroke="#A1A5A9" stroke-width=".5"/>
            <g fill="#0076CB">
                <path d="M46.349 16.938c-.423 1.297-1.948 1.862-2.972 2.571a18.823 18.823 0 0 1-4.34 2.45c-1.546.554-3.327.632-4.718 1.53-1.39.897-1.313 2.194-1.135 3.634.077.36-.013.734-.245 1.02-.41.302-.96.332-1.402.078-1.035-.421-1.947-1.109-3.093-.632a2.741 2.741 0 0 0-1.647 2.56c0 2.36 2.047 3.658 3.683 4.977.467.388 2.582 2.637 1.324 3.158-.264.072-.544.06-.801-.033a873.008 873.008 0 0 0-7.278-1.795c-2.025-.488-4.262-1.13-5.274-2.937-.857-1.53-.612-3.536-1.647-4.933-.913-1.23-2.526-1.64-3.995-2.061-1.47-.421-3.06-1.12-3.606-2.538-.89-2.339 1.658-4.844 1.035-7.27-.59-2.273-2.982-2.461-4.807-1.652-.39.168-.746.409-1.046.71l-.145-.145A32.165 32.165 0 0 1 23.125 1.133 7.078 7.078 0 0 0 28.7 4.314c1.87.089 3.727-.654 5.475.444a2.475 2.475 0 0 1 1.18 2.76c-.513 1.43-2.65 2.138-2.516 3.646.112 1.197 1.68 1.707 2.85 1.43 1.168-.278 2.214-1.009 3.415-1.186 1.87-.266 3.606.886 5.142 1.983 1.201.865 2.554 2.15 2.103 3.547zM52.795 56.608a32.137 32.137 0 0 1-20.731 7.537 31.596 31.596 0 0 1-5.052-.399 16.843 16.843 0 0 1-1.536-.953 4.562 4.562 0 0 1-2.148-3.414 5.223 5.223 0 0 1 .757-2.383c.545-1.064.456-2.438 1.28-3.347.7-.765 1.78-.964 2.593-1.585a7.431 7.431 0 0 0 1.869-2.238 19.289 19.289 0 0 1 2.092-3.79c1.447-1.52 3.84-.899 5.486-.112a18.198 18.198 0 0 1 4.919 3.27 51.371 51.371 0 0 0 4.618 4.311 21.482 21.482 0 0 0 5.853 3.103z"/>
            </g>
        </g>
    </g>
</svg>
