<svg xmlns="http://www.w3.org/2000/svg" width="477" height="399" viewBox="0 0 477 399">
    <g fill="none" fill-rule="evenodd" transform="translate(0 1)">
        <ellipse cx="239.43" cy="333.27" fill="#70D5FF" fill-opacity=".231" rx="203.55" ry="64.17"/>
        <path fill="#A7E5FF" stroke="#292C36" stroke-width=".69" d="M41.02 92.46h395.44c.402 0 .753.274.85.664l5.4 21.71a.875.875 0 0 1-.85 1.086H35.62a.875.875 0 0 1-.85-1.086l5.4-21.71a.875.875 0 0 1 .85-.664z"/>
        <path fill="#FAFBFD" stroke="#292C36" stroke-width=".69" d="M115.46 69.313l-5.73 261.61a.875.875 0 0 0 .875.895h26.961a.875.875 0 0 0 .875-.895l-5.73-261.61h-17.25z"/>
        <path fill="#292C36" stroke="#292C36" stroke-width=".69" d="M111.748 238.788l-2.018 92.135a.875.875 0 0 0 .875.895h26.961a.875.875 0 0 0 .875-.895l-2.021-92.27-24.672.135z"/>
        <path fill="#FAFBFD" stroke="#292C36" stroke-width=".69" d="M109.71 63.48h28.75v4.958a.875.875 0 0 1-.874.875h-27a.875.875 0 0 1-.876-.875V63.48z"/>
        <path fill="#292C36" d="M92.46 86.814h5.75v5.833h-5.75z"/>
        <path stroke="#292C36" stroke-width=".69" d="M93.895 86.469h4.257l16.682-5.737.123-5.014-21.062 10.75z"/>
        <path fill="#292C36" d="M155.71 86.814h-5.75v5.833h5.75z"/>
        <path stroke="#292C36" stroke-width=".69" d="M154.276 86.469h-4.257l-16.682-5.737-.123-5.014 21.062 10.75z"/>
        <g stroke="#292C36" stroke-width=".69">
            <path fill="#FAFBFD" d="M344.54 69.313l-5.73 261.61a.875.875 0 0 0 .875.895h26.961a.875.875 0 0 0 .875-.895l-5.73-261.61h-17.25z"/>
            <path fill="#292C36" d="M340.828 238.788l-2.018 92.135a.875.875 0 0 0 .875.895h26.961a.875.875 0 0 0 .875-.895l-2.021-92.27-24.672.135z"/>
            <path fill="#FAFBFD" d="M338.79 63.48h28.75v4.958a.875.875 0 0 1-.874.875h-27a.875.875 0 0 1-.876-.875V63.48z"/>
            <path fill="#292C36" d="M321.885 87.159h5.06v5.143h-5.06z"/>
            <path d="M322.975 86.469h4.257l16.682-5.737.123-5.014-21.062 10.75z"/>
            <path fill="#292C36" d="M384.446 87.159h-5.06v5.143h5.06z"/>
            <path d="M383.356 86.469H379.1l-16.682-5.737-.123-5.014 21.062 10.75z"/>
        </g>
        <path fill="#70D5FF" stroke="#292C36" stroke-width=".69" d="M34.5 40.02c88.91 7.82 156.503 11.73 202.781 11.73 46.278 0 114.845-3.91 205.699-11.73l-5.175 20.805a3.5 3.5 0 0 1-3.397 2.655H43.072a3.5 3.5 0 0 1-3.397-2.655L34.5 40.02z"/>
        <path fill="#F3F5F6" stroke="#292C36" stroke-width=".69" d="M23.222 13.815c94.425 6.571 145.643 9.857 215.518 9.857s121.2-3.29 215.727-9.872l21.898 25.818a.875.875 0 0 1-.604 1.44C370.674 48.645 291.667 52.44 238.74 52.44c-52.925 0-131.929-3.794-237.01-11.382a.875.875 0 0 1-.602-1.442l22.094-25.801z"/>
        <path fill="#A1A5A9" stroke="#292C36" stroke-width=".69" d="M239.282 11.537c81.045 0 157.1-3.701 228.165-11.105a.875.875 0 0 1 .84 1.324l-7.023 11.586c-74.413 6.77-148.407 11.391-221.982 11.496-73.423.105-147.263-4.487-221.52-11.408L10.571 1.51a.875.875 0 0 1 .842-1.322c70.87 7.566 146.826 11.35 227.869 11.35z"/>
        <rect width="34.5" height="46.92" x="222.18" y="57.96" fill="#FAFBFD" stroke="#292C36" stroke-width=".69" rx=".875"/>
        <rect width="23.46" height="34.5" x="227.7" y="63.48" fill="#DADADA" rx=".438"/>
        <g fill="#292C36" fill-opacity=".108" transform="translate(41.4 22.08)">
            <path d="M57.898 3.868l.884.727a.875.875 0 0 1 .108 1.244L48.311 18.22a.875.875 0 0 1-1.221.107l-.884-.728a.875.875 0 0 1-.108-1.244l10.579-12.38a.875.875 0 0 1 1.221-.106zM71.953 4.947l.934.666a.875.875 0 0 1 .196 1.233L63.41 19.919a.875.875 0 0 1-1.212.192l-.934-.667a.875.875 0 0 1-.195-1.233L70.74 5.138a.875.875 0 0 1 1.212-.191zM85.984 6.063l.981.602a.875.875 0 0 1 .28 1.215l-8.718 13.702a.875.875 0 0 1-1.196.276l-.982-.602a.875.875 0 0 1-.28-1.216L84.788 6.34a.875.875 0 0 1 1.196-.276zM43.818 2.824l.827.785a.875.875 0 0 1 .022 1.249L33.233 16.484a.875.875 0 0 1-1.226.022l-.828-.785a.875.875 0 0 1-.022-1.249L42.592 2.846a.875.875 0 0 1 1.226-.022zM29.708 1.814l.769.838a.875.875 0 0 1-.065 1.247L18.177 14.716a.875.875 0 0 1-1.224-.064l-.769-.838a.875.875 0 0 1 .066-1.247L28.484 1.75a.875.875 0 0 1 1.224.064zM99.994 5.786l1.024.534a.875.875 0 0 1 .364 1.192l-7.724 14.264a.875.875 0 0 1-1.174.36L91.46 21.6a.875.875 0 0 1-.364-1.192L98.82 6.145a.875.875 0 0 1 1.174-.36zM15.568.836l.706.887a.875.875 0 0 1-.152 1.24L3.147 12.915a.875.875 0 0 1-1.217-.15l-.706-.887a.875.875 0 0 1 .152-1.239L14.351.687a.875.875 0 0 1 1.217.15zM155.884 5.803l1.14.238a.875.875 0 0 1 .676 1.041l-3.42 15.797a.875.875 0 0 1-1.033.671l-1.14-.238a.875.875 0 0 1-.676-1.041l3.42-15.797a.875.875 0 0 1 1.033-.671zM169.834 6.45l1.154.16a.875.875 0 0 1 .747.99l-2.289 15.992a.875.875 0 0 1-.986.742l-1.154-.159a.875.875 0 0 1-.746-.99l2.288-15.992a.875.875 0 0 1 .986-.743zM183.78 6.425l1.164.08a.875.875 0 0 1 .813.935l-1.147 16.109a.875.875 0 0 1-.933.81l-1.163-.08a.875.875 0 0 1-.813-.934l1.147-16.11a.875.875 0 0 1 .933-.81zM141.928 5.914l1.12.315a.875.875 0 0 1 .602 1.088l-4.533 15.525a.875.875 0 0 1-1.078.596l-1.118-.315a.875.875 0 0 1-.603-1.087l4.533-15.525a.875.875 0 0 1 1.077-.597zM127.963 6.068l1.093.39a.875.875 0 0 1 .526 1.129l-5.626 15.177a.875.875 0 0 1-1.115.52l-1.092-.39a.875.875 0 0 1-.526-1.128l5.625-15.178a.875.875 0 0 1 1.115-.52z"/>
            <rect width="2.916" height="17.898" x="196.852" y="6.443" rx=".875"/>
            <path d="M113.986 5.549l1.06.463a.875.875 0 0 1 .447 1.163l-6.69 14.757a.875.875 0 0 1-1.148.44l-1.06-.463a.875.875 0 0 1-.447-1.163l6.69-14.757a.875.875 0 0 1 1.148-.44zM239.597 6.04l1.14-.237a.875.875 0 0 1 1.034.671l3.42 15.797a.875.875 0 0 1-.677 1.041l-1.14.238a.875.875 0 0 1-1.034-.671l-3.419-15.797a.875.875 0 0 1 .676-1.041zM253.574 6.23l1.119-.316a.875.875 0 0 1 1.077.597l4.533 15.525a.875.875 0 0 1-.602 1.087l-1.12.315a.875.875 0 0 1-1.076-.596L252.97 7.317a.875.875 0 0 1 .603-1.088zM267.565 6.459l1.093-.39a.875.875 0 0 1 1.115.52l5.625 15.177a.875.875 0 0 1-.526 1.128l-1.092.39a.875.875 0 0 1-1.115-.52L267.04 7.587a.875.875 0 0 1 .526-1.128zM225.633 6.61l1.154-.16a.875.875 0 0 1 .986.743l2.289 15.991a.875.875 0 0 1-.747.991l-1.154.16a.875.875 0 0 1-.986-.743L224.886 7.6a.875.875 0 0 1 .747-.99zM211.677 6.505l1.163-.08a.875.875 0 0 1 .933.81l1.147 16.11a.875.875 0 0 1-.813.935l-1.163.08a.875.875 0 0 1-.933-.811L210.864 7.44a.875.875 0 0 1 .813-.935zM281.574 6.012l1.06-.463a.875.875 0 0 1 1.148.44l6.691 14.757a.875.875 0 0 1-.446 1.163l-1.06.463a.875.875 0 0 1-1.148-.44l-6.691-14.757a.875.875 0 0 1 .446-1.163z"/>
            <rect width="2.916" height="17.898" x="196.852" y="6.443" rx=".875"/>
            <path d="M337.84 4.595l.883-.727a.875.875 0 0 1 1.221.106l10.58 12.38a.875.875 0 0 1-.11 1.244l-.882.728a.875.875 0 0 1-1.222-.107L337.73 5.84a.875.875 0 0 1 .11-1.244zM351.976 3.609l.828-.785a.875.875 0 0 1 1.225.022l11.435 11.626a.875.875 0 0 1-.022 1.249l-.828.785a.875.875 0 0 1-1.226-.022L351.954 4.858a.875.875 0 0 1 .022-1.249zM366.144 2.652l.769-.838a.875.875 0 0 1 1.224-.064l12.234 10.817a.875.875 0 0 1 .066 1.247l-.769.838a.875.875 0 0 1-1.224.064L366.21 3.899a.875.875 0 0 1-.066-1.247zM323.734 5.613l.934-.666a.875.875 0 0 1 1.212.191l9.672 13.073a.875.875 0 0 1-.195 1.233l-.934.667a.875.875 0 0 1-1.212-.192L323.54 6.846a.875.875 0 0 1 .195-1.233zM309.656 6.665l.981-.602a.875.875 0 0 1 1.196.276l8.72 13.701a.875.875 0 0 1-.281 1.216l-.982.602a.875.875 0 0 1-1.195-.276l-8.72-13.702a.875.875 0 0 1 .281-1.215zM380.347 1.723l.706-.887a.875.875 0 0 1 1.217-.15l12.975 9.954a.875.875 0 0 1 .152 1.24l-.706.886a.875.875 0 0 1-1.217.15L380.5 2.962a.875.875 0 0 1-.153-1.239zM295.604 6.32l1.023-.534a.875.875 0 0 1 1.175.359l7.723 14.264a.875.875 0 0 1-.364 1.192l-1.024.534a.875.875 0 0 1-1.174-.359l-7.724-14.264a.875.875 0 0 1 .365-1.192z"/>
        </g>
    </g>
</svg>
