<svg xmlns="http://www.w3.org/2000/svg" width="1440" height="456" viewBox="0 0 1440 456">
    <g fill="none" fill-rule="evenodd" opacity=".25">
        <g stroke="#797F84" stroke-width="1.5" transform="translate(148.206 132.182)">
            <path fill="#F3F5F6" d="M27.816 69.035L61.48 39.166a4.384 4.384 0 0 1 5.82 0l33.663 29.869a4.384 4.384 0 0 1 1.475 3.279v15.49H26.34v-15.49c0-1.254.537-2.447 1.475-3.28z"/>
            <ellipse cx="64.389" cy="38.048" fill="#FAFBFD" rx="5.854" ry="38.048"/>
            <path fill="#FAFBFD" d="M7.664 96.735l54.152-39.26a4.384 4.384 0 0 1 5.147 0l54.152 39.26a4.384 4.384 0 0 1 1.81 3.55v19.714H5.854v-19.715c0-1.405.673-2.725 1.81-3.55z"/>
            <rect width="52.682" height="30.731" x="38.048" y="73.17" fill="#FAFBFD" rx="2.923"/>
            <path fill="#FAFBFD" d="M2.923 119.999h122.933a2.923 2.923 0 0 1 2.923 2.922v199.026H0V122.921A2.923 2.923 0 0 1 2.923 120z"/>
            <path d="M26.337 158.047h76.105a2.923 2.923 0 0 1 2.923 2.923v160.977h-81.95V160.97a2.923 2.923 0 0 1 2.922-2.923z"/>
            <rect width="52.682" height="11.707" x="38.048" y="177.071" rx="1.461"/>
            <rect width="52.682" height="11.707" x="38.048" y="200.485" rx="1.461"/>
            <rect width="52.682" height="11.707" x="38.048" y="223.9" rx="1.461"/>
            <rect width="52.682" height="11.707" x="38.048" y="247.314" rx="1.461"/>
            <rect width="52.682" height="11.707" x="38.048" y="270.728" rx="1.461"/>
            <rect width="52.682" height="11.707" x="38.048" y="294.143" rx="1.461"/>
        </g>
        <g stroke="#797F84" stroke-width="1.5">
            <path fill="#FAFBFD" d="M381.448 141.422h8.785V454.59h-11.707V144.345a2.923 2.923 0 0 1 2.922-2.923z"/>
            <path fill="#E5E7E9" d="M407.794 141.422h36.585V454.59h-36.585z"/>
            <path fill="#FAFBFD" d="M416.57 112.154h19.032a2.923 2.923 0 0 1 2.923 2.923V454.59h-24.878V115.077a2.923 2.923 0 0 1 2.923-2.923zM461.94 141.422h8.784a2.923 2.923 0 0 1 2.923 2.923V454.59h-11.708V141.422zM393.156 125.325h11.715a2.923 2.923 0 0 1 2.923 2.923v326.341h-17.561V128.248a2.923 2.923 0 0 1 2.923-2.923z"/>
            <path fill="#FAFBFD" d="M447.301 125.325h11.716a2.923 2.923 0 0 1 2.922 2.923v326.341h-17.56V128.248a2.923 2.923 0 0 1 2.922-2.923z"/>
            <path d="M413.648 141.422h24.878v23.414h-24.878zM413.648 164.836h24.878v23.414h-24.878zM413.648 188.251h24.878v23.414h-24.878z"/>
            <path d="M413.648 211.665h24.878v23.414h-24.878zM413.648 235.08h24.878v23.413h-24.878zM413.648 258.494h24.878v23.414h-24.878zM413.648 281.908h24.878v23.414h-24.878zM413.648 305.322h24.878v23.414h-24.878zM413.648 328.737h24.878v23.414h-24.878zM413.648 352.151h24.878v23.414h-24.878zM413.648 375.566h24.878v23.414h-24.878zM413.648 398.98h24.878v23.414h-24.878zM413.648 422.394h24.878v23.414h-24.878z"/>
        </g>
        <g transform="translate(274.381 1)">
            <path fill="#ACDEFF" stroke="#797F84" stroke-width="1.5" d="M60.848 0c1.018 0 1.844.826 1.844 1.844v35.034h-3.688V1.844C59.004.826 59.83 0 60.848 0z"/>
            <path fill="#F3F5F6" stroke="#797F84" stroke-width="1.5" d="M47.94 123.77V96.545a.92.92 0 0 1 .63-.873l10.434-3.478V33.19l10.653 7.102a.92.92 0 0 1 .41.766v32.697l6.867 3.434a.92.92 0 0 1 .509.823v80.562H47.941V123.77z"/>
            <path fill="#FAFBFD" stroke="#797F84" stroke-width="1.5" d="M41.271 124.988l20.286-4.864a.92.92 0 0 1 1.135.896v29.97l17.699 3.543a.92.92 0 0 1 .74.902V437H40.565V125.883a.92.92 0 0 1 .706-.895z"/>
            <path fill="#ACDEFF" d="M40.565 162.261h9.22a1.844 1.844 0 0 1 0 3.688h-9.22v-3.688zM40.565 169.637h9.22a1.844 1.844 0 1 1 0 3.688h-9.22v-3.688zM40.565 177.013h9.22a1.844 1.844 0 1 1 0 3.687h-9.22v-3.687zM81.13 173.325h-9.219a1.844 1.844 0 1 0 0 3.688h9.22v-3.688zM81.13 180.7h-9.219a1.844 1.844 0 0 0 0 3.688h9.22V180.7zM81.13 188.076h-9.219a1.844 1.844 0 1 0 0 3.688h9.22v-3.688z"/>
            <rect width="121.696" height="16.595" y="437" fill="#E5E7E9" stroke="#797F84" stroke-width="1.5" rx="1.841"/>
            <path fill="#F3F5F6" stroke="#797F84" stroke-width="1.5" d="M71.14 210.381l20.285 3.38a.92.92 0 0 1 .769.91V437H70.067V211.29a.92.92 0 0 1 1.072-.909zM50.557 210.381l-20.286 3.38a.92.92 0 0 0-.769.91V437H51.63V211.29a.92.92 0 0 0-1.072-.909z"/>
            <path fill="#ACDEFF" d="M46.594 232.69l-14.823 2.965a2.25 2.25 0 0 0-1.808 2.206 1.512 1.512 0 0 0 1.808 1.482l14.823-2.965a2.25 2.25 0 0 0 1.808-2.205 1.512 1.512 0 0 0-1.808-1.482zM46.594 240.527l-14.823 2.965a2.25 2.25 0 0 0-1.808 2.205 1.512 1.512 0 0 0 1.808 1.482l14.823-2.964a2.25 2.25 0 0 0 1.808-2.206 1.512 1.512 0 0 0-1.808-1.482zM46.594 247.442l-14.823 2.964a2.25 2.25 0 0 0-1.808 2.206 1.512 1.512 0 0 0 1.808 1.482l14.823-2.965a2.25 2.25 0 0 0 1.808-2.205 1.512 1.512 0 0 0-1.808-1.482zM75.563 232.69l14.823 2.965a2.25 2.25 0 0 1 1.808 2.206 1.512 1.512 0 0 1-1.808 1.482l-14.823-2.965a2.25 2.25 0 0 1-1.808-2.205 1.512 1.512 0 0 1 1.808-1.482zM75.563 240.527l14.823 2.965a2.25 2.25 0 0 1 1.808 2.205 1.512 1.512 0 0 1-1.808 1.482l-14.823-2.964a2.25 2.25 0 0 1-1.808-2.206 1.512 1.512 0 0 1 1.808-1.482zM75.563 247.442l14.823 2.964a2.25 2.25 0 0 1 1.808 2.206 1.512 1.512 0 0 1-1.808 1.482l-14.823-2.965a2.25 2.25 0 0 1-1.808-2.205 1.512 1.512 0 0 1 1.808-1.482z"/>
            <path fill="#FAFBFD" stroke="#797F84" stroke-width="1.5" d="M43.181 289.668l-20.285 3.38a.92.92 0 0 0-.77.909V437h22.127V290.576a.92.92 0 0 0-1.072-.908zM78.515 289.668l20.285 3.38a.92.92 0 0 1 .77.909V437H77.443V290.576a.92.92 0 0 1 1.072-.908z"/>
            <path fill="#ACDEFF" d="M39.218 313.821l-14.822 2.965a2.25 2.25 0 0 0-1.808 2.205 1.512 1.512 0 0 0 1.808 1.483l14.822-2.965a2.25 2.25 0 0 0 1.808-2.205 1.512 1.512 0 0 0-1.808-1.483zM39.218 321.658l-14.822 2.964a2.25 2.25 0 0 0-1.808 2.206 1.512 1.512 0 0 0 1.808 1.482l14.822-2.964a2.25 2.25 0 0 0 1.808-2.206 1.512 1.512 0 0 0-1.808-1.482zM39.218 328.572l-14.822 2.965a2.25 2.25 0 0 0-1.808 2.205 1.512 1.512 0 0 0 1.808 1.483l14.822-2.965a2.25 2.25 0 0 0 1.808-2.205 1.512 1.512 0 0 0-1.808-1.483zM82.939 313.821l14.822 2.965a2.25 2.25 0 0 1 1.809 2.205 1.512 1.512 0 0 1-1.809 1.483l-14.822-2.965a2.25 2.25 0 0 1-1.808-2.205 1.512 1.512 0 0 1 1.808-1.483zM82.939 321.658l14.822 2.964a2.25 2.25 0 0 1 1.809 2.206 1.512 1.512 0 0 1-1.809 1.482l-14.822-2.964a2.25 2.25 0 0 1-1.808-2.206 1.512 1.512 0 0 1 1.808-1.482zM82.939 328.572l14.822 2.965a2.25 2.25 0 0 1 1.809 2.205 1.512 1.512 0 0 1-1.809 1.483L82.94 332.26a2.25 2.25 0 0 1-1.808-2.205 1.512 1.512 0 0 1 1.808-1.483z"/>
            <path fill="#F3F5F6" stroke="#797F84" stroke-width="1.5" d="M89.578 365.267l20.286 3.38a.92.92 0 0 1 .769.909V437H88.506v-70.825a.92.92 0 0 1 1.072-.908zM32.579 365.267l-20.285 3.38a.92.92 0 0 0-.77.909V437h22.127v-70.825a.92.92 0 0 0-1.072-.908z"/>
            <path fill="#ACDEFF" d="M28.616 380.201l-14.823 2.965a2.25 2.25 0 0 0-1.808 2.205 1.512 1.512 0 0 0 1.808 1.482l14.823-2.964a2.25 2.25 0 0 0 1.808-2.206 1.512 1.512 0 0 0-1.808-1.482zM28.616 388.038l-14.823 2.964a2.25 2.25 0 0 0-1.808 2.206 1.512 1.512 0 0 0 1.808 1.482l14.823-2.965a2.25 2.25 0 0 0 1.808-2.205 1.512 1.512 0 0 0-1.808-1.482zM28.616 394.952l-14.823 2.965a2.25 2.25 0 0 0-1.808 2.205 1.512 1.512 0 0 0 1.808 1.482l14.823-2.964a2.25 2.25 0 0 0 1.808-2.206 1.512 1.512 0 0 0-1.808-1.482zM94.002 380.201l14.823 2.965a2.25 2.25 0 0 1 1.808 2.205 1.512 1.512 0 0 1-1.808 1.482l-14.823-2.964a2.25 2.25 0 0 1-1.808-2.206 1.512 1.512 0 0 1 1.808-1.482zM94.002 388.038l14.823 2.964a2.25 2.25 0 0 1 1.808 2.206 1.512 1.512 0 0 1-1.808 1.482l-14.823-2.965a2.25 2.25 0 0 1-1.808-2.205 1.512 1.512 0 0 1 1.808-1.482zM94.002 394.952l14.823 2.965a2.25 2.25 0 0 1 1.808 2.205 1.512 1.512 0 0 1-1.808 1.482l-14.823-2.964a2.25 2.25 0 0 1-1.808-2.206 1.512 1.512 0 0 1 1.808-1.482z"/>
        </g>
        <g transform="translate(483.672 133.184)">
            <rect width="81.95" height="81.95" y="89.267" fill="#FAFBFD" stroke="#797F84" stroke-width="1.5" rx="2.923"/>
            <rect width="52.682" height="149.267" x="14.634" y="171.217" fill="#FAFBFD" stroke="#797F84" stroke-width="1.5" rx="2.923"/>
            <rect width="52.682" height="17.561" x="14.634" y="71.706" fill="#FAFBFD" stroke="#797F84" stroke-width="1.5" rx="2.923"/>
            <path fill="#FAFBFD" stroke="#797F84" stroke-width="1.5" d="M26.333 64.39h29.284a5.845 5.845 0 0 1 5.846 5.845v1.471H20.488v-1.471a5.845 5.845 0 0 1 5.845-5.846zM40.975 29.268c5.658 0 10.244 4.586 10.244 10.244v24.877H30.73V39.512c0-5.658 4.587-10.244 10.244-10.244z"/>
            <rect width="38.048" height="5.854" x="21.951" y="42.439" fill="#ACDEFF" rx="2.923"/>
            <path fill="#ACDEFF" d="M42.439 1.463v26.342a1.463 1.463 0 0 1-2.927 0V1.463a1.463 1.463 0 0 1 2.927 0z"/>
            <rect width="17.561" height="13.171" x="32.195" y="10.244" fill="#FAFBFD" stroke="#797F84" stroke-width="1.5" rx="1.461"/>
            <path fill="#ACDEFF" d="M14.634 203.412h52.682v5.854H14.634zM14.634 241.461h52.682v5.854H14.634zM14.634 279.509h52.682v5.854H14.634z"/>
            <g fill="#ACDEFF" transform="translate(21.951 174.144)">
                <rect width="2.927" height="26.341" rx="1.461"/>
                <rect width="2.927" height="26.341" x="8.78" rx="1.461"/>
                <rect width="2.927" height="26.341" x="17.561" rx="1.461"/>
                <rect width="2.927" height="26.341" x="26.341" rx="1.461"/>
                <rect width="2.927" height="26.341" x="35.122" rx="1.461"/>
            </g>
            <g fill="#ACDEFF" transform="translate(21.951 83.414)">
                <rect width="2.927" height="5.854" rx="1.461"/>
                <rect width="2.927" height="5.854" x="8.78" rx="1.461"/>
                <rect width="2.927" height="5.854" x="17.561" rx="1.461"/>
                <rect width="2.927" height="5.854" x="26.341" rx="1.461"/>
                <rect width="2.927" height="5.854" x="35.122" rx="1.461"/>
            </g>
            <g fill="#ACDEFF" transform="translate(21.951 212.193)">
                <rect width="2.927" height="26.341" rx="1.461"/>
                <rect width="2.927" height="26.341" x="8.78" rx="1.461"/>
                <rect width="2.927" height="26.341" x="17.561" rx="1.461"/>
                <rect width="2.927" height="26.341" x="26.341" rx="1.461"/>
                <rect width="2.927" height="26.341" x="35.122" rx="1.461"/>
            </g>
            <g fill="#ACDEFF" transform="translate(21.951 250.24)">
                <rect width="2.927" height="26.341" rx="1.461"/>
                <rect width="2.927" height="26.341" x="8.78" rx="1.461"/>
                <rect width="2.927" height="26.341" x="17.561" rx="1.461"/>
                <rect width="2.927" height="26.341" x="26.341" rx="1.461"/>
                <rect width="2.927" height="26.341" x="35.122" rx="1.461"/>
            </g>
            <g fill="#ACDEFF" transform="translate(21.951 288.29)">
                <rect width="2.927" height="26.341" rx="1.461"/>
                <rect width="2.927" height="26.341" x="8.78" rx="1.461"/>
                <rect width="2.927" height="26.341" x="17.561" rx="1.461"/>
                <rect width="2.927" height="26.341" x="26.341" rx="1.461"/>
                <rect width="2.927" height="26.341" x="35.122" rx="1.461"/>
            </g>
            <circle cx="40.975" cy="130.242" r="29.268" stroke="#797F84" stroke-width="1.5"/>
            <g fill="#ACDEFF" transform="translate(39.512 108.291)">
                <rect width="2.927" height="23.414" rx="1.461"/>
                <path d="M23.414 21.949v.004c0 .807-.654 1.461-1.461 1.461H1.461A1.461 1.461 0 0 1 0 21.953v-.004c0-.807.654-1.461 1.461-1.461h20.492c.807 0 1.461.654 1.461 1.46z"/>
            </g>
        </g>
        <path fill="#FAFBFD" stroke="#797F84" stroke-width="1.5" d="M1049.98 269.044l94.954-87.387a3.507 3.507 0 0 1 5.883 2.58v269.925h-105.365V279.367a14.03 14.03 0 0 1 4.529-10.323z"/>
        <g fill="#ACDEFF" transform="translate(1057.668 249.54)">
            <rect width="53.963" height="2.749" x="27.711" y="13.263" rx="1.374"/>
            <rect width="27.711" height="2.749" x="53.963" rx="1.374"/>
            <rect width="81.674" height="2.749" y="26.527" rx="1.374"/>
            <rect width="81.674" height="2.749" y="39.79" rx="1.374"/>
            <rect width="81.674" height="2.749" y="53.053" rx="1.374"/>
            <rect width="81.674" height="2.749" y="66.316" rx="1.374"/>
            <rect width="81.674" height="2.749" y="79.58" rx="1.374"/>
            <rect width="81.674" height="2.749" y="92.843" rx="1.374"/>
            <rect width="81.674" height="2.749" y="106.106" rx="1.374"/>
            <rect width="81.674" height="2.749" y="119.37" rx="1.374"/>
            <rect width="81.674" height="2.749" y="132.633" rx="1.374"/>
            <rect width="81.674" height="2.749" y="145.896" rx="1.374"/>
            <rect width="81.674" height="2.749" y="159.159" rx="1.374"/>
            <rect width="81.674" height="2.749" y="172.423" rx="1.374"/>
            <rect width="81.674" height="2.749" y="185.686" rx="1.374"/>
        </g>
        <g transform="translate(751.043 265.367)">
            <path fill="#FAFBFD" stroke="#797F84" stroke-width="1.5" d="M38.044 0h99.52a2.923 2.923 0 0 1 2.922 2.923v185.855H35.122V2.923A2.923 2.923 0 0 1 38.044 0z"/>
            <path fill="#F3F5F6" stroke="#797F84" stroke-width="1.5" d="M2.923 48.292h8.784v140.486H2.923A2.923 2.923 0 0 1 0 185.856V51.215a2.923 2.923 0 0 1 2.923-2.923zM11.707 48.292h11.707v140.486H11.707zM23.414 48.292h11.707v140.486H23.414zM140.486 48.292h11.707v140.486h-11.707zM152.193 48.292H163.9v140.486h-11.707zM163.9 48.292h8.785a2.923 2.923 0 0 1 2.923 2.923v137.563H163.9V48.292z"/>
            <rect width="81.95" height="11.707" x="46.829" y="10.244" stroke="#797F84" stroke-width="1.5" rx="1.461"/>
            <rect width="81.95" height="11.707" x="46.829" y="33.658" stroke="#797F84" stroke-width="1.5" rx="1.461"/>
            <rect width="81.95" height="11.707" x="46.829" y="57.072" stroke="#797F84" stroke-width="1.5" rx="1.461"/>
            <rect width="81.95" height="11.707" x="46.829" y="80.487" stroke="#797F84" stroke-width="1.5" rx="1.461"/>
            <rect width="81.95" height="11.707" x="46.829" y="103.901" stroke="#797F84" stroke-width="1.5" rx="1.461"/>
            <rect width="81.95" height="11.707" x="46.829" y="127.316" stroke="#797F84" stroke-width="1.5" rx="1.461"/>
            <rect width="81.95" height="26.341" x="46.829" y="162.437" stroke="#797F84" stroke-width="1.5" rx="1.461"/>
            <rect width="11.707" height="11.707" x="46.829" y="144.876" fill="#ACDEFF" rx="1.461"/>
            <rect width="11.707" height="11.707" x="117.072" y="144.876" fill="#ACDEFF" rx="1.461"/>
            <rect width="11.707" height="11.707" x="81.95" y="144.876" fill="#ACDEFF" rx="1.461"/>
            <rect width="11.707" height="11.707" x="99.511" y="144.876" fill="#ACDEFF" rx="1.461"/>
            <rect width="11.707" height="11.707" x="64.389" y="144.876" fill="#ACDEFF" rx="1.461"/>
        </g>
        <g transform="translate(550.765 255.353)">
            <path fill="#FAFBFD" stroke="#292C36" stroke-width="1.86" d="M35.67 55.61v15.73a2.012 2.012 0 0 1-4.024 0V55.61a2.012 2.012 0 0 1 4.024 0z"/>
            <path fill="#ACDEFF" d="M35.67 55.61v15.73a2.012 2.012 0 0 1-4.024 0V55.61a2.012 2.012 0 0 1 4.024 0z"/>
            <path fill="#FAFBFD" stroke="#797F84" stroke-width="1.5" d="M33.475 62.194c12.022 0 21.768 9.746 21.768 21.768v29.085H11.707V83.962c0-12.022 9.746-21.768 21.768-21.768z"/>
            <path fill="#ACDEFF" d="M25.792 92.194v13.536a2.012 2.012 0 1 1-4.024 0V92.194a2.012 2.012 0 1 1 4.024 0zM35.67 92.194v13.536a2.012 2.012 0 1 1-4.024 0V92.194a2.012 2.012 0 1 1 4.024 0zM45.548 92.194v13.536a2.012 2.012 0 1 1-4.024 0V92.194a2.012 2.012 0 1 1 4.024 0z"/>
            <rect width="58.902" height="3.293" x="4.024" y="84.511" fill="#ACDEFF" rx="1.646"/>
            <path fill="#FAFBFD" stroke="#292C36" stroke-width="1.86" d="M189.327 55.61v15.73a2.012 2.012 0 1 1-4.024 0V55.61a2.012 2.012 0 0 1 4.024 0z"/>
            <path fill="#ACDEFF" d="M189.327 55.61v15.73a2.012 2.012 0 1 1-4.024 0V55.61a2.012 2.012 0 0 1 4.024 0z"/>
            <path fill="#FAFBFD" stroke="#797F84" stroke-width="1.5" d="M187.498 62.194c12.022 0 21.768 9.746 21.768 21.768v29.085H165.73V83.962c0-12.022 9.746-21.768 21.768-21.768z"/>
            <rect width="17.561" height="4.024" x="168.839" y="97.499" fill="#ACDEFF" rx="2.012" transform="rotate(90 177.62 99.511)"/>
            <path fill="#ACDEFF" d="M189.51 92.743v13.536a2.012 2.012 0 1 1-4.024 0V92.743a2.012 2.012 0 1 1 4.024 0zM199.388 92.743v13.536a2.012 2.012 0 0 1-4.024 0V92.743a2.012 2.012 0 1 1 4.024 0z"/>
            <rect width="58.902" height="3.293" x="157.681" y="84.511" fill="#ACDEFF" rx="1.646"/>
            <path fill="#FAFBFD" stroke="#797F84" stroke-width="1.5" d="M109.755 118.901c28.287 0 51.219-22.877 51.219-51.098 0-18.849-10.23-35.331-25.453-44.188-9.77-5.684-18.094-13.191-24.972-22.521a.982.982 0 0 0-1.583.003c-6.823 9.333-15.13 16.84-24.919 22.518-15.255 8.849-25.511 25.315-25.511 44.188 0 28.22 22.931 51.098 51.219 51.098z"/>
            <path fill="#FAFBFD" stroke="#797F84" stroke-width="1.5" d="M135.445 23.528c-9.75-5.663-18.058-13.142-24.923-22.437a.982.982 0 0 0-1.582.004c-6.81 9.298-15.099 16.776-24.869 22.433-7.606 4.404 6.242 11.228 25.658 11.228s33.32-6.812 25.716-11.228zM109.932 118.901c24.474 0 44.931-17.215 49.944-40.243H60c5.033 23.001 25.478 40.243 49.933 40.243z"/>
            <path fill="#FAFBFD" stroke="#797F84" stroke-width="1.5" d="M67.316 96.218h84.877v16.463H67.316z"/>
            <path fill="#FAFBFD" stroke="#797F84" stroke-width="1.5" d="M78.658 111.218h62.926v87.804H78.658zM66.585 111.218h11.707v87.804H66.585zM141.584 111.218h11.707v87.804h-11.707z"/>
            <path fill="#FAFBFD" stroke="#797F84" stroke-width="1.5" d="M1.964 111.218H66.95v87.804H2.923A2.923 2.923 0 0 1 0 196.099v-82.917c0-1.084.88-1.964 1.964-1.964zM153.657 111.218h64.986c1.085 0 1.964.88 1.964 1.964V196.1a2.923 2.923 0 0 1-2.923 2.923h-64.027v-87.804zM100.253 130.933l9.93-6.544 9.687 6.517a30.934 30.934 0 0 1 13.665 25.666v42.45H86.34v-42.26a30.934 30.934 0 0 1 13.913-25.83z"/>
            <path fill="#FAFBFD" stroke="#797F84" stroke-width="1.5" d="M47.036 122.29l2.09-1.56 2.042 1.557a19.64 19.64 0 0 1 7.734 15.62v12.322c0 1.085-.88 1.964-1.964 1.964H41.11a1.964 1.964 0 0 1-1.964-1.964v-12.2a19.64 19.64 0 0 1 7.89-15.738zM47.036 161.437l2.09-1.56 2.042 1.556a19.64 19.64 0 0 1 7.734 15.62v12.322c0 1.085-.88 1.964-1.964 1.964H41.11a1.964 1.964 0 0 1-1.964-1.964v-12.2a19.64 19.64 0 0 1 7.89-15.738zM15.573 122.29l2.09-1.56 2.042 1.557a19.64 19.64 0 0 1 7.734 15.62v12.322c0 1.085-.88 1.964-1.964 1.964H9.647a1.964 1.964 0 0 1-1.964-1.964v-12.2a19.64 19.64 0 0 1 7.89-15.738zM15.573 161.437l2.09-1.56 2.042 1.556a19.64 19.64 0 0 1 7.734 15.62v12.322c0 1.085-.88 1.964-1.964 1.964H9.647a1.964 1.964 0 0 1-1.964-1.964v-12.2a19.64 19.64 0 0 1 7.89-15.738zM200.693 122.29l2.09-1.56 2.042 1.557a19.64 19.64 0 0 1 7.733 15.62v12.322c0 1.085-.879 1.964-1.964 1.964h-15.827a1.964 1.964 0 0 1-1.964-1.964v-12.2a19.64 19.64 0 0 1 7.89-15.738zM200.693 161.437l2.09-1.56 2.042 1.556a19.64 19.64 0 0 1 7.733 15.62v12.322c0 1.085-.879 1.964-1.964 1.964h-15.827a1.964 1.964 0 0 1-1.964-1.964v-12.2a19.64 19.64 0 0 1 7.89-15.738zM169.23 122.29l2.09-1.56 2.042 1.557a19.64 19.64 0 0 1 7.733 15.62v12.322c0 1.085-.879 1.964-1.964 1.964h-15.827a1.964 1.964 0 0 1-1.964-1.964v-12.2a19.64 19.64 0 0 1 7.89-15.738zM169.23 161.437l2.09-1.56 2.042 1.556a19.64 19.64 0 0 1 7.733 15.62v12.322c0 1.085-.879 1.964-1.964 1.964h-15.827a1.964 1.964 0 0 1-1.964-1.964v-12.2a19.64 19.64 0 0 1 7.89-15.738z"/>
        </g>
        <g transform="translate(908.261 41.056)">
            <path fill="#FFF" fill-rule="nonzero" stroke="#797F84" stroke-width="1.5" d="M41.234 273.655l-10.503 48.292 20.78-.76 7.025-45.466zM121.462 320.484h-19.333l-8.472-44.779 17.302-2.05zM127.604 342.792a400.985 400.985 0 0 0 24.155 65.446l1.462 3.422a.73.73 0 0 1-.671 1.018h-25.053c0-28.089-22.556-50.86-50.381-50.86s-50.381 22.771-50.381 50.86H1.234a.73.73 0 0 1-.641-1.082l1.84-3.358a431.978 431.978 0 0 0 24.154-65.446c.816-2.645 100.389-2.2 101.017 0z"/>
            <path fill="#FFF" fill-rule="nonzero" d="M67.316 68.78H86.34v11.707H67.316zM76.53 40.975h2.034c4.295 0 7.776 3.61 7.776 8.063v6.571H68.78v-6.665c.05-4.406 3.5-7.954 7.75-7.969z"/>
            <path fill="#FAFBFD" fill-rule="nonzero" stroke="#797F84" stroke-width="1.5" d="M83.576 80.487H69.729s-5.076 88.004-24.364 182.925h62.926A1508.569 1508.569 0 0 1 83.576 80.487zm-9.813 134.777a2.417 2.417 0 0 1 2.355-1.83c1.119 0 2.092.757 2.355 1.83l12.52 48.148H61.865l11.898-48.148z"/>
            <g fill="#ACDEFF" fill-rule="nonzero">
                <path d="M66.569 360.486l18.757-18.966 2.822 2.854-18.757 18.965z"/>
                <path d="M66.569 344.4l2.822-2.853 18.757 18.966-2.822 2.853zM43.953 360.487l18.756-18.965 2.822 2.853-18.756 18.965z"/>
                <path d="M45.824 346.281l2.822-2.853L65.531 360.5l-2.822 2.854zM89.208 360.502l18.756-18.965 2.822 2.853-18.756 18.965z"/>
                <path d="M87.828 344.069l2.893-2.87 19.226 19.08-2.893 2.87z"/>
            </g>
            <path fill="#FFF" fill-rule="nonzero" d="M109.76 276.602c3.94 16.824 6.695 27.274 11.67 43.788.746 2.484-11.945-44.922-11.67-43.788z"/>
            <path fill="#F3F5F6" fill-rule="nonzero" stroke="#585858" stroke-linejoin="round" d="M75.622 1.463h7.91c11.866 0 11.866 3.972 19.776 3.972 5.273 0 7.91-1.324 7.91-3.972v23.833c-.082 2.648-2.719 3.972-7.91 3.972-7.787 0-7.91-3.972-19.776-3.972h-7.91V1.463z"/>
            <path fill="#FFF" fill-rule="nonzero" d="M42.439 343.898l-4.39 19.025 4.39-19.025zM58.536 276.582l-11.707 43.902 11.707-43.902zM103.901 320.484l-11.707-43.902 11.707 43.902zM115.608 362.923l-5.853-19.025 5.853 19.025zM86.34 343.898l-19.024 19.025 19.024-19.025zM67.316 343.898l19.024 19.025-19.024-19.025zM62.926 343.898l-19.024 19.025 19.024-19.025zM43.902 343.898l19.024 19.025-19.024-19.025zM108.291 343.898l-19.024 19.025 19.024-19.025zM89.267 343.898l19.024 19.025-19.024-19.025z"/>
            <path fill="#ACDEFF" fill-rule="nonzero" d="M38.95 359.996h75.5l7.012 28.308-9.976-24.494H41.873l-9.678 25.454z"/>
            <path fill="#ACDEFF" fill-rule="nonzero" d="M38.588 362.026l4.67-19.074 3.955.901-4.67 19.074zM105.828 344.154l3.762-1.15 5.628 18.72-3.762 1.151z"/>
            <rect width="84.877" height="19.024" x="33.658" y="260.485" fill="#F3F5F6" stroke="#797F84" stroke-width="1.5" rx="1.461"/>
            <rect width="112.682" height="26.341" x="20.488" y="319.021" fill="#F3F5F6" stroke="#797F84" stroke-width="1.5" rx="1.461"/>
            <rect width="35.122" height="16.097" x="58.536" y="55.609" fill="#FAFBFD" stroke="#797F84" stroke-width="1.5" rx="1.461"/>
            <path fill="#ACDEFF" d="M76.828 0c1.213 0 2.195.983 2.195 2.195V42.44h-4.39V2.195C74.633.983 75.616 0 76.828 0z"/>
            <path fill="#FAFBFD" stroke="#797F84" stroke-width="1.5" d="M76.828 39.512a9.512 9.512 0 0 1 9.512 9.512v6.585H67.316v-6.585a9.512 9.512 0 0 1 9.512-9.512z"/>
            <path fill="#F3F5F6" stroke="#797F84" stroke-width="1.5" d="M62.926 71.706h27.805V84.88c0 .807-.655 1.461-1.462 1.461H64.387a1.461 1.461 0 0 1-1.46-1.46V71.705z"/>
        </g>
        <g transform="matrix(-1 0 0 1 1287.789 146.202)">
            <path fill="#FAFBFD" stroke="#797F84" stroke-width="1.5" d="M5.404 103.14L131.896 4.541a3.507 3.507 0 0 1 5.663 2.766v300.133H0V114.204a14.03 14.03 0 0 1 5.404-11.065z"/>
            <path fill="#ACDEFF" d="M121.511 49.716V281.11a1.374 1.374 0 0 1-2.749 0V49.716a1.374 1.374 0 1 1 2.75 0zM103.812 68.74v168.469a1.374 1.374 0 0 1-2.749 0V68.739a1.374 1.374 0 1 1 2.75 0zM82.593 80.447v156.762a1.374 1.374 0 0 1-2.749 0V80.447a1.374 1.374 0 1 1 2.749 0zM63.569 95.08V237.21a1.374 1.374 0 0 1-2.749 0V95.08a1.374 1.374 0 1 1 2.749 0z"/>
            <path fill="#ACDEFF" d="M63.569 95.08V237.21a1.374 1.374 0 0 1-2.749 0V95.08a1.374 1.374 0 1 1 2.749 0zM41.618 114.105v123.104a1.374 1.374 0 1 1-2.749 0V114.105a1.374 1.374 0 1 1 2.749 0zM21.862 130.202V281.11a1.374 1.374 0 0 1-2.749 0V130.202a1.374 1.374 0 1 1 2.749 0zM103.812 68.74v168.469a1.374 1.374 0 0 1-2.749 0V68.739a1.374 1.374 0 1 1 2.75 0z"/>
            <rect width="70.243" height="57.072" x="39.512" y="250.241" stroke="#797F84" stroke-width="1.5" rx="2.923"/>
            <rect width="8.78" height="8.78" x="86.34" y="275.119" fill="#ACDEFF" rx="1.461"/>
            <rect width="8.78" height="8.78" x="70.243" y="275.119" fill="#ACDEFF" rx="1.461"/>
            <rect width="8.78" height="8.78" x="54.146" y="275.119" fill="#ACDEFF" rx="1.461"/>
        </g>
        <g transform="translate(1254.743 41.056)">
            <rect width="184.388" height="14.634" y="398.044" fill="#FAFBFD" stroke="#797F84" stroke-width="1.5" rx="1.871"/>
            <path fill="#FAFBFD" stroke="#797F84" stroke-width="1.5" d="M9.188 386.337h164.55a1.87 1.87 0 0 1 1.87 1.87v9.837H7.317v-9.837a1.87 1.87 0 0 1 1.87-1.87z"/>
            <path fill="#F3F5F6" stroke="#797F84" stroke-width="1.5" d="M22.358 336.581h12.764v49.756H20.488v-47.885a1.87 1.87 0 0 1 1.87-1.87zM162.03 336.581h-12.763v49.756H163.9v-47.885a1.87 1.87 0 0 0-1.87-1.87z"/>
            <path fill="#FAFBFD" stroke="#797F84" stroke-width="1.5" d="M35.122 313.167h42.439v73.17H35.122zM108.291 313.167h40.975v73.17h-40.975z"/>
            <path fill="#FAFBFD" stroke="#797F84" stroke-width="1.5" d="M76.097 294.143h32.195v92.194H76.097z"/>
            <path fill="#F3F5F6" stroke="#797F84" stroke-width="1.5" d="M66.26 95.12h50.405a1.87 1.87 0 0 1 1.87 1.871v197.152H64.39V96.99a1.87 1.87 0 0 1 1.871-1.87z"/>
            <path fill="#FAFBFD" stroke="#797F84" stroke-width="1.5" d="M51.626 137.56h24.47v175.607h-26.34V139.43a1.87 1.87 0 0 1 1.87-1.87zM108.291 137.56h24.471a1.87 1.87 0 0 1 1.87 1.87v173.737h-26.34V137.559zM58.475 106.828h20.609c.775 0 1.403.628 1.403 1.403v27.925c0 .775-.628 1.403-1.403 1.403H57.072v-29.328c0-.775.629-1.403 1.403-1.403zM105.772 106.828h19.673a1.87 1.87 0 0 1 1.87 1.87v28.861h-21.543a1.87 1.87 0 0 1-1.87-1.87v-26.99a1.87 1.87 0 0 1 1.87-1.871zM70.65 73.17h41.624a1.87 1.87 0 0 1 1.871 1.87v20.08H68.78V75.04a1.87 1.87 0 0 1 1.87-1.87z"/>
            <path fill="#FAFBFD" stroke="#797F84" stroke-width="1.5" d="M86.096 30.731h12.196a1.87 1.87 0 0 1 1.863 1.7l3.746 40.739H80.487l3.746-40.74a1.87 1.87 0 0 1 1.863-1.699z"/>
            <path fill="#F3F5F6" stroke="#797F84" stroke-width="1.5" d="M127.723 286.826h19.673a1.87 1.87 0 0 1 1.87 1.87v24.471h-23.414v-24.47a1.87 1.87 0 0 1 1.87-1.871zM36.992 286.826h19.673a1.87 1.87 0 0 1 1.87 1.87v22.6a1.87 1.87 0 0 1-1.87 1.871H35.122v-24.47a1.87 1.87 0 0 1 1.87-1.871z"/>
            <path fill="#ACDEFF" d="M91.462 0a3.658 3.658 0 0 1 3.659 3.658v27.073h-7.317V3.658A3.658 3.658 0 0 1 91.462 0z"/>
        </g>
        <g transform="matrix(-1 0 0 1 148.206 147.203)">
            <path fill="#FAFBFD" stroke="#797F84" stroke-width="1.5" d="M5.791 103.023L142.236 4.038a3.507 3.507 0 0 1 5.567 2.84v300.435H0V114.38a14.03 14.03 0 0 1 5.791-11.356z"/>
            <path fill="#ACDEFF" d="M130.242 49.756v231.216a1.463 1.463 0 1 1-2.926 0V49.756a1.463 1.463 0 0 1 2.926 0zM111.95 69.511v168.291a1.463 1.463 0 1 1-2.927 0V69.512a1.463 1.463 0 1 1 2.927 0zM88.536 81.219v156.583a1.463 1.463 0 1 1-2.927 0V81.22a1.463 1.463 0 0 1 2.927 0zM68.048 95.853v141.95a1.463 1.463 0 0 1-2.927 0V95.852a1.463 1.463 0 1 1 2.927 0z"/>
            <path fill="#ACDEFF" d="M68.048 95.853v141.95a1.463 1.463 0 0 1-2.927 0V95.852a1.463 1.463 0 1 1 2.927 0zM45.365 114.145V237.07a1.463 1.463 0 0 1-2.926 0V114.145a1.463 1.463 0 1 1 2.926 0zM24.146 130.974v150.73a1.463 1.463 0 0 1-2.927 0v-150.73a1.463 1.463 0 1 1 2.927 0zM111.95 69.511v168.291a1.463 1.463 0 1 1-2.927 0V69.512a1.463 1.463 0 1 1 2.927 0z"/>
            <rect width="76.097" height="57.072" x="42.439" y="250.241" stroke="#797F84" stroke-width="1.5" rx="2.923"/>
            <rect width="8.78" height="8.78" x="93.657" y="275.119" fill="#ACDEFF" rx="1.461"/>
            <rect width="8.78" height="8.78" x="76.097" y="275.119" fill="#ACDEFF" rx="1.461"/>
            <rect width="8.78" height="8.78" x="58.536" y="275.119" fill="#ACDEFF" rx="1.461"/>
        </g>
    </g>
</svg>
