<svg xmlns="http://www.w3.org/2000/svg" width="24" height="24" viewBox="0 0 24 24">
    <path fill="#292C36" fill-rule="evenodd" d="M12 0a12 12 0 0 1 12 12c0 6.627-5.373 12-12 12S0 18.627 0 12 5.373 0 12 0zm0 1.92C6.433 1.92 1.92 6.433 1.92 12S6.433 22.08 12 22.08 22.08 17.567 22.08 12 17.567 1.92 12 1.92zm-.444 14.081a1.5 1.5 0 0 1 .214 2.972l-.133.027h-.276c-.081-.016-.162-.03-.24-.051A1.499 1.499 0 0 1 11.555 16zM11.59 6l.528.005.262.023a5.28 5.28 0 0 1 1.869.463c.523.23.97.595 1.289 1.053.243.362.393.773.438 1.2.051.37.02.745-.092 1.102a2.838 2.838 0 0 1-.702 1.137 7.96 7.96 0 0 1-1.212.952c-.243.16-.458.326-.686.493a1.39 1.39 0 0 0-.448.618c-.049.125-.105.25-.156.375a.902.902 0 0 1-.843.572 1.23 1.23 0 0 1-.613-.092.961.961 0 0 1-.55-.716c-.077-.43.027-.871.29-1.227.21-.293.467-.552.762-.769.317-.248.644-.484.969-.732a2.48 2.48 0 0 0 .664-.724 1.311 1.311 0 0 0-.17-1.505 1.326 1.326 0 0 0-.727-.385 2.42 2.42 0 0 0-1.129.019 1.36 1.36 0 0 0-.875.694c-.114.204-.213.413-.32.619a1.506 1.506 0 0 1-.312.419c-.226.189-.523.28-.822.252a1.178 1.178 0 0 1-.519-.134.853.853 0 0 1-.484-.764 2.176 2.176 0 0 1 .484-1.417A3.71 3.71 0 0 1 9.94 6.405c.435-.197.901-.325 1.38-.38l.27-.025z"/>
</svg>
