<svg xmlns="http://www.w3.org/2000/svg" xmlns:xlink="http://www.w3.org/1999/xlink" width="104" height="104" viewBox="0 0 104 104">
    <defs>
        <path id="a" d="M40.819 0c22.543 0 40.818 18.275 40.818 40.819v23.76H0v-23.76C0 18.275 18.275 0 40.819 0z"/>
    </defs>
    <g fill="none" fill-rule="evenodd">
        <path d="M0 0h104v104H0z"/>
        <g transform="translate(19.058 19)">
            <mask id="b" fill="#fff">
                <use xlink:href="#a"/>
            </mask>
            <use fill="#FAFBFD" xlink:href="#a"/>
            <g stroke="#797F84" stroke-width=".609" mask="url(#b)">
                <path d="M17.059-3.655h9.748v9.748h-9.748zM47.52-3.655h18.278v9.748H47.52zM40.21 6.093h20.714v9.748H40.21zM60.924 6.093h12.185v9.748H60.924zM1.219 15.84h7.31v9.748H1.22zM48.739 35.336h20.714v9.748H48.739z"/>
                <path d="M49.957 15.84H70.67v9.748H49.957zM70.67 15.84h10.967v9.748H70.67z"/>
                <path stroke-linejoin="round" d="M69.452 35.335h11.82c.243 2.03.365 4.071.365 6.115v3.633H69.452v-9.748z"/>
                <path d="M32.899 45.084h7.31v9.748H32.9zM60.924 45.084h20.714v9.748H60.924z"/>
                <path d="M70.67 54.83h10.967v9.749H70.67zM34.117 54.83h15.84v9.749h-15.84zM49.957 54.83H70.67v9.749H49.957z"/>
                <path d="M40.21 45.084h20.714v9.748H40.21zM28.025 35.336h20.714v9.748H28.025zM18.277 25.588H38.99v9.748H18.277zM29.244 15.84h20.714v9.748H29.244zM-1.218 25.588h19.495v9.748H-1.218zM38.99 25.588h20.715v9.748H38.99zM59.705 25.588h21.932v9.748H59.705zM8.53 15.84h20.714v9.748H8.53z"/>
                <path d="M19.496 6.093H40.21v9.748H19.496z"/>
                <path d="M6.093 6.093h13.403v9.748H6.093zM26.807-3.655H47.52v9.748H26.807z"/>
            </g>
        </g>
        <path stroke="#797F84" stroke-width=".5" d="M59.877 19c22.543 0 40.819 18.275 40.819 40.819v23.76H19.058v-23.76C19.058 37.275 37.334 19 59.877 19z"/>
        <path fill="#DADADA" d="M59.877 19c-19.09 8.935-28.634 21.323-28.634 37.163V83.58H19.058v-23.76C19.058 37.275 37.334 19 59.877 19z" opacity=".416"/>
        <path fill="#FAFBFD" stroke="#797F84" stroke-width=".609" d="M19.058 49.462h15.84c10.095 0 18.277 8.182 18.277 18.277v15.84H2V66.52C2 57.1 9.637 49.462 19.058 49.462z"/>
        <path fill="#E5E7E9" d="M19.058 49.462h7.311c10.094 0 18.277 8.182 18.277 18.277v15.84H2V66.52C2 57.1 9.637 49.462 19.058 49.462z"/>
        <path fill="#D8D8D8" fill-opacity=".172" d="M19.058 49.462h7.311c10.094 0 18.277 8.182 18.277 18.277v15.84H2V66.52C2 57.1 9.637 49.462 19.058 49.462z"/>
        <path stroke="#797F84" stroke-width=".609" d="M36.117 66.52h17.058v8.529H36.117z"/>
        <path stroke="#797F84" stroke-linejoin="round" stroke-width=".609" d="M20.277 49.462h14.907c5.904 0 11.41 2.978 14.64 7.92H33.68c-.406-.813-1.828-2.234-4.265-4.265-2.436-2.03-5.483-3.25-9.138-3.655z"/>
        <path stroke="#585858" stroke-width=".609" d="M19.058 54.335c6.73 0 12.185 5.456 12.185 12.185V83.58H6.873V66.52c0-6.73 5.456-12.185 12.185-12.185z"/>
        <path fill="#F3F5F6" stroke="#797F84" stroke-width=".609" d="M19.058 49.462c9.422 0 17.059 7.637 17.059 17.058V83.58H2V66.52C2 57.1 9.637 49.462 19.058 49.462z"/>
        <g stroke="#797F84" stroke-width=".609">
            <path fill="#A1A5A9" d="M19.058 54.335c6.73 0 12.185 5.456 12.185 12.185V83.58H6.873V66.52c0-6.73 5.456-12.185 12.185-12.185z"/>
            <path fill="#DADADA" d="M21.495 55.25a10.751 10.751 0 0 1 9.748 10.704v17.625H11.748V64.126a8.916 8.916 0 0 1 9.747-8.877z"/>
        </g>
    </g>
</svg>
