<svg xmlns="http://www.w3.org/2000/svg" width="375" height="149" viewBox="0 0 375 149">
    <g fill="none" fill-rule="evenodd">
        <g stroke="#292C36" stroke-width=".661" transform="translate(77 38)">
            <path fill="#E5E7E9" d="M9.305 23.69L20.53 13.477a1.506 1.506 0 0 1 2.027 0L33.78 23.69c.313.285.492.69.492 1.114v5.325H8.812v-5.325c0-.424.18-.829.493-1.114z"/>
            <ellipse cx="21.543" cy="13.056" fill="#FAFBFD" rx="1.958" ry="13.056"/>
            <path fill="#FAFBFD" d="M2.566 33.193L20.644 19.75a1.506 1.506 0 0 1 1.797 0L40.52 33.193c.382.284.608.732.608 1.209v6.775H1.958v-6.775c0-.477.226-.925.608-1.21z"/>
            <rect width="17.626" height="10.545" x="12.73" y="25.108" fill="#FAFBFD" rx="1.004"/>
            <path fill="#FAFBFD" d="M1.004 41.177h41.077c.554 0 1.004.45 1.004 1.004v68.294H0V42.18c0-.554.45-1.004 1.004-1.004z"/>
            <path d="M8.838 54.233h25.41c.554 0 1.003.45 1.003 1.004v55.238H7.834V55.237c0-.554.45-1.004 1.004-1.004z"/>
            <rect width="17.626" height="4.017" x="12.73" y="60.761" rx=".502"/>
            <rect width="17.626" height="4.017" x="12.73" y="68.796" rx=".502"/>
            <rect width="17.626" height="4.017" x="12.73" y="76.83" rx=".502"/>
            <rect width="17.626" height="4.017" x="12.73" y="84.865" rx=".502"/>
            <rect width="17.626" height="4.017" x="12.73" y="92.899" rx=".502"/>
            <rect width="17.626" height="4.017" x="12.73" y="100.934" rx=".502"/>
        </g>
        <g transform="translate(188 97.827)">
            <path fill="#292C36" d="M9.261.87v5.792a.494.494 0 0 1-.988 0V.87a.494.494 0 0 1 .988 0z"/>
            <path fill="#FAFBFD" stroke="#292C36" stroke-width=".661" d="M8.829 3.515a7.347 7.347 0 0 1 7.347 7.347v10.103H1.482V10.862a7.347 7.347 0 0 1 7.347-7.347z"/>
            <g fill="#292C36">
                <path d="M5.927 13.554v5.532a.247.247 0 0 1-.494 0v-5.532a.247.247 0 0 1 .494 0zM9.261 13.554v5.532a.247.247 0 0 1-.494 0v-5.532a.247.247 0 0 1 .494 0zM12.595 13.554v5.532a.247.247 0 0 1-.494 0v-5.532a.247.247 0 1 1 .494 0z"/>
            </g>
            <rect width="18.275" height="1" y="11.299" fill="#292C36" rx=".5"/>
        </g>
        <g transform="translate(235.046 97.827)">
            <path fill="#292C36" d="M9.632.87v5.792a.494.494 0 1 1-.988 0V.87a.494.494 0 0 1 .988 0z"/>
            <path fill="#FAFBFD" stroke="#292C36" stroke-width=".661" d="M9.2 3.515a7.347 7.347 0 0 1 7.346 7.347v10.103H1.852V10.862A7.347 7.347 0 0 1 9.2 3.515z"/>
            <g fill="#292C36">
                <path d="M6.05 13.303v5.532a.247.247 0 0 1-.493 0v-5.532a.247.247 0 0 1 .494 0zM9.385 13.303v5.532a.247.247 0 0 1-.494 0v-5.532a.247.247 0 0 1 .494 0zM12.719 13.303v5.532a.247.247 0 0 1-.494 0v-5.532a.247.247 0 1 1 .494 0z"/>
            </g>
            <rect width="18.275" height="1" y="11.299" fill="#292C36" rx=".5"/>
        </g>
        <path fill="#FAFBFD" stroke="#292C36" stroke-width=".661" d="M220.352 120.8c9.548 0 17.287-7.85 17.287-17.534 0-6.468-3.452-12.123-8.59-15.163-3.295-1.948-6.102-4.521-8.423-7.719a.338.338 0 0 0-.547.001c-2.301 3.199-5.103 5.772-8.404 7.718a17.564 17.564 0 0 0-8.61 15.163c0 9.684 7.74 17.534 17.287 17.534z"/>
        <path fill="#FAFBFD" stroke="#292C36" stroke-width=".661" d="M229.023 88.073c-3.288-1.941-6.09-4.504-8.405-7.69a.338.338 0 0 0-.547.001c-2.297 3.187-5.093 5.75-8.388 7.69-2.567 1.51 2.107 3.852 8.66 3.852 6.554 0 11.246-2.337 8.68-3.853zM220.412 120.8c8.26 0 15.165-5.907 16.857-13.81h-33.71c1.698 7.894 8.599 13.81 16.853 13.81z"/>
        <path fill="#FAFBFD" stroke="#292C36" stroke-width=".661" d="M206.028 113.017h28.648v5.649h-28.648z"/>
        <path fill="#FAFBFD" stroke="#292C36" stroke-width=".661" d="M209.856 118.164h21.239v30.129h-21.239zM205.781 118.164h3.951v30.129h-3.951zM231.095 118.164h3.951v30.129h-3.951z"/>
        <path fill="#FAFBFD" stroke="#292C36" stroke-width=".661" d="M190.157 118.164h15.748v30.13h-16.423v-29.455c0-.373.302-.675.675-.675zM235.17 118.164h15.748c.373 0 .675.302.675.675v29.454H235.17v-30.13zM217.162 125.043l3.335-2.234 3.253 2.226a10.63 10.63 0 0 1 4.628 8.773v14.61H212.45v-14.544a10.63 10.63 0 0 1 4.713-8.831z"/>
        <path fill="#FAFBFD" stroke="#292C36" stroke-width=".661" d="M197.09 121.96l.7-.532.684.53a6.749 6.749 0 0 1 2.615 5.335v4.256a.675.675 0 0 1-.675.675h-5.318a.675.675 0 0 1-.675-.675v-4.214c0-2.11.987-4.1 2.669-5.376zM197.09 135.392l.7-.531.684.53a6.749 6.749 0 0 1 2.615 5.335v4.256a.675.675 0 0 1-.675.675h-5.318a.675.675 0 0 1-.675-.675v-4.214c0-2.11.987-4.1 2.669-5.376zM242.778 121.96l.7-.532.684.53a6.749 6.749 0 0 1 2.615 5.335v4.256a.675.675 0 0 1-.675.675h-5.318a.675.675 0 0 1-.675-.675v-4.214c0-2.11.987-4.1 2.669-5.376zM242.778 135.392l.7-.531.684.53a6.749 6.749 0 0 1 2.615 5.335v4.256a.675.675 0 0 1-.675.675h-5.318a.675.675 0 0 1-.675-.675v-4.214c0-2.11.987-4.1 2.669-5.376z"/>
        <g transform="matrix(-1 0 0 1 40 50)">
            <path fill="#FAFBFD" stroke="#292C36" stroke-width=".661" d="M1.98 27.823L40.093.02v97.92H1.004C.45 97.94 0 97.492 0 96.937V31.718a4.82 4.82 0 0 1 1.98-3.895z"/>
            <path fill="#292C36" d="M29.337 19.829v54.246a.244.244 0 1 1-.49 0V19.829a.244.244 0 0 1 .49 0zM22.491 24.85v49.225a.244.244 0 1 1-.489 0V24.85a.244.244 0 1 1 .49 0zM14.913 31.127v42.697a.244.244 0 0 1-.49 0V31.127a.244.244 0 0 1 .49 0zM7.823 36.902v52.237a.244.244 0 0 1-.489 0V36.902a.244.244 0 1 1 .49 0zM37.16 15.811v58.264a.244.244 0 0 1-.49 0V15.81a.244.244 0 1 1 .49 0z"/>
            <rect width="25.914" height="19.584" x="14.179" y="78.337" stroke="#292C36" stroke-width=".661" rx="1.004"/>
            <rect width="2.934" height="7.532" x="31.292" y="84.362" fill="#292C36" rx=".502"/>
            <rect width="2.934" height="7.532" x="25.425" y="84.362" fill="#292C36" rx=".502"/>
            <rect width="2.934" height="7.532" x="19.558" y="84.362" fill="#292C36" rx=".502"/>
        </g>
        <g stroke="#292C36" stroke-width=".661">
            <path fill="#FAFBFD" d="M157.004 41.043h2.88v107.462H156V42.047c0-.554.45-1.004 1.004-1.004z"/>
            <path fill="#E5E7E9" d="M165.708 41.043h12.135v107.462h-12.135z"/>
            <path fill="#FAFBFD" d="M168.654 31h6.244c.555 0 1.004.45 1.004 1.004v116.5h-8.252v-116.5c0-.554.45-1.004 1.004-1.004zM183.669 41.043h2.879c.555 0 1.004.45 1.004 1.004v106.458h-3.883V41.043zM160.888 35.52h3.816c.555 0 1.004.45 1.004 1.004v111.98h-5.825V36.525c0-.555.45-1.005 1.005-1.005z"/>
            <path fill="#FAFBFD" d="M178.848 35.52h3.817c.554 0 1.004.45 1.004 1.004v111.98h-5.825V36.525c0-.555.45-1.005 1.004-1.005z"/>
            <path d="M167.65 41.043h8.252v8.035h-8.252zM167.65 49.078h8.252v8.035h-8.252z"/>
            <path d="M167.65 57.112h8.252v8.035h-8.252zM167.65 65.147h8.252v8.035h-8.252z"/>
            <path d="M167.65 73.181h8.252v8.035h-8.252zM167.65 81.216h8.252v8.035h-8.252z"/>
            <path d="M167.65 89.25h8.252v8.035h-8.252zM167.65 97.285h8.252v8.035h-8.252z"/>
            <path d="M167.65 105.319h8.252v8.035h-8.252zM167.65 113.354h8.252v8.035h-8.252z"/>
            <path d="M167.65 121.388h8.252v8.035h-8.252zM167.65 129.423h8.252v8.035h-8.252z"/>
            <path d="M167.65 137.457h8.252v8.035h-8.252z"/>
        </g>
        <g transform="translate(40)">
            <path fill="#292C36" d="M19.949 0c.27 0 .489.219.489.489v12.165h-.978V.49c0-.27.219-.489.489-.489z"/>
            <path fill="#E5E7E9" stroke="#292C36" stroke-width=".661" d="M16.018 35.441v-9.344c0-.135.086-.255.214-.3l3.482-1.191V4.359l3.559 2.436a.316.316 0 0 1 .138.261V18.28l2.292 1.177a.316.316 0 0 1 .172.281v27.647h-9.857V35.44z"/>
            <path fill="#FAFBFD" stroke="#292C36" stroke-width=".661" d="M13.794 35.858l6.76-1.665a.316.316 0 0 1 .392.307v10.281l5.908 1.215c.147.03.253.16.253.31v96.618H13.553V36.164c0-.145.1-.272.241-.306z"/>
            <path fill="#292C36" d="M13.553 51.722h3.66a.251.251 0 1 1 0 .502h-3.66v-.502zM13.553 49.714h3.66a.251.251 0 1 1 0 .502h-3.66v-.502zM13.553 53.71h3.66a.251.251 0 1 1 0 .503h-3.66v-.502zM26.892 52.726h-3.66a.251.251 0 1 0 0 .503h3.66v-.503zM26.892 54.735h-3.66a.251.251 0 1 0 0 .502h3.66v-.502zM26.892 56.744h-3.66a.251.251 0 1 0 0 .502h3.66v-.502z"/>
            <rect width="40.66" height="5.694" y="142.924" fill="#E5E7E9" stroke="#292C36" stroke-width=".661" rx=".633"/>
            <path fill="#F3F5F6" stroke="#292C36" stroke-width=".661" d="M23.78 65.163l6.76 1.157a.316.316 0 0 1 .263.312v76.292h-7.392v-77.45a.316.316 0 0 1 .37-.311zM16.88 65.163l-6.76 1.157a.316.316 0 0 0-.263.312v76.292h7.393v-77.45a.316.316 0 0 0-.37-.311z"/>
            <g fill="#292C36">
                <path d="M9.777 76.811l5.05-.914a.249.249 0 0 1 .29.202.253.253 0 0 1-.205.292l-5.05.915-.085-.495zM9.777 75.305l5.05-.915a.249.249 0 0 1 .29.203.253.253 0 0 1-.205.292l-5.05.914-.085-.494zM9.777 73.798l5.05-.914a.249.249 0 0 1 .29.202.253.253 0 0 1-.205.292l-5.05.915-.085-.495z"/>
            </g>
            <path fill="#FAFBFD" stroke="#292C36" stroke-width=".661" d="M14.416 92.37l-6.76 1.157a.316.316 0 0 0-.263.312v49.085h7.393V92.682a.316.316 0 0 0-.37-.312zM26.245 92.37l6.76 1.157a.316.316 0 0 1 .263.312v49.085h-7.393V92.682a.316.316 0 0 1 .37-.312z"/>
            <path fill="#F3F5F6" stroke="#292C36" stroke-width=".661" d="M29.941 118.311l6.76 1.157a.316.316 0 0 1 .263.312v23.144h-7.393v-24.3a.316.316 0 0 1 .37-.313zM10.873 118.311l-6.76 1.157a.316.316 0 0 0-.263.312v23.144h7.393v-24.3a.316.316 0 0 0-.37-.313z"/>
        </g>
        <g transform="translate(125 38)">
            <rect width="27.039" height="28.121" y="30.632" fill="#FAFBFD" stroke="#292C36" stroke-width=".661" rx="1.004"/>
            <rect width="17.382" height="50.718" x="4.828" y="58.752" fill="#FAFBFD" stroke="#292C36" stroke-width=".661" rx="1.004"/>
            <rect width="17.382" height="6.026" x="4.828" y="24.606" fill="#FAFBFD" stroke="#292C36" stroke-width=".661" rx="1.004"/>
            <path fill="#FAFBFD" stroke="#292C36" stroke-width=".661" d="M8.768 22.095h9.503c1.11 0 2.008.9 2.008 2.009v.502H6.76v-.502c0-1.11.9-2.01 2.01-2.01z"/>
            <path fill="#FAFBFD" stroke="#292C36" stroke-width=".661" d="M13.52 10.043a3.38 3.38 0 0 1 3.38 3.38v8.672h-6.76v-8.672a3.38 3.38 0 0 1 3.38-3.38z"/>
            <rect width="9.657" height="1.004" x="8.691" y="15.065" fill="#292C36" rx=".502"/>
            <path fill="#292C36" d="M14.002.483V9.56a.483.483 0 0 1-.965 0V.483a.483.483 0 0 1 .965 0z"/>
            <rect width="5.794" height="4.519" x="10.623" y="3.515" fill="#FAFBFD" stroke="#292C36" stroke-width=".661" rx=".502"/>
            <path fill="#292C36" d="M4.828 70.302H22.21v1.004H4.828zM4.828 83.358H22.21v1.004H4.828z"/>
            <g fill="#292C36" transform="translate(7.243 85.869)">
                <rect width="1" height="9.039" x=".241" rx=".5"/>
                <rect width="1" height="9.039" x="3.138" rx=".5"/>
                <rect width="1" height="9.039" x="6.036" rx=".5"/>
                <rect width="1" height="9.039" x="8.933" rx=".5"/>
                <rect width="1" height="9.039" x="11.83" rx=".5"/>
            </g>
            <path fill="#292C36" d="M4.828 96.414H22.21v1.004H4.828z"/>
            <g fill="#292C36" transform="translate(7.243 98.925)">
                <rect width="1" height="9.039" x=".241" rx=".5"/>
                <rect width="1" height="9.039" x="3.138" rx=".5"/>
                <rect width="1" height="9.039" x="6.036" rx=".5"/>
                <rect width="1" height="9.039" x="8.933" rx=".5"/>
                <rect width="1" height="9.039" x="11.83" rx=".5"/>
            </g>
            <g fill="#292C36" transform="translate(7.243 59.757)">
                <rect width="1" height="9.039" x=".241" rx=".5"/>
                <rect width="1" height="9.039" x="3.138" rx=".5"/>
                <rect width="1" height="9.039" x="6.036" rx=".5"/>
                <rect width="1" height="9.039" x="8.933" rx=".5"/>
                <rect width="1" height="9.039" x="11.83" rx=".5"/>
            </g>
            <g fill="#292C36" transform="translate(7.243 72.813)">
                <rect width="1" height="9.039" x=".241" rx=".5"/>
                <rect width="1" height="9.039" x="3.138" rx=".5"/>
                <rect width="1" height="9.039" x="6.036" rx=".5"/>
                <rect width="1" height="9.039" x="8.933" rx=".5"/>
                <rect width="1" height="9.039" x="11.83" rx=".5"/>
            </g>
            <g fill="#292C36" transform="translate(7.243 28.623)">
                <rect width="1" height="2.009" rx=".5"/>
                <rect width="1" height="2.009" x="2.897" rx=".5"/>
                <rect width="1" height="2.009" x="5.794" rx=".5"/>
                <rect width="1" height="2.009" x="8.691" rx=".5"/>
                <rect width="1" height="2.009" x="11.588" rx=".5"/>
            </g>
            <ellipse cx="13.52" cy="44.692" stroke="#292C36" stroke-width=".661" rx="9.657" ry="10.043"/>
            <g fill="#292C36" transform="translate(13.037 37.16)">
                <rect width="1" height="8.035" rx=".5"/>
                <path d="M7.725 7.532a.502.502 0 0 1-.502.503H.503a.502.502 0 0 1 0-1.005h6.72c.278 0 .502.225.502.502z"/>
            </g>
        </g>
        <g>
            <path fill="#FAFBFD" stroke="#292C36" stroke-width=".661" d="M297.564 86.694L329.04 57.85a1.205 1.205 0 0 1 2.02.889v89.339H296v-57.83a4.82 4.82 0 0 1 1.564-3.554z"/>
            <g fill="#292C36" transform="translate(300.065 80.284)">
                <rect width="17.956" height="1" x="9.221" y="4.394" rx=".5"/>
                <rect width="9.221" height="1" x="17.956" rx=".5"/>
                <rect width="27.177" height="1" y="8.789" rx=".5"/>
                <rect width="27.177" height="1" y="13.183" rx=".5"/>
                <rect width="27.177" height="1" y="17.577" rx=".5"/>
                <rect width="27.177" height="1" y="21.971" rx=".5"/>
                <rect width="27.177" height="1" y="26.366" rx=".5"/>
                <rect width="27.177" height="1" y="30.76" rx=".5"/>
                <rect width="27.177" height="1" y="35.154" rx=".5"/>
                <rect width="27.177" height="1" y="39.549" rx=".5"/>
                <rect width="27.177" height="1" y="43.943" rx=".5"/>
                <rect width="27.177" height="1" y="48.337" rx=".5"/>
                <rect width="27.177" height="1" y="52.731" rx=".5"/>
                <rect width="27.177" height="1" y="57.126" rx=".5"/>
                <rect width="27.177" height="1" y="61.52" rx=".5"/>
            </g>
        </g>
        <g transform="translate(250 7)">
            <path fill="#FFF" fill-rule="nonzero" stroke="#292C36" stroke-width=".661" d="M13.855 93.903l-3.53 16.572 6.983-.261 2.36-15.602zM40.81 109.972h-6.495l-2.846-15.365 5.813-.704zM42.874 117.627a139.474 139.474 0 0 0 8.116 22.458l.492 1.175a.251.251 0 0 1-.231.348h-8.413c0-9.638-7.578-17.452-16.927-17.452-9.35 0-16.928 7.814-16.928 17.452H.42a.251.251 0 0 1-.222-.37l.62-1.153a150.256 150.256 0 0 0 8.115-22.458c.274-.907 33.73-.754 33.941 0z"/>
            <path fill="#FFF" fill-rule="nonzero" d="M22.618 23.601h6.392v4.017h-6.392zM25.714 14.06h.683c1.443 0 2.613 1.24 2.613 2.767v2.255h-5.9v-2.287c.016-1.512 1.176-2.73 2.604-2.735z"/>
            <path fill="#FAFBFD" fill-rule="nonzero" stroke="#292C36" stroke-width=".661" d="M28.081 27.619H23.43s-1.706 30.198-8.186 62.77h21.142a528.066 528.066 0 0 1-8.304-62.77zm-3.297 46.248a.815.815 0 0 1 .791-.628c.376 0 .703.26.792.628l4.206 16.521h-9.787l3.998-16.521z"/>
            <g fill="#292C36" fill-rule="nonzero">
                <path d="M22.367 123.699l6.302-6.508.948.979-6.302 6.508z"/>
                <path d="M22.367 118.18l.948-.98 6.302 6.508-.948.98zM14.768 123.7l6.302-6.509.948.98-6.302 6.507z"/>
                <path d="M15.397 118.824l.948-.979 5.673 5.859-.948.979zM29.973 123.704l6.303-6.507.948.979-6.302 6.507z"/>
                <path d="M29.51 118.065l.972-.985 6.46 6.548-.972.985z"/>
            </g>
            <path fill="#FFF" fill-rule="nonzero" d="M36.879 94.915c1.324 5.773 2.25 9.359 3.921 15.025.25.853-4.013-15.415-3.921-15.025z"/>
            <path fill="#E5E7E9" fill-rule="nonzero" stroke="#292C36" stroke-linejoin="round" stroke-width=".661" d="M25.409.502h2.658c3.986 0 3.986 1.363 6.644 1.363 1.772 0 2.658-.454 2.658-1.363V8.68c-.028.909-.914 1.363-2.658 1.363-2.616 0-2.658-1.363-6.644-1.363h-2.658V.502z"/>
            <path fill="#FFF" fill-rule="nonzero" d="M14.26 118.007l-1.476 6.528 1.475-6.528zM19.668 94.908l-3.934 15.064 3.934-15.064zM34.91 109.972l-3.933-15.064 3.933 15.064zM38.844 124.535l-1.967-6.528 1.967 6.528zM29.01 118.007l-6.392 6.528 6.392-6.528zM22.618 118.007l6.392 6.528-6.392-6.528zM21.143 118.007l-6.392 6.528 6.392-6.528zM14.75 118.007l6.393 6.528-6.392-6.528zM36.385 118.007l-6.392 6.528 6.392-6.528zM29.993 118.007l6.392 6.528-6.392-6.528z"/>
            <path fill="#292C36" fill-rule="nonzero" d="M13.087 123.53h25.367l2.357 9.715-3.352-8.406h-23.39l-3.252 8.735z"/>
            <path fill="#292C36" fill-rule="nonzero" d="M12.965 124.227l1.57-6.545 1.328.31-1.569 6.544zM35.558 118.095l1.264-.395 1.89 6.424-1.263.395z"/>
            <rect width="28.518" height="6.528" x="11.309" y="89.384" fill="#E5E7E9" stroke="#292C36" stroke-width=".661" rx=".502"/>
            <rect width="37.861" height="9.039" x="6.884" y="109.47" fill="#E5E7E9" stroke="#292C36" stroke-width=".661" rx=".502"/>
            <rect width="11.801" height="5.524" x="19.668" y="19.082" fill="#FAFBFD" stroke="#292C36" stroke-width=".661" rx=".502"/>
            <path fill="#292C36" stroke="#292C36" stroke-width=".661" d="M25.568 0c.272 0 .492.22.492.492v14.07h-.984V.493c0-.272.22-.492.492-.492z"/>
            <path fill="#FAFBFD" stroke="#292C36" stroke-width=".661" d="M25.814 13.558a3.196 3.196 0 0 1 3.196 3.196v2.328h-6.392v-2.328a3.196 3.196 0 0 1 3.196-3.196z"/>
            <path fill="#E5E7E9" stroke="#292C36" stroke-width=".661" d="M21.143 24.606h9.342v4.52a.502.502 0 0 1-.502.501h-8.338a.502.502 0 0 1-.502-.502v-4.52z"/>
        </g>
        <g transform="translate(327 11)">
            <rect width="47.852" height="5.22" y="132.211" fill="#FAFBFD" stroke="#292C36" stroke-width=".661" rx=".653"/>
            <path fill="#FAFBFD" stroke="#292C36" stroke-width=".661" d="M4.162 128.296H43.69c.36 0 .652.292.652.653v3.262H3.51v-3.262c0-.36.292-.653.653-.653zM6.061 103.5h12.761v24.796H6.061z"/>
            <path fill="#E5E7E9" stroke="#292C36" stroke-width=".661" d="M4.162 111.33h4.451v16.966H3.51v-16.313c0-.36.292-.653.653-.653z"/>
            <path fill="#FAFBFD" stroke="#292C36" stroke-width=".661" d="M29.03 103.5h12.761v24.796H29.03z"/>
            <path fill="#E5E7E9" stroke="#292C36" stroke-width=".661" d="M43.69 111.33H39.24v16.966h5.104v-16.313a.653.653 0 0 0-.652-.653z"/>
            <path fill="#FAFBFD" stroke="#292C36" stroke-width=".661" d="M18.822 96.975H29.03v31.321H18.822z"/>
            <path fill="#E5E7E9" stroke="#292C36" stroke-width=".661" d="M15.646 29.111h16.56c.36 0 .653.293.653.653v67.21H14.994v-67.21c0-.36.292-.653.652-.653z"/>
            <path fill="#FAFBFD" stroke="#292C36" stroke-width=".661" d="M10.542 43.467h8.28V103.5H9.889V44.12c0-.36.293-.653.653-.653zM29.03 43.467h8.28c.36 0 .653.292.653.653v59.38H29.03V43.467z"/>
            <path fill="#FAFBFD" stroke="#292C36" stroke-width=".661" d="M12.931 33.027h6.678c.27 0 .489.219.489.489v9.462c0 .27-.22.49-.49.49h-7.166v-9.952c0-.27.219-.49.489-.49zM28.407 33.027h6.351c.36 0 .653.292.653.652v9.788h-7.004a.653.653 0 0 1-.653-.652v-9.136c0-.36.292-.652.653-.652zM16.922 21.281H30.93c.36 0 .653.292.653.653v7.177H16.27v-7.177c0-.36.292-.653.652-.653z"/>
            <path fill="#292C36" d="M24.059 0c.271 0 .49.22.49.491v9.95h-.981V.49c0-.271.22-.491.49-.491z"/>
            <path fill="#FAFBFD" stroke="#292C36" stroke-width=".661" d="M21.971 6.925h3.91c.338 0 .62.258.65.595l1.223 13.761h-7.656l1.223-13.76a.653.653 0 0 1 .65-.596z"/>
            <path fill="#E5E7E9" stroke="#292C36" stroke-width=".661" d="M34.787 94.365h6.351c.36 0 .653.292.653.652v8.483h-7.656v-8.483c0-.36.292-.652.652-.652zM6.714 94.365h6.351c.36 0 .653.292.653.652v7.83c0 .36-.292.653-.653.653H6.061v-8.483c0-.36.292-.652.653-.652z"/>
        </g>
        <g fill="#292C36">
            <path d="M69.583 77.937l-4.289-.908a.235.235 0 0 0-.28.196c-.021.139.07.27.208.299l4.288.907.073-.494zM69.583 76.43l-4.289-.907a.235.235 0 0 0-.28.196c-.021.139.07.27.208.299l4.288.907.073-.495zM69.583 74.924l-4.289-.907a.235.235 0 0 0-.28.195c-.021.139.07.27.208.299l4.288.907.073-.494z"/>
        </g>
        <g fill="#292C36">
            <path d="M47.417 103.937l4.289-.908a.235.235 0 0 1 .28.196c.021.139-.07.27-.208.299l-4.288.907-.073-.494zM47.417 102.43l4.289-.907a.235.235 0 0 1 .28.196c.021.139-.07.27-.208.299l-4.288.907-.073-.495zM47.417 100.924l4.289-.907a.235.235 0 0 1 .28.195c.021.139-.07.27-.208.299l-4.288.907-.073-.494z"/>
        </g>
        <g fill="#292C36">
            <path d="M73.583 103.937l-4.289-.908a.235.235 0 0 0-.28.196c-.021.139.07.27.208.299l4.288.907.073-.494zM73.583 102.43l-4.289-.907a.235.235 0 0 0-.28.196c-.021.139.07.27.208.299l4.288.907.073-.495zM73.583 100.924l-4.289-.907a.235.235 0 0 0-.28.195c-.021.139.07.27.208.299l4.288.907.073-.494z"/>
        </g>
        <g fill="#292C36">
            <path d="M43.417 127.937l4.289-.908a.235.235 0 0 1 .28.196c.021.139-.07.27-.208.299l-4.288.907-.073-.494zM43.417 126.43l4.289-.907a.235.235 0 0 1 .28.196c.021.139-.07.27-.208.299l-4.288.907-.073-.495zM43.417 124.924l4.289-.907a.235.235 0 0 1 .28.195c.021.139-.07.27-.208.299l-4.288.907-.073-.494z"/>
        </g>
        <g fill="#292C36">
            <path d="M77.583 127.937l-4.289-.908a.235.235 0 0 0-.28.196c-.021.139.07.27.208.299l4.288.907.073-.494zM77.583 126.43l-4.289-.907a.235.235 0 0 0-.28.196c-.021.139.07.27.208.299l4.288.907.073-.495zM77.583 124.924l-4.289-.907a.235.235 0 0 0-.28.195c-.021.139.07.27.208.299l4.288.907.073-.494z"/>
        </g>
        <path fill="#292C36" d="M.5 148H375v1H.5a.5.5 0 0 1 0-1z"/>
    </g>
</svg>
