<svg xmlns="http://www.w3.org/2000/svg" width="20" height="20" viewBox="0 0 20 20">
    <g fill="none" fill-rule="evenodd">
        <circle cx="10" cy="10" r="10" fill="#0088E3" transform="matrix(1 0 0 -1 0 20)"/>
        <g fill="#C2E6FF" fill-rule="nonzero">
            <path d="M14.513 11.371v.084c0 .416-.322.75-.726.75h-.5c.404 0 .726.333.726.75v.083c0 .417-.322.75-.726.75h-.677c.403 0 .726.333.726.75v.083c0 .417-.323.75-.726.75H9.997c-1.08 0-1.984-.666-2.306-1.583H6.9V9.455h.903s.693-.634 1.677-1.45c.742-.617 1.693-1.25 2.29-2.267.436-.733 2.323.583.194 3.283h1.339c.403 0 .725.334.725.75v.084c0 .416-.322.75-.725.75h.5c.403 0 .725.333.71.766zM4.965 9.438h1.274v4.367H4.965a.406.406 0 0 1-.403-.417V9.855c0-.234.177-.417.403-.417z"/>
        </g>
    </g>
</svg>
