<svg xmlns="http://www.w3.org/2000/svg" width="24" height="24" viewBox="0 0 24 24">
    <g fill="none" fill-rule="evenodd">
        <path d="M0 0h24v24H0z"/>
        <path fill="#292C36" d="M11.953 4.952c2.485 0 4.5 2.096 4.5 4.62 0 2.523-2.015 4.57-4.5 4.57-2.484 0-4.547-2.047-4.547-4.57 0-2.572 2.063-4.62 4.547-4.62zm0 1c-1.969 0-3.562 1.62-3.562 3.62 0 1.952 1.593 3.57 3.562 3.57 1.922 0 3.516-1.618 3.516-3.57 0-2-1.594-3.62-3.516-3.62z"/>
        <path fill="#292C36" d="M11.953 2c4.078 0 7.453 3.381 7.453 7.571 0 4.286-3.14 8.381-5.672 11.524-.937 1.19-2.625 1.143-3.609 0C7.594 17.905 4.5 13.857 4.5 9.571 4.5 5.381 7.828 2 11.953 2zm0 1C8.391 3 5.484 5.952 5.484 9.571c0 4 3.047 7.953 5.438 10.905.61.714 1.5.62 2.062-.047 2.391-2.953 5.391-6.905 5.391-10.858 0-3.619-2.86-6.571-6.422-6.571z"/>
    </g>
</svg>
