<svg xmlns="http://www.w3.org/2000/svg" width="89" height="24" viewBox="0 0 89 24">
    <path fill="#292C36" fill-rule="evenodd" d="M6.8 4.773c1.768 0 3.362.672 4.783 2.018 1.361 1.448 2.042 3.076 2.042 4.883 0 2.588-1.205 4.619-3.615 6.093-.952.485-1.873.753-2.762.801l-.296.008h-.38c-1.484 0-2.74-.425-3.767-1.276l-.217-.189v5.59c0 .77-.47 1.299-1.281 1.299-.762 0-1.244-.487-1.301-1.161L0 22.702V12.099c0-3.47 1.62-5.81 4.859-7.018.414-.137 1.061-.24 1.94-.308zm20.716-.039c2.597 0 4.652 1.285 6.166 3.856.413.937.643 1.897.69 2.881l.008.37v5.839c0 .504-.64.973-1.332.973-.647 0-1.192-.464-1.261-.884l-.008-.09v-.49c-.967.915-2.225 1.401-3.772 1.459l-.313.005h-.368c-2.334 0-4.28-1.182-5.836-3.547-.566-1.148-.85-2.3-.85-3.457 0-2.588 1.252-4.64 3.755-6.157 1.066-.505 2.106-.758 3.121-.758zm15.463 0c1.895 0 3.574.797 5.037 2.39 1.065 1.337 1.598 2.747 1.598 4.23v6.001c0 .94-.561 1.298-1.273 1.298-.71 0-1.34-.408-1.34-1.298v-5.372c0-2.228-.935-3.689-2.804-4.383a4.86 4.86 0 0 0-1.218-.18h-.14c-1.564 0-2.778.827-3.64 2.48-.22.49-.33 1.312-.33 2.469v5.038c0 .864-.639 1.246-1.332 1.246-.694 0-1.282-.43-1.282-1.31V6.198c0-.97.46-1.465 1.282-1.465.822 0 1.332.535 1.332 1.208v.193c1.015-.934 2.385-1.4 4.11-1.4zm15.339 0c1.895 0 3.573.797 5.037 2.39 1.065 1.337 1.598 2.747 1.598 4.23v6.001c0 .94-.562 1.298-1.273 1.298-.711 0-1.34-.408-1.34-1.298v-5.372c0-2.228-.935-3.689-2.804-4.383a4.86 4.86 0 0 0-1.218-.18h-.14c-1.564 0-2.778.827-3.64 2.48-.22.49-.33 1.312-.33 2.469v5.038c0 .864-.639 1.246-1.332 1.246-.694 0-1.282-.43-1.282-1.31V6.198c0-.97.46-1.465 1.282-1.465.822 0 1.332.535 1.332 1.208v.193c1.015-.934 2.385-1.4 4.11-1.4zm15.326-.026c2.648 0 4.703 1.273 6.166 3.818.457.902.708 1.87.754 2.904l.007.347v.283c-.142.816-.524 1.25-1.144 1.305l-.137.006h-9.502c.245.848.934 1.58 2.068 2.198.668.257 1.294.385 1.877.385.677 0 1.427-.32 2.436-.72.965-.381 1.546.482 1.595 1.168l.003.092v.142c0 .973-1.164 1.633-3.494 1.979l-.273.038h-.356c-2.47 0-4.448-1.17-5.937-3.508a7.17 7.17 0 0 1-.9-3.47c0-2.554 1.188-4.585 3.564-6.093 1.159-.582 2.25-.874 3.273-.874zM16.498 0c.694 0 1.333.4 1.333 1.355v14.537h.621c.618 0 1.217.71 1.193 1.35-.025.64-.575 1.31-1.294 1.31h-1.853c-.702 0-1.294-.511-1.294-1.31V1.355c0-.932.6-1.355 1.294-1.355zm68.493 0c.653 0 1.257.354 1.326 1.192l.006.163v3.54h1.381a1.296 1.296 0 0 1 0 2.593l-1.38-.001v8.405h.621c.617 0 1.193.653 1.193 1.35 0 .654-.506 1.234-1.161 1.304l-.134.007h-1.852c-.658 0-1.22-.514-1.287-1.177l-.007-.134V7.487H82.27a1.296 1.296 0 0 1 0-2.591l1.427-.001v-3.54c0-.877.532-1.303 1.173-1.35L84.991 0zM27.516 7.382h-.05l-.226.005c-1.639.077-2.883 1-3.733 2.77a5.651 5.651 0 0 0-.248 1.266l-.005.174v.142l.005.226c.072 1.644.942 2.888 2.608 3.732.464.177.888.277 1.27.302l.19.007h.367c1.438 0 2.626-.733 3.565-2.198.296-.6.462-1.177.5-1.73l.007-.236v-.193l-.005-.239c-.075-1.572-.898-2.786-2.469-3.643a4.252 4.252 0 0 0-1.776-.385zm-20.754.064c-1.776 0-3.079.951-3.908 2.853-.115.364-.184.7-.207 1.008l-.008.226v.244l.005.235c.073 1.473.832 2.628 2.278 3.467.464.242.96.38 1.485.415l.266.009h.28c1.631 0 2.879-.857 3.742-2.57.162-.443.256-.877.283-1.302l.008-.254v-.244l-.006-.23c-.066-1.22-.665-2.262-1.795-3.124-.71-.489-1.518-.733-2.423-.733zm66.952 0c-1.565 0-2.738.694-3.635 2.082a6.08 6.08 0 0 0-.41.878l-.11.317h8.31c-.16-.56-.473-1.159-.94-1.799-.703-.96-1.65-1.478-3.215-1.478z"/>
</svg>
