<svg xmlns="http://www.w3.org/2000/svg" width="116" height="28" viewBox="0 0 116 28">
    <path fill="#858E97" fill-rule="nonzero" d="M17.669.587h.325c1.144.24 1.716.789 1.716 1.644v13.514l.073 2.312c0 1.903-.771 3.884-2.313 5.944-2.18 2.36-4.637 3.541-7.37 3.541h-.543c-2.674 0-5.155-1.247-7.443-3.74C.704 21.815 0 19.762 0 17.642c0-3.204 1.421-5.896 4.264-8.076C6.07 8.36 7.949 7.759 9.9 7.759c2.506 0 4.553.71 6.143 2.132V3.405l-.072-1.174c.349-1.096.915-1.644 1.698-1.644zM3.739 17.443v.343c0 2.554 1.344 4.457 4.03 5.71.698.204 1.336.306 1.915.306h.415c2.481 0 4.36-1.337 5.637-4.01.205-.807.307-1.428.307-1.861v-.416c0-2.541-1.361-4.444-4.083-5.709-.831-.205-1.475-.307-1.933-.307h-.271c-2.481 0-4.36 1.319-5.637 3.957-.253.734-.38 1.397-.38 1.987zM26.358 3.225c1.193.3 1.789.867 1.789 1.698v.397c0 .952-.644 1.518-1.933 1.699-.928 0-1.536-.633-1.825-1.897.253-1.265.91-1.897 1.97-1.897zm0 4.625c1.193.3 1.789.867 1.789 1.698V25.77c0 .976-.602 1.566-1.807 1.771h-.108c-.988 0-1.596-.614-1.825-1.843V9.91c.145-1.373.795-2.06 1.951-2.06zm8.544.433c.904 0 1.482.398 1.735 1.193.975-.795 2.39-1.193 4.245-1.193 2.457 0 4.439.916 5.944 2.746.518-.963 1.97-1.806 4.354-2.529l1.59-.217c3 0 5.36 1.421 7.082 4.264.578 1.192.867 2.336.867 3.432v9.9c0 .88-.584 1.434-1.752 1.663h-.163c-1.168-.205-1.752-.807-1.752-1.807v-9.611c0-1.927-1.012-3.258-3.035-3.993l-.831-.108h-.633c-1.602 0-2.83.94-3.685 2.818-.109.398-.163.735-.163 1.012v9.882c-.217 1.205-.813 1.807-1.788 1.807h-.127c-1.168-.205-1.752-.783-1.752-1.734v-8.166c0-2.108-.26-3.403-.777-3.885-.867-1.156-1.975-1.734-3.324-1.734h-.2c-1.854 0-3.16 1-3.92 2.999-.12.482-.18 1.138-.18 1.97v8.816c0 .951-.584 1.53-1.753 1.734h-.108c-.976 0-1.578-.602-1.807-1.807v-15.41c.133-1.361.777-2.042 1.933-2.042zm39.293-.343c3.77 0 6.697 1.788 8.78 5.366.723 1.409 1.085 2.932 1.085 4.57v.398c-.217 1.228-.825 1.843-1.825 1.843H68.702c.35 1.192 1.331 2.222 2.945 3.09.952.36 1.843.541 2.674.541.963 0 2.12-.337 3.469-1.012h.578c1.132.217 1.698.807 1.698 1.77v.2c0 1.42-1.789 2.366-5.366 2.836h-.506c-3.517 0-6.335-1.644-8.455-4.932-.855-1.554-1.282-3.18-1.282-4.878 0-3.59 1.692-6.444 5.076-8.564 1.65-.819 3.204-1.228 4.661-1.228zm-5.817 8.455h11.834c0-.446-.5-1.343-1.5-2.692-1.349-1.277-2.674-1.915-3.975-1.915h-.74c-1.976 0-3.602.976-4.878 2.927-.446.77-.693 1.33-.741 1.68zM89.26.677h.326c1.144.241 1.716.783 1.716 1.626v21.5h.885c.88 0 1.445.595 1.698 1.788v.144c-.204 1.205-.819 1.807-1.842 1.807h-2.638c-1 0-1.614-.614-1.843-1.843V2.665c.145-1.325.71-1.988 1.698-1.988zm16.891 7.39c2.517 0 4.794.95 6.83 2.854 1.938 2.035 2.908 4.33 2.908 6.883 0 3.65-1.723 6.516-5.167 8.6-1.506.759-2.963 1.138-4.372 1.138h-.542c-2.626 0-5.065-1.229-7.317-3.686-1.385-1.95-2.078-3.968-2.078-6.052 0-3.167 1.397-5.817 4.192-7.949 1.782-1.192 3.63-1.789 5.546-1.789zm-5.962 9.538v.326c0 2.252 1.09 3.998 3.27 5.239.77.397 1.602.596 2.493.596h.398c2.324 0 4.107-1.21 5.347-3.631a6.309 6.309 0 0 0 .416-2.204v-.326c0-1.866-.861-3.444-2.584-4.733-1-.686-2.15-1.03-3.45-1.03-2.542 0-4.408 1.337-5.6 4.011a5.98 5.98 0 0 0-.29 1.752z"/>
</svg>
