<svg xmlns="http://www.w3.org/2000/svg" width="104" height="104" viewBox="0 0 104 104">
    <g fill="none" fill-rule="evenodd">
        <path d="M0 0h104v104H0z" opacity=".202"/>
        <g transform="translate(12 15)">
            <path fill="#F3F5F6" stroke="#797F84" stroke-width=".5" d="M45.929 51.586l5.657-5.657 8.485 8.485-5.657 5.657z"/>
            <circle cx="30.5" cy="30.5" r="30.5" fill="#A1A5A9" stroke="#797F84" stroke-width=".5"/>
            <circle cx="30.5" cy="30.5" r="26.5" fill="#F3F5F6" stroke="#797F84" stroke-width="2"/>
            <path fill="#E5E7E9" fill-rule="nonzero" d="M48.532 12.467c9.957 9.957 9.957 26.108 0 36.065-9.956 9.957-26.108 9.957-36.064 0-9.957-9.957-9.957-26.108 0-36.065 9.956-9.956 26.107-9.956 36.064 0zm-3.46 20.474v-4.869c0-8.05-6.522-14.572-14.573-14.572-8.05 0-14.571 6.521-14.571 14.572v4.87c0 5.877 3.485 10.952 8.5 13.248a14.458 14.458 0 0 0 6.071 1.323c2.174 0 4.226-.473 6.072-1.323 5.015-2.297 8.5-7.371 8.5-13.249z"/>
            <path fill="#DADADA" fill-rule="nonzero" d="M48.513 12.465C42.903 6.87 35.33 4.42 28 5.115c5.71.54 11.272 2.991 15.644 7.352 9.982 9.957 9.982 26.108 0 36.065A25.493 25.493 0 0 1 28 55.885c7.33.695 14.902-1.755 20.513-7.353 9.983-9.958 9.983-26.108 0-36.067z"/>
            <path fill="#E5E7E9" stroke="#797F84" stroke-width=".5" d="M53.272 58.929l5.657-5.657a2 2 0 0 1 2.828 0L75.9 67.414a6 6 0 1 1-8.485 8.485L53.272 61.757a2 2 0 0 1 0-2.828z"/>
        </g>
    </g>
</svg>
