<svg xmlns="http://www.w3.org/2000/svg" width="240" height="240" viewBox="0 0 240 240">
    <g fill="none" fill-rule="evenodd">
        <circle cx="120" cy="120" r="120" fill="#E8F8FF"/>
        <path d="M33 33h175v175H33z" opacity=".202"/>
        <g transform="translate(53.192 58.24)">
            <path fill="#F3F5F6" stroke="#797F84" stroke-width=".84" d="M77.284 86.803l9.519-9.519 14.278 14.278-9.519 9.52z"/>
            <circle cx="51.322" cy="51.322" r="51.322" fill="#1EA4FF" stroke="#797F84" stroke-width=".84"/>
            <circle cx="51.322" cy="51.322" r="44.591" fill="#E8F8FF" stroke="#F3F5F6" stroke-width="3.36"/>
            <path fill="#A7E5FF" fill-rule="nonzero" d="M81.665 20.978c16.754 16.756 16.754 43.931 0 60.687-16.754 16.754-43.932 16.754-60.686 0-16.754-16.756-16.754-43.931 0-60.687 16.754-16.753 43.93-16.753 60.686 0zM75.84 55.43v-8.193c0-13.547-10.973-24.52-24.52-24.52-13.547 0-24.52 10.973-24.52 24.52v8.193c0 9.89 5.865 18.43 14.303 22.293a24.328 24.328 0 0 0 10.217 2.227c3.658 0 7.11-.796 10.217-2.227C69.976 73.859 75.84 65.32 75.84 55.43z"/>
            <path fill="#70D5FF" fill-rule="nonzero" d="M81.633 20.976C72.192 11.56 59.449 7.436 47.115 8.608a42.877 42.877 0 0 1 26.324 12.37c16.797 16.755 16.797 43.931 0 60.687-7.357 7.337-16.714 11.459-26.324 12.372 12.334 1.17 25.077-2.952 34.518-12.372 16.797-16.758 16.797-43.932 0-60.69z"/>
            <path fill="#0076CB" d="M89.637 99.163l9.526-9.526a3.36 3.36 0 0 1 4.752 0l23.8 23.8c3.943 3.943 3.943 10.336 0 14.278-3.942 3.943-10.335 3.943-14.278 0l-23.8-23.8a3.36 3.36 0 0 1 0-4.752z"/>
        </g>
    </g>
</svg>
