<svg xmlns="http://www.w3.org/2000/svg" width="84" height="84" viewBox="0 0 84 84">
    <g fill="none" fill-rule="evenodd" transform="translate(2 2)">
        <circle cx="40" cy="40" r="40" stroke="#1EA4FF" stroke-width="3"/>
        <path fill="#1EA4FF" fill-rule="nonzero" d="M47.883 46.457L39.2 41.676l17.369-20.39-8.685 25.171zm-10.589-.317l.986-2.858 1.146.631-2.132 2.227zm14.922-25.257L30.842 36.865l-6.87-3.79 28.244-12.192zm-15.18 20.462l-.013.017a1.01 1.01 0 0 0-.11.17.849.849 0 0 0-.039.091l-.007.018-1.844 5.347-3-8.69 20.957-15.67-15.944 18.717zm22.932-24.187a.895.895 0 0 0 .031-.203l.001-.036a.85.85 0 0 0-.023-.202l-.01-.04-.012-.038-.014-.04-.017-.041-.015-.033a.927.927 0 0 0-.03-.058l-.008-.013v-.002a.936.936 0 0 0-.047-.07l-.014-.016a.934.934 0 0 0-.038-.048l-.025-.026-.032-.033c-.01-.01-.02-.019-.032-.028l-.03-.026c-.012-.01-.024-.018-.037-.027l-.03-.021-.04-.025-.023-.014-.008-.004-.04-.02-.037-.017-.034-.014-.045-.016-.03-.009a.872.872 0 0 0-.05-.013l-.029-.006a1.077 1.077 0 0 0-.052-.01l-.03-.003a1.13 1.13 0 0 0-.05-.005L59.083 16h-.047l-.037.002a1.206 1.206 0 0 0-.162.025.902.902 0 0 0-.134.044l-.016.006-37.19 16.053a.922.922 0 0 0-.559.8.918.918 0 0 0 .478.848l8.731 4.818 3.985 11.547.002.006.001.004a.898.898 0 0 0 .028.07l.015.03.022.044.018.03.027.043.019.027a.959.959 0 0 0 .041.051l.01.013a.934.934 0 0 0 .06.061l.005.005.014.012a.902.902 0 0 0 .11.084l.029.019a.915.915 0 0 0 .098.05l.04.019.037.013a.775.775 0 0 0 .121.033l.033.007a.97.97 0 0 0 .052.007l.028.003a.927.927 0 0 0 .079.004h.002a.938.938 0 0 0 .085-.004c.009 0 .017-.002.025-.003a.938.938 0 0 0 .148-.03l.025-.006a.962.962 0 0 0 .077-.028l.025-.011a.981.981 0 0 0 .13-.07l.025-.017a.95.95 0 0 0 .066-.05l.015-.013a.967.967 0 0 0 .052-.049l.01-.009 5.406-5.646 6.839 3.765a.949.949 0 0 0 .794.056.928.928 0 0 0 .551-.564l10.655-30.882.006-.019a1.33 1.33 0 0 0 .011-.04zM32.21 52.492a.948.948 0 0 0-1.323.066l-8.176 8.903a.91.91 0 0 0 .068 1.301c.179.16.404.238.628.238.255 0 .51-.102.695-.304l8.176-8.903a.91.91 0 0 0-.068-1.301zm-2.936-5.353a.949.949 0 0 0-1.325.025l-7.687 7.862a.91.91 0 0 0 .026 1.304.943.943 0 0 0 .65.257.942.942 0 0 0 .675-.283l7.687-7.862a.91.91 0 0 0-.026-1.303zm10.517 4.975l-6.835 7.03a.91.91 0 0 0 .03 1.302c.18.17.414.256.647.256a.942.942 0 0 0 .677-.285l6.836-7.029a.91.91 0 0 0-.03-1.303.949.949 0 0 0-1.325.03z"/>
    </g>
</svg>
