<svg xmlns="http://www.w3.org/2000/svg" width="104" height="104" viewBox="0 0 104 104">
    <g fill="none" fill-rule="evenodd">
        <path d="M0 0h104v104H0z"/>
        <g transform="translate(9 5)">
            <path fill="#E8F8FF" stroke="#797F84" stroke-linejoin="round" stroke-width=".525" d="M4.047 37.256h77.904v56.387H4.047z"/>
            <rect width="85.998" height="8.055" y="29.2" fill="#DADADA" stroke="#797F84" stroke-linejoin="round" stroke-width=".525" rx=".978"/>
            <path fill="#A1A5A9" stroke="#797F84" stroke-linejoin="round" stroke-width=".525" d="M6.036 21.145h73.926c.54 0 .978.438.978.978V29.2H5.059v-7.077c0-.54.437-.978.977-.978z"/>
            <rect width="51.599" height="18.124" x="17.2" fill="#FAFBFD" stroke="#797F84" stroke-linejoin="round" stroke-width=".525" rx=".978"/>
            <g fill="#F3F5F6" stroke="#797F84" stroke-width=".525" transform="translate(11.13 41.283)">
                <rect width="13.153" height="13.09" rx=".978"/>
                <rect width="13.153" height="13.09" x="25.294" rx=".978"/>
                <rect width="13.153" height="13.09" x="50.587" rx=".978"/>
            </g>
            <rect width="13.153" height="18.124" x="11.129" y="68.47" fill="#F3F5F6" stroke="#797F84" stroke-width=".525" rx=".978"/>
            <g fill="#A7E5FF" transform="translate(13.153 58.4)">
                <rect width="4.047" height="4.028" rx=".978"/>
                <rect width="4.047" height="4.028" x="8.094" rx=".978"/>
                <rect width="4.047" height="4.028" x="16.188" rx=".978"/>
                <rect width="4.047" height="4.028" x="24.282" rx=".978"/>
                <rect width="4.047" height="4.028" x="32.376" rx=".978"/>
                <rect width="4.047" height="4.028" x="40.47" rx=".978"/>
                <rect width="4.047" height="4.028" x="48.564" rx=".978"/>
                <rect width="4.047" height="4.028" x="56.658" rx=".978"/>
            </g>
            <path fill="#292C36" d="M31.33 68.47h23.338c.54 0 .978.438.978.978v24.195H30.352V69.448c0-.54.438-.978.978-.978z"/>
            <path fill="#292C36" d="M31.33 68.47h11.197c.54 0 .978.438.978.978v24.195H30.352V69.448c0-.54.438-.978.978-.978z"/>
            <rect width="13.153" height="18.124" x="61.717" y="68.47" fill="#F3F5F6" stroke="#797F84" stroke-width=".525" rx=".978"/>
            <g fill="#797F84" fill-rule="nonzero" opacity=".282">
                <path d="M41.116 7.056a4.708 4.708 0 0 0-1.029-1.594 4.727 4.727 0 0 0-1.594-1.053c-.621-.254-1.309-.381-2.063-.381-.755 0-1.444.126-2.067.378a4.691 4.691 0 0 0-1.601 1.052 4.72 4.72 0 0 0-1.032 1.598 5.396 5.396 0 0 0-.366 2.006c0 .722.122 1.391.366 2.006a4.723 4.723 0 0 0 1.032 1.598c.444.45.977.8 1.6 1.053a5.464 5.464 0 0 0 2.068.378c.754 0 1.442-.126 2.063-.378a4.658 4.658 0 0 0 1.594-1.053c.442-.45.785-.982 1.029-1.598a5.396 5.396 0 0 0 .366-2.006 5.4 5.4 0 0 0-.366-2.006zm-1.757 3.46a3.03 3.03 0 0 1-.624 1.09 2.707 2.707 0 0 1-.99.685 3.446 3.446 0 0 1-1.315.239c-.488 0-.928-.08-1.319-.239a2.733 2.733 0 0 1-.997-.685 3.044 3.044 0 0 1-.631-1.09 4.468 4.468 0 0 1-.221-1.454c0-.54.073-1.025.22-1.454.148-.43.358-.794.632-1.094.274-.3.606-.529.997-.688.392-.159.83-.238 1.319-.238.487 0 .925.08 1.314.238.389.16.719.389.99.688.272.3.48.664.625 1.094.145.429.218.914.218 1.454 0 .54-.073 1.025-.218 1.454zM28.33 4.028v4.33h-5.06v-4.33h-2.023v10.069h2.022V9.696h5.06v4.4h2.023V4.029zM60.607 12.55V4.029h-1.926v10.069h6.07V12.55zM41.482 4.028v1.539h3.1v8.53h1.908v-8.53h3.086v-1.54zM56.658 5.518v-1.49h-6.07v10.069h6.07V12.6H52.39V9.752h3.361V8.31h-3.36V5.518z"/>
            </g>
            <g fill="#0076CB" fill-rule="nonzero">
                <path d="M42.128 7.056a4.708 4.708 0 0 0-1.029-1.594 4.727 4.727 0 0 0-1.594-1.053c-.621-.254-1.309-.381-2.064-.381-.754 0-1.443.126-2.067.378a4.691 4.691 0 0 0-1.6 1.052 4.72 4.72 0 0 0-1.032 1.598 5.396 5.396 0 0 0-.366 2.006c0 .722.122 1.391.366 2.006a4.723 4.723 0 0 0 1.031 1.598c.444.45.978.8 1.601 1.053a5.464 5.464 0 0 0 2.067.378c.755 0 1.443-.126 2.064-.378a4.658 4.658 0 0 0 1.594-1.053c.442-.45.785-.982 1.029-1.598a5.396 5.396 0 0 0 .365-2.006 5.4 5.4 0 0 0-.365-2.006zm-1.757 3.46a3.03 3.03 0 0 1-.625 1.09 2.707 2.707 0 0 1-.99.685 3.446 3.446 0 0 1-1.315.239c-.487 0-.927-.08-1.318-.239a2.733 2.733 0 0 1-.997-.685 3.044 3.044 0 0 1-.632-1.09 4.468 4.468 0 0 1-.22-1.454c0-.54.073-1.025.22-1.454.148-.43.358-.794.632-1.094.274-.3.606-.529.997-.688.391-.159.83-.238 1.318-.238.488 0 .926.08 1.315.238.389.16.719.389.99.688.272.3.48.664.625 1.094.145.429.217.914.217 1.454 0 .54-.072 1.025-.217 1.454zM29.341 4.028v4.33h-5.06v-4.33h-2.023v10.069h2.023V9.696h5.06v4.4h2.023V4.029zM61.619 12.55V4.029h-1.926v10.069h6.07V12.55zM42.493 4.028v1.539h3.1v8.53h1.909v-8.53h3.085v-1.54zM57.67 5.518v-1.49H51.6v10.069h6.07V12.6h-4.267V9.752h3.361V8.31h-3.361V5.518z"/>
            </g>
            <path fill="#013457" d="M5.025 37.256h75.949c.54 0 .977.437.977.977v5.064H4.047v-5.064c0-.54.438-.977.978-.977z" opacity=".135"/>
            <path fill="#292C36" d="M41.482 18.124h3.035v3.021h-3.035z"/>
            <path fill="#A1A5A9" d="M42.493 68.47h1.012v25.173h-1.012z"/>
        </g>
        <rect width="88" height="2" x="8" y="97" fill="#292C36" rx="1"/>
    </g>
</svg>
