<svg xmlns="http://www.w3.org/2000/svg" width="18" height="24" viewBox="0 0 18 24">
    <path fill="#70D5FF" fill-rule="evenodd" d="M9.005 0C4.448.006.755 3.853.75 8.601c0 2.583 1.308 4.59 2.575 6.532.207.316.412.631.609.947.914 1.459 1.794 2.986 2.644 4.46.419.73.84 1.457 1.261 2.182l.533.91a.733.733 0 00.63.368c.258 0 .497-.14.631-.369.557-.95 1.107-1.92 1.641-2.857.9-1.584 1.829-3.223 2.805-4.786.246-.403.515-.799.77-1.181l.183-.275c1.22-1.836 2.218-3.55 2.218-5.936C17.242 3.854 13.556.011 9.005 0zm0 12.58c-2.314 0-4.19-1.953-4.19-4.364 0-2.41 1.876-4.365 4.19-4.365 2.313 0 4.189 1.954 4.189 4.365 0 2.41-1.876 4.365-4.19 4.365z"/>
</svg>
