<svg xmlns="http://www.w3.org/2000/svg" xmlns:xlink="http://www.w3.org/1999/xlink" width="10" height="19" viewBox="0 0 10 19">
    <defs>
        <path id="a" d="M2.85-.996c-.3.3-.3.785 0 1.085l2.98 2.988-2.98 2.988A.768.768 0 0 0 3.934 7.15l4.073-4.073L3.935-.996c-.3-.3-.785-.3-1.085 0z"/>
        <path id="c" d="M2.85-.996c-.3.3-.3.785 0 1.085l2.98 2.988-2.98 2.988A.768.768 0 0 0 3.934 7.15l4.073-4.073L3.935-.996c-.3-.3-.785-.3-1.085 0z"/>
    </defs>
    <g fill="none" fill-rule="evenodd">
        <g transform="translate(0 13)">
            <mask id="b" fill="#fff">
                <use xlink:href="#a"/>
            </mask>
            <use fill="#C2D1D9" transform="matrix(0 1 1 0 2.08 -2.08)" xlink:href="#a"/>
            <g  mask="url(#b)">
                <path d="M-3.846-6.154h18.462v18.462H-3.846z"/>
            </g>
        </g>
       
    </g>
</svg>
