<svg xmlns="http://www.w3.org/2000/svg" width="16" height="16" viewBox="0 0 16 16">
    <g fill="none" fill-rule="evenodd">
        <path d="M0 0h16v16H0z"/>
        <path fill="#292C36" d="M8 2c-2.75 0-5 .316-5 2.526v6c0 1.2 1 2.21 2.188 2.21l-.938.948V14h7.5v-.316l-.938-.947c1.188 0 2.188-1.01 2.188-2.21v-6C13 2.315 10.75 2 8 2zm-2.5 9.429c-.444 0-.833-.4-.833-.858 0-.457.389-.857.833-.857.444 0 .833.4.833.857 0 .458-.389.858-.833.858zM7.167 8H3.833V4.571h3.334V8zm3.333 3.429c-.444 0-.833-.4-.833-.858 0-.457.389-.857.833-.857.444 0 .833.4.833.857 0 .458-.389.858-.833.858zM12.167 8H8.833V4.571h3.334V8z"/>
    </g>
</svg>
