<svg xmlns="http://www.w3.org/2000/svg" width="104" height="104" viewBox="0 0 104 104">
    <g fill="none" fill-rule="evenodd">
        <path d="M0 0h104v104H0z"/>
        <path fill="#292C36" d="M47.463 16.175V13.45l-6.684-3.388A1.09 1.09 0 0 1 41.272 8h20.306a1.09 1.09 0 0 1 .493 2.062l-6.684 3.388v2.725h-7.924z"/>
        <path fill="#A7E5FF" d="M32.895 76.125l-16.35 19.62H84.67l-16.35-19.62z" opacity=".22"/>
        <path stroke="#797F84" stroke-linecap="round" stroke-width="1.09" d="M32.895 75.58L16.545 95.2M68.32 75.58L84.67 95.2"/>
        <path fill="#797F84" d="M27.99 81.575h45.235l1.635 1.09H26.9zM21.995 89.205h57.37l2.035 1.09H20.36z"/>
        <path fill="#E8F8FF" stroke="#797F84" stroke-width=".545" d="M34.314 15.085h33.313a10.9 10.9 0 0 1 10.105 6.814c3.822 9.451 6.134 16.99 6.938 22.616.51 3.572.854 8.108 1.031 13.609.31 9.627-7.243 17.682-16.87 17.992a17.44 17.44 0 0 1-.561.009H33.888c-9.631 0-17.44-7.808-17.44-17.44 0-.297.008-.595.023-.891.273-5.332.661-9.758 1.164-13.279.803-5.624 2.965-13.086 6.485-22.388a10.9 10.9 0 0 1 10.194-7.042z"/>
        <path fill="#A7E5FF" stroke="#797F84" stroke-width=".545" d="M36.456 15.085h29.46a4.36 4.36 0 0 1 3.772 2.175c3.361 5.803 5.422 11.56 6.183 17.27a167.48 167.48 0 0 1 1.111 11.178 8.72 8.72 0 0 1-7.698 9.232c-5.874.68-11.918 1.02-18.131 1.02-6.124 0-12.164-.33-18.123-.99a8.72 8.72 0 0 1-7.699-9.689 314.31 314.31 0 0 1 1.457-10.751c.866-5.656 2.8-11.358 5.804-17.105a4.36 4.36 0 0 1 3.864-2.34z" opacity=".755"/>
        <path fill="#1EA4FF" fill-opacity=".116" stroke="#797F84" stroke-width=".545" d="M51.153 15.085h14.762a4.36 4.36 0 0 1 3.773 2.175c3.361 5.803 5.422 11.56 6.183 17.27.502 3.769.875 7.535 1.119 11.3a8.72 8.72 0 0 1-7.93 9.249c-4.445.395-10.414.689-17.907.881V15.085z"/>
        <path fill="#FAFBFD" stroke="#A1A5A9" stroke-linejoin="round" stroke-width=".545" d="M22.54 59.775h9.81c.602 0 1.09.488 1.09 1.09v7.63h-2.18a8.72 8.72 0 0 1-8.72-8.72zM79.22 59.775h-9.81a1.09 1.09 0 0 0-1.09 1.09v7.63h2.18a8.72 8.72 0 0 0 8.72-8.72z"/>
        <path fill="#0088E4" fill-opacity=".104" d="M41.07 15.085c-2.907.727-4.723 2.543-5.45 5.45-1.09 4.36-4.36 19.62-4.905 25.615-.545 5.995 1.09 7.63 3.27 8.72 2.18 1.09-4.36 0-7.085-3.815-2.725-3.815-1.635-11.445.545-20.165 2.18-8.72 4.905-14.715 7.085-15.26 1.453-.363 3.633-.545 6.54-.545z"/>
        <path fill="#0088E4" fill-opacity=".701" d="M29.625 23.805a110.667 110.667 0 0 0 21.8 2.18c7.283 0 14.55-.727 21.8-2.18L71.59 19.99l-40.875-.545-1.09 4.36z" opacity=".353"/>
        <path fill="#E5E7E9" stroke="#797F84" stroke-width=".545" d="M34.487 15.085h33.284a4.36 4.36 0 0 1 3.559 1.841c1.462 2.066 2.457 3.632 2.985 4.699.639 1.29-10.673 2.169-22.89 2.18-12.232.011-24.033-.897-23.435-2.18.491-1.053 1.47-2.618 2.935-4.694a4.36 4.36 0 0 1 3.562-1.846z"/>
    </g>
</svg>
